<?xml version="1.0" encoding="utf-8"?>
<!-- Generator: Adobe Illustrator 18.0.0, SVG Export Plug-In . SVG Version: 6.00 Build 0)  -->
<!DOCTYPE svg PUBLIC "-//W3C//DTD SVG 1.1//EN" "http://www.w3.org/Graphics/SVG/1.1/DTD/svg11.dtd">
<svg version="1.1" id="Layer_1" xmlns="http://www.w3.org/2000/svg" xmlns:xlink="http://www.w3.org/1999/xlink" x="0px" y="0px"
	 viewBox="0 0 100 100" enable-background="new 0 0 100 100" xml:space="preserve">
<path fill="#777777" d="M50,8.5C73,8.5,91.5,27,91.5,50S73,91.5,50,91.5S8.5,73,8.5,50S27,8.5,50,8.5 M50,2.5C24,2.5,2.5,24,2.5,50
	S24,97.5,50,97.5S97.5,76,97.5,50S76,2.5,50,2.5L50,2.5z"/>
<path fill="#777777" d="M66.4,62.6L53.7,50l12.6-12.6c1-1,1-2.7,0-3.7c-1-1-2.7-1-3.7,0L50,46.3L37.4,33.6c-1-1-2.7-1-3.7,0
	c-0.5,0.5-0.8,1.2-0.8,1.9s0.3,1.4,0.8,1.9L46.3,50L33.6,62.6c-0.5,0.5-0.8,1.2-0.8,1.9s0.3,1.4,0.8,1.9c0.5,0.5,1.2,0.8,1.9,0.8
	s1.4-0.3,1.9-0.8L50,53.7l12.6,12.6c0.5,0.5,1.2,0.8,1.9,0.8s1.4-0.3,1.9-0.8C67.4,65.3,67.4,63.7,66.4,62.6z"/>
</svg>
