<?xml version="1.0" encoding="utf-8"?>
<!-- Generator: Adobe Illustrator 18.0.0, SVG Export Plug-In . SVG Version: 6.00 Build 0)  -->
<!DOCTYPE svg PUBLIC "-//W3C//DTD SVG 1.1//EN" "http://www.w3.org/Graphics/SVG/1.1/DTD/svg11.dtd">
<svg version="1.1" id="Layer_1" xmlns="http://www.w3.org/2000/svg" xmlns:xlink="http://www.w3.org/1999/xlink" x="0px" y="0px"
	 viewBox="0 0 100 100" enable-background="new 0 0 100 100" xml:space="preserve">
<path fill="#939393" d="M50,8.5C73,8.5,91.5,27,91.5,50S73,91.5,50,91.5S8.5,73,8.5,50S27,8.5,50,8.5 M50,2.5C24,2.5,2.5,24,2.5,50
	S24,97.5,50,97.5S97.5,76,97.5,50S76,2.5,50,2.5L50,2.5z"/>
<path fill="#3C5A98" d="M399.8,335.8v-22.7c0-1.2,0.1-2.4,0.5-3.3c1-2.4,3.2-4.9,7-4.9c4.9,0,6.9,3.7,6.9,9.2v21.7h13.6v-23.3
	c0-12.5-6.7-18.3-15.7-18.3c-7.2,0-10.4,3.9-12.2,6.7v0.1h-0.1c0,0,0.1-0.1,0.1-0.1v-5.8h-13.6c0.2,3.8,0,40.6,0,40.6H399.8z"/>
<path fill="#3C5A98" d="M371.8,289.7L371.8,289.7c4.8,0,7.8-3.1,7.8-7c-0.1-4-3-7-7.6-7c-4.7,0-7.7,3-7.7,7
	C364.3,286.5,367.2,289.7,371.8,289.7z"/>
<rect x="365.1" y="295.2" fill="#3C5A98" width="13.6" height="40.6"/>
<g>
	<path fill="#939393" d="M50,62.3L29.6,41.9c-1-1-1-2.6,0-3.5c1-1,2.6-1,3.5,0L50,55.3l16.9-16.9c1-1,2.6-1,3.5,0c1,1,1,2.6,0,3.5
		L50,62.3z"/>
</g>
</svg>
