<?xml version="1.0" encoding="utf-8"?>
<!-- Generator: Adobe Illustrator 18.0.0, SVG Export Plug-In . SVG Version: 6.00 Build 0)  -->
<!DOCTYPE svg PUBLIC "-//W3C//DTD SVG 1.1//EN" "http://www.w3.org/Graphics/SVG/1.1/DTD/svg11.dtd">
<svg version="1.1" id="Layer_1" xmlns="http://www.w3.org/2000/svg" xmlns:xlink="http://www.w3.org/1999/xlink" x="0px" y="0px"
	 viewBox="0 0 100 100" enable-background="new 0 0 100 100" xml:space="preserve">
<path fill="#FFFFFF" d="M50,8.5C73,8.5,91.5,27,91.5,50S73,91.5,50,91.5S8.5,73,8.5,50S27,8.5,50,8.5 M50,2.5C24,2.5,2.5,24,2.5,50
	S24,97.5,50,97.5S97.5,76,97.5,50S76,2.5,50,2.5L50,2.5z"/>
<path fill="#3C5A98" d="M399.8,335.8v-22.7c0-1.2,0.1-2.4,0.5-3.3c1-2.4,3.2-4.9,7-4.9c4.9,0,6.9,3.7,6.9,9.2v21.7h13.6v-23.3
	c0-12.5-6.7-18.3-15.7-18.3c-7.2,0-10.4,3.9-12.2,6.7v0.1h-0.1c0,0,0.1-0.1,0.1-0.1v-5.8h-13.6c0.2,3.8,0,40.6,0,40.6H399.8z"/>
<path fill="#3C5A98" d="M371.8,289.7L371.8,289.7c4.8,0,7.8-3.1,7.8-7c-0.1-4-3-7-7.6-7c-4.7,0-7.7,3-7.7,7
	C364.3,286.5,367.2,289.7,371.8,289.7z"/>
<rect x="365.1" y="295.2" fill="#3C5A98" width="13.6" height="40.6"/>
<path fill="#FFFFFF" d="M53.1,74.4V56c0-1,0.1-2,0.4-2.7c0.8-2,2.6-4,5.7-4c4,0,5.6,3,5.6,7.5v17.6h11V55.5
	c0-10.1-5.4-14.8-12.7-14.8c-5.9,0-8.5,3.2-9.9,5.5v0.1H53c0,0,0-0.1,0.1-0.1v-4.7h-11c0.1,3.1,0,33,0,33H53.1z"/>
<path fill="#FFFFFF" d="M30.4,37L30.4,37c3.9,0,6.3-2.5,6.3-5.7c-0.1-3.2-2.4-5.7-6.2-5.7c-3.8,0-6.2,2.5-6.2,5.7
	C24.3,34.4,26.7,37,30.4,37z"/>
<rect x="24.9" y="41.5" fill="#FFFFFF" width="11" height="33"/>
</svg>
