<?xml version="1.0" encoding="utf-8"?>
<!-- Generator: Adobe Illustrator 18.0.0, SVG Export Plug-In . SVG Version: 6.00 Build 0)  -->
<!DOCTYPE svg PUBLIC "-//W3C//DTD SVG 1.1//EN" "http://www.w3.org/Graphics/SVG/1.1/DTD/svg11.dtd">
<svg version="1.1" id="Layer_1" xmlns="http://www.w3.org/2000/svg" xmlns:xlink="http://www.w3.org/1999/xlink" x="0px" y="0px"
	 viewBox="0 0 100 100" enable-background="new 0 0 100 100" xml:space="preserve">
<path fill="#FFFFFF" d="M50,8.5C73,8.5,91.5,27,91.5,50S73,91.5,50,91.5S8.5,73,8.5,50S27,8.5,50,8.5 M50,2.5C24,2.5,2.5,24,2.5,50
	S24,97.5,50,97.5S97.5,76,97.5,50S76,2.5,50,2.5L50,2.5z"/>
<path fill="#3C5A98" d="M399.8,335.8v-22.7c0-1.2,0.1-2.4,0.5-3.3c1-2.4,3.2-4.9,7-4.9c4.9,0,6.9,3.7,6.9,9.2v21.7h13.6v-23.3
	c0-12.5-6.7-18.3-15.7-18.3c-7.2,0-10.4,3.9-12.2,6.7v0.1h-0.1c0,0,0.1-0.1,0.1-0.1v-5.8h-13.6c0.2,3.8,0,40.6,0,40.6H399.8z"/>
<path fill="#3C5A98" d="M371.8,289.7L371.8,289.7c4.8,0,7.8-3.1,7.8-7c-0.1-4-3-7-7.6-7c-4.7,0-7.7,3-7.7,7
	C364.3,286.5,367.2,289.7,371.8,289.7z"/>
<rect x="365.1" y="295.2" fill="#3C5A98" width="13.6" height="40.6"/>
<path id="Twitter_1_" fill="#FFFFFF" d="M75,34.5c-1.8,0.8-3.8,1.4-5.9,1.6c2.1-1.3,3.8-3.3,4.5-5.7c-2,1.2-4.2,2-6.5,2.5
	c-1.9-2-4.5-3.2-7.5-3.2c-5.7,0-10.3,4.6-10.3,10.3c0,0.8,0.1,1.6,0.3,2.3c-8.5-0.4-16.1-4.5-21.2-10.7C27.6,33,27,34.8,27,36.7
	c0,3.6,1.8,6.7,4.6,8.6c-1.7-0.1-3.3-0.5-4.7-1.3c0,0,0,0.1,0,0.1c0,5,3.5,9.1,8.2,10.1c-0.9,0.2-1.8,0.4-2.7,0.4
	c-0.7,0-1.3-0.1-1.9-0.2c1.3,4.1,5.1,7.1,9.6,7.1c-3.5,2.8-7.9,4.4-12.8,4.4c-0.8,0-1.6,0-2.5-0.1c4.5,2.9,10,4.6,15.8,4.6
	c18.9,0,29.2-15.7,29.2-29.2c0-0.4,0-0.9,0-1.3C71.9,38.3,73.7,36.5,75,34.5z"/>
</svg>
