<?xml version="1.0" encoding="utf-8"?>
<!-- Generator: Adobe Illustrator 18.1.0, SVG Export Plug-In . SVG Version: 6.00 Build 0)  -->
<!DOCTYPE svg PUBLIC "-//W3C//DTD SVG 1.1//EN" "http://www.w3.org/Graphics/SVG/1.1/DTD/svg11.dtd">
<svg version="1.1" id="Layer_1" xmlns="http://www.w3.org/2000/svg" xmlns:xlink="http://www.w3.org/1999/xlink" x="0px" y="0px"
	 viewBox="0 0 216 216" enable-background="new 0 0 216 216" xml:space="preserve">
<g>
	<path fill="#F4C01A" d="M74.3,176.3c-0.5,0.2-1,0.4-1.5,0.4c-1,0-1.8-0.4-2.4-1.3c-0.6-0.9-0.9-1.9-0.9-3.2c0-0.8,0.1-1.5,0.4-2.3
		c0.3-0.7,0.6-1.3,1.2-1.7c0.5-0.4,1.1-0.6,1.8-0.6c0.4,0,0.9,0.1,1.4,0.3v2c-0.3-0.3-0.7-0.5-1.1-0.5c-0.5,0-0.9,0.2-1.1,0.7
		c-0.3,0.5-0.4,1.2-0.4,2.1c0,0.8,0.1,1.4,0.4,1.9c0.3,0.5,0.6,0.7,1.1,0.7c0.3,0,0.7-0.2,1.1-0.5V176.3z"/>
	<path fill="#F4C01A" d="M78.2,167.6c1.1,0,1.9,0.4,2.5,1.2c0.6,0.8,0.9,1.9,0.9,3.3c0,1.4-0.3,2.5-0.9,3.4
		c-0.6,0.8-1.4,1.3-2.4,1.3c-1,0-1.8-0.4-2.4-1.3c-0.6-0.9-0.8-1.9-0.8-3.2c0-0.9,0.1-1.7,0.4-2.4c0.3-0.7,0.7-1.3,1.2-1.6
		C77.1,167.8,77.6,167.6,78.2,167.6z M78.4,169.4c-0.4,0-0.7,0.2-1,0.7c-0.2,0.5-0.3,1.1-0.3,2c0,0.8,0.1,1.5,0.3,2
		c0.2,0.5,0.5,0.7,0.9,0.7c0.4,0,0.7-0.2,0.9-0.7c0.2-0.5,0.3-1.2,0.3-2c0-0.9-0.1-1.5-0.3-2C79,169.7,78.7,169.4,78.4,169.4z"/>
	<path fill="#F4C01A" d="M82.5,167.7h2.1l1,2.8c0.3,0.8,0.5,1.6,0.7,2.2h0.1l-0.1-1.5v-3.5h2v8.8h-2.1l-1-2.8
		c-0.3-0.8-0.5-1.6-0.7-2.2h-0.1l0.1,1.5v3.5h-2V167.7z"/>
	<path fill="#F4C01A" d="M94,176.3c-0.5,0.2-1,0.4-1.5,0.4c-1,0-1.8-0.4-2.4-1.3c-0.6-0.9-0.9-1.9-0.9-3.2c0-0.8,0.1-1.5,0.4-2.3
		c0.3-0.7,0.6-1.3,1.2-1.7c0.5-0.4,1.1-0.6,1.8-0.6c0.4,0,0.9,0.1,1.3,0.3v2c-0.3-0.3-0.7-0.5-1.1-0.5c-0.5,0-0.9,0.2-1.1,0.7
		c-0.3,0.5-0.4,1.2-0.4,2.1c0,0.8,0.1,1.4,0.4,1.9c0.3,0.5,0.6,0.7,1.1,0.7c0.3,0,0.7-0.2,1.1-0.5V176.3z"/>
	<path fill="#F4C01A" d="M97.9,167.6c1.1,0,1.9,0.4,2.5,1.2c0.6,0.8,0.9,1.9,0.9,3.3c0,1.4-0.3,2.5-0.9,3.4
		c-0.6,0.8-1.4,1.3-2.4,1.3c-1,0-1.8-0.4-2.4-1.3c-0.6-0.9-0.8-1.9-0.8-3.2c0-0.9,0.1-1.7,0.4-2.4c0.3-0.7,0.7-1.3,1.2-1.6
		C96.9,167.8,97.4,167.6,97.9,167.6z M98.1,169.4c-0.4,0-0.7,0.2-1,0.7c-0.2,0.5-0.3,1.1-0.3,2c0,0.8,0.1,1.5,0.3,2
		c0.2,0.5,0.5,0.7,0.9,0.7c0.4,0,0.7-0.2,0.9-0.7c0.2-0.5,0.3-1.2,0.3-2c0-0.9-0.1-1.5-0.3-2C98.7,169.7,98.5,169.4,98.1,169.4z"/>
	<path fill="#F4C01A" d="M102.2,167.7h2.1v5.9c0,0.5,0.1,0.8,0.2,1.1c0.1,0.2,0.3,0.4,0.6,0.4c0.3,0,0.5-0.1,0.6-0.3
		c0.1-0.2,0.2-0.5,0.2-1v-6h2.1v6.1c0,0.9-0.3,1.6-0.8,2.1c-0.5,0.5-1.2,0.8-2.1,0.8c-0.9,0-1.6-0.2-2.1-0.7
		c-0.5-0.5-0.7-1.2-0.7-2.2V167.7z"/>
	<path fill="#F4C01A" d="M109,167.7h3.2c0.7,0,1.3,0.2,1.7,0.6c0.4,0.4,0.7,0.9,0.7,1.6c0,0.6-0.2,1-0.5,1.4
		c-0.3,0.4-0.8,0.7-1.4,0.9c0.8,0.1,1.3,0.6,1.5,1.5l0.6,2.8h-2.3l-0.3-2.4c-0.1-0.4-0.2-0.7-0.3-0.9c-0.1-0.2-0.3-0.3-0.6-0.3h-0.2
		v3.6H109V167.7z M111.1,169.4v1.9h0.4c0.3,0,0.6-0.1,0.7-0.3c0.2-0.2,0.3-0.4,0.3-0.7c0-0.3-0.1-0.5-0.2-0.7
		c-0.1-0.1-0.4-0.2-0.7-0.2H111.1z"/>
	<path fill="#F4C01A" d="M115.3,173.9c0.7,0.6,1.3,1,1.9,1c0.3,0,0.6-0.1,0.8-0.3c0.2-0.2,0.3-0.4,0.3-0.7c0-0.2-0.1-0.4-0.2-0.6
		c-0.2-0.2-0.5-0.4-0.9-0.6c-0.6-0.3-1.1-0.6-1.4-1c-0.3-0.4-0.5-0.9-0.5-1.4c0-0.7,0.3-1.4,0.8-1.9c0.5-0.5,1.2-0.8,2-0.8
		c0.6,0,1.2,0.2,1.8,0.5v2.1c-0.6-0.5-1.1-0.8-1.6-0.8c-0.3,0-0.5,0.1-0.7,0.2c-0.2,0.2-0.3,0.3-0.3,0.6c0,0.2,0.1,0.4,0.2,0.5
		c0.1,0.2,0.4,0.3,0.8,0.5c0.7,0.3,1.2,0.6,1.5,1c0.3,0.4,0.5,0.9,0.5,1.6c0,0.8-0.3,1.5-0.9,2.1c-0.6,0.6-1.3,0.9-2.2,0.9
		c-0.7,0-1.4-0.2-2.1-0.6V173.9z"/>
	<path fill="#F4C01A" d="M122.5,167.7h2.6c0.8,0,1.4,0.2,1.9,0.5c0.5,0.4,0.9,0.9,1.1,1.6c0.2,0.7,0.3,1.4,0.3,2.2
		c0,1.4-0.3,2.5-0.9,3.3c-0.6,0.8-1.5,1.2-2.7,1.2h-2.3V167.7z M124.6,169.4v5.4h0.1c1.1,0,1.6-1,1.6-2.9c0-0.7-0.1-1.4-0.3-1.8
		c-0.2-0.5-0.6-0.7-1.1-0.7H124.6z"/>
	<path fill="#F4C01A" d="M130.8,172.4h-0.9c0.4-1,0.6-1.8,0.6-2.5c-0.6-0.2-0.9-0.6-0.9-1.2c0-0.4,0.1-0.7,0.3-0.9
		c0.2-0.2,0.5-0.3,0.8-0.3c0.3,0,0.6,0.1,0.8,0.4c0.2,0.3,0.3,0.6,0.3,1C131.9,169.9,131.5,171,130.8,172.4z"/>
	<path fill="#F4C01A" d="M134.9,167.7h2.1l2.3,8.8H137l-0.3-1.8H135l-0.3,1.8h-2.1L134.9,167.7z M135.9,170.1l-0.6,3.1h1.1
		L135.9,170.1z"/>
	<path fill="#F4C01A" d="M139.9,167.7h3.2c0.7,0,1.3,0.2,1.7,0.6c0.4,0.4,0.7,0.9,0.7,1.6c0,0.6-0.2,1-0.5,1.4
		c-0.3,0.4-0.8,0.7-1.4,0.9c0.8,0.1,1.3,0.6,1.5,1.5l0.6,2.8h-2.3l-0.3-2.4c-0.1-0.4-0.2-0.7-0.3-0.9c-0.1-0.2-0.3-0.3-0.6-0.3h-0.2
		v3.6h-2.1V167.7z M141.9,169.4v1.9h0.5c0.3,0,0.6-0.1,0.7-0.3c0.2-0.2,0.3-0.4,0.3-0.7c0-0.3-0.1-0.5-0.2-0.7
		c-0.1-0.1-0.4-0.2-0.7-0.2H141.9z"/>
	<path fill="#F4C01A" d="M145.9,167.7h5.6v1.8h-1.8v7.1h-2.1v-7.1h-1.7V167.7z"/>
	<path fill="#058998" d="M75.6,178.9c1.6,0,3,0.8,4,2.4c1,1.6,1.5,3.8,1.5,6.7c0,2.6-0.5,4.6-1.6,6.2c-1,1.5-2.4,2.3-4,2.3
		c-1.6,0-3-0.8-4-2.3c-1-1.5-1.5-3.6-1.5-6.3c0-2.7,0.5-4.9,1.5-6.5C72.5,179.7,73.9,178.9,75.6,178.9z M75.7,180.4
		c-1.4,0-2.4,0.7-3,2.1c-0.6,1.4-1,3.2-1,5.4c0,2.1,0.3,3.8,1,5.1c0.7,1.3,1.6,1.9,2.8,1.9c1.2,0,2.2-0.6,2.8-1.9
		c0.7-1.3,1-3.1,1-5.3c0-2.4-0.4-4.2-1.1-5.4C77.6,181,76.7,180.4,75.7,180.4z"/>
	<path fill="#058998" d="M83.6,179.2h4.1c1.5,0,2.7,0.3,3.6,1c0.9,0.7,1.3,1.7,1.3,3.1c0,1-0.3,2-0.8,2.7c-0.6,0.8-1.4,1.3-2.6,1.7
		c0.8,0.2,1.4,0.6,1.8,1.1s0.7,1.3,0.9,2.3l1,5.1H91l-0.7-4.1c-0.2-1.3-0.6-2.2-1.1-2.8c-0.5-0.6-1.3-0.9-2.2-0.9h-1.8v7.8h-1.6
		V179.2z M85.2,180.7v6.4h1.7c1.2,0,2.2-0.3,2.9-1c0.7-0.6,1.1-1.5,1.1-2.6c0-0.9-0.3-1.6-0.8-2.1c-0.5-0.5-1.3-0.7-2.4-0.7H85.2z"
		/>
	<path fill="#058998" d="M98,179.2h1.6l4.7,17h-1.9l-1.4-5.9h-4.5l-1.4,5.9h-1.8L98,179.2z M98.8,181.3l-1.9,7.7h3.8L98.8,181.3z"/>
	<path fill="#058998" d="M103.3,179.2h9.5v1.4h-4v15.6h-1.6v-15.6h-3.9V179.2z"/>
	<path fill="#058998" d="M119.1,178.9c1.6,0,3,0.8,4,2.4c1,1.6,1.5,3.8,1.5,6.7c0,2.6-0.5,4.6-1.6,6.2c-1,1.5-2.4,2.3-4,2.3
		c-1.6,0-3-0.8-4-2.3c-1-1.5-1.5-3.6-1.5-6.3c0-2.7,0.5-4.9,1.5-6.5C116,179.7,117.3,178.9,119.1,178.9z M119.2,180.4
		c-1.4,0-2.4,0.7-3,2.1c-0.6,1.4-1,3.2-1,5.4c0,2.1,0.3,3.8,1,5.1c0.7,1.3,1.6,1.9,2.8,1.9c1.2,0,2.2-0.6,2.8-1.9
		c0.7-1.3,1-3.1,1-5.3c0-2.4-0.4-4.2-1.1-5.4C121.1,181,120.2,180.4,119.2,180.4z"/>
	<path fill="#058998" d="M127,179.2h1.7v17H127V179.2z"/>
	<path fill="#058998" d="M132,179.2h4.1c1.5,0,2.7,0.3,3.6,1c0.9,0.7,1.3,1.7,1.3,3.1c0,1-0.3,2-0.8,2.7c-0.6,0.8-1.4,1.3-2.6,1.7
		c0.8,0.2,1.4,0.6,1.8,1.1c0.4,0.5,0.7,1.3,0.9,2.3l1,5.1h-1.8l-0.7-4.1c-0.2-1.3-0.6-2.2-1.1-2.8c-0.5-0.6-1.3-0.9-2.2-0.9h-1.8
		v7.8H132V179.2z M133.6,180.7v6.4h1.7c1.2,0,2.2-0.3,2.9-1c0.7-0.6,1.1-1.5,1.1-2.6c0-0.9-0.3-1.6-0.8-2.1
		c-0.5-0.5-1.3-0.7-2.4-0.7H133.6z"/>
	<path fill="#058998" d="M143.3,179.2h8.3v1.4H145v6h6.2v1.4H145v6.7h6.6v1.4h-8.3V179.2z"/>
</g>
<text transform="matrix(1 0 0 1 68.4751 163.3867)" fill="#344358" font-family="'AbadiMT-CondensedExtraBold'" font-size="61.9026">CPF</text>
<path fill="#F4C01A" d="M107.3,112.1c-0.1,0.2-0.2,0.4-0.3,0.6l0,0C107.1,112.5,107.2,112.3,107.3,112.1z"/>
<g>
	<path fill="#058998" d="M110.4,20.6c2.9,0.9,5.2,1.6,5.9,1.8l0,0C115.7,22.2,113.4,21.5,110.4,20.6z"/>
	<path fill="#C9C364" d="M107.6,71.4c0,5.5,0,9.7,0,10.9l0,0C107.6,81.1,107.6,76.9,107.6,71.4z"/>
	<path fill="#C9C364" d="M138,107.9c0.5,1.6,0.9,3,1.3,4.1l0,0C138.9,110.8,138.4,109.4,138,107.9z"/>
	<path fill="#344358" d="M174.7,89.5c0.1-0.2,0.4-0.9,0.9-1.8l0,0C175.1,88.6,174.8,89.2,174.7,89.5L174.7,89.5z"/>
	<path fill="#C9C364" d="M151.6,29c0.9-1.7,1.8-3.2,2.5-4.5l0,0C153.3,25.8,152.5,27.3,151.6,29z"/>
	<path fill="#344358" d="M175.6,87.4c0,0.1-0.1,0.2-0.1,0.2l0,0C175.6,87.6,175.6,87.5,175.6,87.4z"/>
	<path fill="#058998" d="M92,14.8C91.9,14.8,91.9,14.8,92,14.8c3,0.9,10,3.1,15.8,4.9C101.9,17.9,94.9,15.8,92,14.8z"/>
	<path fill="#C9C364" d="M55.1,34.9c-1.2-1.5-2.3-2.9-3.2-4l0,0C52.8,32,53.9,33.4,55.1,34.9z"/>
	<path fill="#C9C364" d="M132.6,63.2l2.2-8.6l-7.6,1.7c0,0-1.3,0.4-1.7-0.9l-1-3.7c0,0-5.5,6.5-6.5,7.6c0,0-2.1,1.9-2-1.3l2.8-15.3
		c0,0-3.2,1.7-4,2.1c0,0-1.6,0.9-2.3-1c0,0-3.9-7.4-4.8-9.7c0,0,0,19.2,0,33.5c0-14.2,0-33.5,0-33.5c-0.9,2.2-4.8,9.6-4.8,9.6
		c-0.7,1.9-2.3,1-2.3,1c-0.8-0.4-4-2.2-4-2.2L99.2,58c0.1,3.2-2,1.3-2,1.3c-1.1-1.1-6.5-7.6-6.5-7.6l-1,3.7
		c-0.4,1.4-1.7,0.9-1.7,0.9l-7.6-1.7l2.2,8.6c0.6,1.7-0.3,2.2-0.3,2.2l-3.2,1.6L92.2,78c1.7,1.2,1.3,2.4,1.3,2.4l-1.3,4.1l14.1-1.8
		l1.2-0.4v0l0.1,0c0-1.2,0-5.4,0-10.9c0-0.4,0-0.8,0-1.2c0,0.4,0,0.8,0,1.2c0,5.5,0,9.7,0,10.9l0,0l0.1,0v0l1.2,0.4l14.1,1.8
		l-1.3-4.1c0,0-0.4-1.1,1.3-2.4l13.1-11.1l-3.2-1.6C132.9,65.4,132,64.9,132.6,63.2z"/>
	<path fill="#C9C364" d="M107.6,98.7h-0.1l0,0l1.1,0l-0.5-15.2c0-0.7,1-0.8,1-0.8l-0.2-0.1l-1.2-0.2L107.6,98.7z"/>
	<polygon fill="#C9C364" points="107.6,82.3 107.6,82.3 107.6,82.3 107.6,82.3 	"/>
	<polygon fill="#C9C364" points="107.7,82.5 108.9,82.7 107.7,82.3 	"/>
	<polygon fill="#C9C364" points="107.6,82.3 107.6,82.3 107.6,82.3 	"/>
	<polygon fill="#C9C364" points="107.6,82.3 107.5,82.3 107.5,82.3 107.6,82.3 	"/>
	<path fill="#C9C364" d="M106.3,82.7l-0.2,0.1c0,0,1,0.1,1,0.8l-0.5,15.2h0.9l0-16.2L106.3,82.7z"/>
	<polygon fill="#C9C364" points="107.7,82.3 107.6,82.3 107.7,82.3 	"/>
	<polygon fill="#C9C364" points="107.5,82.3 106.3,82.7 107.5,82.5 	"/>
	<path fill="#C9C364" d="M107.7,82.5L107.7,82.5c-0.1-0.1-0.1-0.1-0.1-0.2l0,0C107.6,82.4,107.6,82.5,107.7,82.5l-0.1,0l0,16.2h0.1
		L107.7,82.5z"/>
	<path fill="#C9C364" d="M107.6,82.5L107.6,82.5l0.1-0.2l-0.1,0h0C107.6,82.4,107.6,82.5,107.6,82.5z"/>
	<path fill="#C9C364" d="M107.6,82.5c0-0.1,0-0.1,0-0.2l-0.1,0L107.6,82.5L107.6,82.5z"/>
	<path fill="#F4C01A" d="M154,98.2c0,0-0.7-0.1-0.7-1.4l-0.4-6.4l-4.9,2.9c0,0-0.8,0.6-1.4-0.3l-1.5-2.3c0,0-2.3,5.7-2.8,6.7
		c0,0-1,1.7-1.6-0.5l-1.5-11.2c0,0-1.8,1.9-2.3,2.4c0,0-0.9,1-1.8-0.2c0,0-4.3-4.3-5.4-5.6c0,0,4,12.4,7.1,22.1
		c0.1,0.3,0.2,0.6,0.3,0.9c-0.1-0.3-0.2-0.6-0.3-0.9c-3.1-9.7-7.1-22.1-7.1-22.1c-0.1,1.7-1.2,7.7-1.2,7.7c-0.1,1.5-1.4,1.2-1.4,1.2
		c-0.6-0.1-3.2-0.6-3.2-0.6l5.3,9.9c0.8,2.2-1.1,1.3-1.1,1.3c-1-0.5-6.2-3.8-6.2-3.8l0.1,2.8c0,1-1,1-1,1l-5.6,0.5l3.4,5.4
		c0.8,1,0.3,1.5,0.3,1.5l-1.9,1.8l9.5,4c4.3-0.8,8.4-1.8,12.4-3c-0.4-1.2-0.8-2.6-1.3-4.1c-0.1-0.3-0.2-0.5-0.3-0.8
		c0.1,0.3,0.2,0.6,0.3,0.8c0.5,1.6,0.9,3,1.3,4.1c4.2-1.3,8.1-2.9,11.8-4.7l5.5-8.8L154,98.2z"/>
	<path fill="#F4C01A" d="M133.9,23.3c0,0,0.4,0.6-0.6,1.5l-4.4,4.7l5.4,1.6c0,0,1,0.2,0.7,1.2l-0.7,2.7c0,0,5.7-2.2,6.8-2.5
		c0,0,2-0.5,0.8,1.5l-7.1,8.7c0,0,2.6,0,3.3,0c0,0,1.3,0,1.1,1.4c0,0-0.1,6.1-0.3,7.8c0,0,6.3-11.4,11.2-20.3
		c0.2-0.3,0.3-0.6,0.5-0.9c-0.2,0.3-0.3,0.6-0.5,0.9c-4.9,8.9-11.2,20.3-11.2,20.3c1.3-1.1,6.4-4.4,6.4-4.4c1.1-1,1.8,0.2,1.8,0.2
		c0.4,0.5,1.8,2.8,1.8,2.8l3.6-10.7c1.1-2.1,1.7-0.1,1.7-0.1c0.3,1.1,1.5,7.1,1.5,7.1l1.9-2c0.7-0.7,1.4,0,1.4,0l4.2,3.7l1.6-6.2
		c0.2-1.3,0.9-1.3,0.9-1.3l2.6,0.1l-3.5-9.4c-3.3-2.6-6.9-5-10.9-7.1c-0.7,1.3-1.5,2.8-2.5,4.5c0.9-1.7,1.8-3.2,2.5-4.5
		c-3.8-2-7.9-3.8-12.2-5.3l-9.4,1.9L133.9,23.3z"/>
	<path fill="#344358" d="M70.5,46.1c0.6-0.1,3.2-0.6,3.2-0.6l-8.4-7.5c-1.5-1.8,0.5-1.6,0.5-1.6c1.1,0.1,7.1,1.4,7.1,1.4l-1.1-2.5
		c-0.4-0.9,0.5-1.3,0.5-1.3l5.1-2.4l-5.1-3.9c-1.1-0.7-0.8-1.3-0.8-1.3l1.1-2.3l-9.2-0.4c-4.2,2.1-8.1,4.6-11.6,7.2
		c-3.7,2.9-7,6-9.7,9.4l-1.9,9.2l2.5-0.5c0,0,0.7-0.1,1.1,1.1l2.6,5.9l3.6-4.4c0,0,0.6-0.8,1.4-0.2l2.2,1.7c0,0,0.2-6.2,0.3-7.3
		c0,0,0.3-2,1.7-0.1l5.3,9.9c0,0,1.1-2.4,1.3-3c0,0,0.5-1.2,1.8-0.5c0,0,5.6,2.5,7,3.3l0,0c-0.5-1.6-1.6-7.6-1.6-7.6
		C69.2,46.3,70.5,46.1,70.5,46.1z"/>
	<g>
		<path fill="#DB5327" d="M132.6,63.2l2.2-8.6l-7.6,1.7c0,0-1.3,0.4-1.7-0.9l-1-3.7c0,0-5.5,6.5-6.5,7.6c0,0-2.1,1.9-2-1.3l2.8-15.3
			c0,0-3.2,1.7-4,2.1c0,0-1.6,0.9-2.3-1c0,0-3.9-7.4-4.8-9.7l0,0c-0.9,2.2-4.8,9.6-4.8,9.6c-0.7,1.9-2.3,1-2.3,1
			c-0.8-0.4-4-2.2-4-2.2L99.2,58c0.1,3.2-2,1.3-2,1.3c-1.1-1.1-6.5-7.6-6.5-7.6l-1,3.7c-0.4,1.4-1.7,0.9-1.7,0.9l-7.6-1.7l2.2,8.6
			c0.6,1.7-0.3,2.2-0.3,2.2l-3.2,1.6L92.2,78c1.7,1.2,1.3,2.4,1.3,2.4l-1.3,4.1l14.1-1.8l-0.2,0.1c0,0,1,0.1,1,0.8l-0.5,15.2h0.9
			l0,0l1.1,0l-0.5-15.2c0-0.7,1-0.8,1-0.8l-0.2-0.1l14.1,1.8l-1.3-4.1c0,0-0.4-1.1,1.3-2.4l13.1-11.1l-3.2-1.6
			C132.9,65.4,132,64.9,132.6,63.2z"/>
		<path fill="#058998" d="M168.5,75.2c0,0-0.4-0.5,0.1-1.5l4.3-8.6l-2-0.1c0,0-0.6,0-0.6-1l-0.8-4.9l-3.5,2.6c0,0-0.6,0.5-1.1-0.1
			l-1.3-1.7c0,0-1.4,4.6-1.7,5.4c0,0-0.6,1.4-1.3-0.2l-2-8.5c0,0-1.3,1.6-1.6,2c0,0-0.6,0.8-1.4,0c0,0-3.7-3-4.6-3.9
			c0,0,4.3,9.9,7.4,17.3c-3.2-7.3-7.4-17.3-7.4-17.3c0,1.3-0.3,6-0.3,6c0,1.2-1,1-1,1c-0.5,0-2.5-0.2-2.5-0.2l4.8,7.3
			c0.8,1.6-0.7,1.1-0.7,1.1c-0.8-0.3-5.1-2.5-5.1-2.5l0.3,2.1c0.1,0.8-0.7,0.9-0.7,0.9l-4.3,0.8l3,3.9c0.7,0.7,0.3,1.2,0.3,1.2
			l-1.3,1.5l9.2,2.8c1.1,0.3,1.2,0.9,1.2,0.9l0.2,2.4l6.9-4.1l-0.1,0.1c0,0,0.5-0.1,0.7,0.2l3.1,7.9l0.5-0.2v0l0.6-0.2l-3.6-7.7
			c-0.1-0.3,0.3-0.6,0.3-0.6l-0.1,0l7.7-2.2L168.5,75.2z"/>
	</g>
	<path fill="#058998" d="M104.4,13.7c-4.3,0.1-8.4,0.5-12.5,1.1c3,0.9,10,3.1,15.8,4.9c0.2,0.1,0.5,0.1,0.7,0.2
		c-0.2-0.1-0.5-0.2-0.7-0.2c-5.8-1.8-12.8-4-15.8-4.9c-0.3,0-0.5,0.1-0.8,0.1c1.4,1.2,3.7,3.6,3.7,3.6C95.8,19.3,95,20,95,20
		c-0.4,0.4-1.8,1.8-1.8,1.8l8.7,1.1c1.7,0.5,0.4,1.3,0.4,1.3c-0.8,0.4-5.2,2.2-5.2,2.2l1.8,1.1c0.7,0.4,0.2,1.1,0.2,1.1l-2.2,3.8
		l5,0.3c1,0,1.1,0.5,1.1,0.5l0.3,2l8.1-5.2c0.9-0.7,1.5-0.3,1.5-0.3l2,1.4l1.4-7.9l0-0.7l0,0l0,0c-0.6-0.2-2.9-0.9-5.9-1.8
		c-0.2-0.1-0.4-0.1-0.6-0.2c0.2,0.1,0.4,0.1,0.6,0.2c2.9,0.9,5.2,1.6,5.9,1.8l0,0l0,0l0,0l0.4-0.6l3.3-7.3l-2.4,0c0,0-0.4,0-0.7-0.5
		"/>
	<path fill="#058998" d="M125.1,25.1L125.1,25.1L125.1,25.1l0.2-0.5l-8.2-2.3c-0.3-0.1-0.3-0.7-0.3-0.7l-0.1,0.1l-0.3,0.6
		L125.1,25.1z"/>
	<rect x="116.3" y="22.4" fill="#058998" width="0" height="0"/>
	<polygon fill="#058998" points="116.4,22.4 116.7,21.8 116.3,22.4 	"/>
	<polygon fill="#058998" points="116.3,22.4 116.3,22.4 116.3,22.4 	"/>
	<polygon fill="#058998" points="116.3,22.4 116.3,22.4 116.3,22.4 116.3,22.4 	"/>
	<path fill="#058998" d="M116.3,23.1v0.1c0,0,0.2-0.5,0.6-0.4l8,2.8l0.2-0.5l-8.7-2.7L116.3,23.1z"/>
	<polygon fill="#058998" points="116.3,22.4 116.3,22.4 116.3,22.4 	"/>
	<polygon fill="#058998" points="116.3,22.4 116.3,23.1 116.4,22.5 	"/>
	<path fill="#058998" d="M116.4,22.4L116.4,22.4c-0.1,0-0.1,0-0.1,0v0C116.3,22.4,116.4,22.4,116.4,22.4L116.4,22.4l8.6,2.8l0-0.1
		L116.4,22.4z"/>
	<path fill="#058998" d="M116.4,22.4c0,0-0.1,0-0.1,0v0H116.4L116.4,22.4z"/>
	<path fill="#058998" d="M116.4,22.4L116.4,22.4L116.4,22.4l-0.1,0v0C116.3,22.4,116.4,22.4,116.4,22.4z"/>
	<g>
		<path fill="#DB5327" d="M47.3,81.2l3.4-3.6l-4.2-1.2c0,0-0.8-0.2-0.6-0.9l0.5-2.1c0,0-4.5,1.7-5.3,1.9c0,0-1.5,0.4-0.6-1.2
			l5.6-6.7c0,0-2.1,0-2.6-0.1c0,0-1,0-0.9-1.1c0,0,0.1-4.7,0.3-6c0,0-4.8,8.6-8.7,15.4c1.1,3.5,2.6,6.9,4.7,10.2l8.9-1.8l-1.1-1.7
			C46.9,82.3,46.6,81.8,47.3,81.2z"/>
		<path fill="#DB5327" d="M38.1,63.5c-0.9,0.7-1.4-0.2-1.4-0.2c-0.3-0.4-1.4-2.2-1.4-2.2L33,67.8l1.4,7.7c3.8-6.8,8.7-15.4,8.7-15.4
			C42,61,38.1,63.5,38.1,63.5z"/>
	</g>
	<path fill="#F4C01A" d="M70.3,70.9c0,0-0.3-0.3,0-1l1.9-5.9l-1.3,0.1c0,0-0.4,0-0.5-0.6l-0.9-3l-2,2c0,0-0.3,0.4-0.7,0l-1-0.9
		c0,0-0.5,3-0.6,3.6c0,0-0.3,1-0.8,0l-2-5.2c0,0-0.7,1.1-0.8,1.4c0,0-0.3,0.6-0.9,0.1c0,0-2.6-1.5-3.3-2.1c0,0,3,4.9,5.5,9
		c-2.5-4.2-5.5-9-5.5-9c0.2,0.8,0.3,3.9,0.3,3.9c0.1,0.7-0.5,0.7-0.5,0.7c-0.3,0-1.6,0.1-1.6,0.1l3.7,4.2c0.6,1-0.4,0.8-0.4,0.8
		c-0.5-0.1-3.4-1.1-3.4-1.1l0.4,1.3c0.1,0.5-0.3,0.6-0.3,0.6l-2.7,0.9l2.3,2.2c0.5,0.4,0.3,0.7,0.3,0.7l-0.7,1.1l6.1,1
		c0.7,0.1,0.8,0.5,0.8,0.5l0.4,1.5l4-3.2l-0.1,0.1c0,0,0.3-0.1,0.5,0.1l2.7,4.7l0.3-0.2l0.3-0.2l-3-4.6c-0.1-0.2,0.2-0.4,0.2-0.4
		l-0.1,0l4.7-2.1L70.3,70.9z"/>
	<path fill="#F4C01A" d="M93.6,42.4l1.7-2.7l-2.8-0.2c0,0-0.5,0-0.5-0.5l0.1-1.4c0,0-2.6,1.7-3.1,1.9c0,0-0.9,0.4-0.5-0.7l2.6-5
		c0,0-1.3,0.2-1.6,0.3c0,0-0.6,0.2-0.7-0.6c0,0-0.5-3-0.6-3.8v0c-0.5,0.7-2.7,2.8-2.7,2.8c-0.5,0.6-0.9,0.1-0.9,0.1
		c-0.2-0.2-1.1-1.2-1.1-1.2L82.7,37c-0.3,1.1-0.8,0.2-0.8,0.2c-0.3-0.5-1.4-3.3-1.4-3.3l-0.7,1.2c-0.3,0.4-0.7,0.1-0.7,0.1l-2.4-1.4
		L76.5,37c0,0.6-0.3,0.7-0.3,0.7l-1.3,0.2l3.3,5.2c0.4,0.6,0.2,0.9,0.2,0.9l-0.9,1.3l5,0.9l-0.1,0c0,0,0.3,0.2,0.3,0.4l-1.8,5.1
		l0.3,0.1l0.1,0l0,0l0.3,0.1l1.5-5.3c0.1-0.2,0.4-0.2,0.4-0.2l-0.1,0l4.6,2.1v-1.5c0,0,0-0.4,0.7-0.7l5.7-2.4l-0.9-0.9
		C93.5,43.1,93.2,42.9,93.6,42.4z"/>
	<path fill="#344358" d="M131.7,44.3l1.4-1.6l-1.8-0.4c0,0-0.3,0-0.3-0.4l0.2-0.9c0,0-1.9,0.9-2.2,1c0,0-0.6,0.2-0.3-0.5l2.2-3
		c0,0-0.9,0-1.1,0.1c0,0-0.4,0-0.4-0.5c0,0-0.1-2,0-2.6c0,0-1.7,3.7-3.2,6.7c1.4-3,3.2-6.7,3.2-6.7c-0.4,0.4-2,1.6-2,1.6
		c-0.4,0.3-0.6,0-0.6,0c-0.1-0.2-0.7-0.9-0.7-0.9l-1,3.6c-0.3,0.7-0.6,0.1-0.6,0.1c-0.1-0.3-0.6-2.3-0.6-2.3l-0.6,0.7
		c-0.2,0.3-0.5,0-0.5,0l-1.5-1.2l-0.4,2.1c0,0.4-0.3,0.4-0.3,0.4l-0.9,0l1.7,3.8c0.2,0.4,0,0.6,0,0.6l-0.7,0.8l3.3,1.1l-0.1,0
		c0,0,0.2,0.1,0.1,0.3l-1.7,3.2l0.2,0.1l0.2,0.1l1.5-3.3c0.1-0.1,0.3-0.1,0.3-0.1l0,0l2.9,1.9l0.1-1c0,0,0-0.3,0.5-0.4l4-1.1
		l-0.5-0.7C131.5,44.8,131.4,44.6,131.7,44.3z"/>
	<path fill="#DB5327" d="M114,115.1c0,0-0.3,0-0.3-0.4l0.2-0.9c0,0-1.9,0.9-2.2,1c0,0-0.6,0.2-0.3-0.5l2.2-3c0,0-0.9,0-1.1,0.1
		c0,0-0.4,0-0.4-0.5c0,0-0.1-2,0-2.6c0,0-2,4.2-3.5,7.3c1.5-3.1,3.5-7.3,3.5-7.3c-0.4,0.4-2,1.6-2,1.6c-0.4,0.3-0.6,0-0.6,0
		c-0.1-0.2-0.7-0.9-0.7-0.9l-1,3.6c-0.3,0.7-0.6,0.1-0.6,0.1c-0.1-0.3-0.6-2.3-0.6-2.3l-0.6,0.7c-0.2,0.3-0.5,0-0.5,0l-1.5-1.2
		l-0.4,2.1c0,0.4-0.3,0.4-0.3,0.4l-0.9,0l1.7,3.8c0.1,0.2,0.1,0.3,0.1,0.4c1.2,0,2.5,0.1,3.7,0.1c0,0,0,0,0.1,0
		c0.1-0.2,0.2-0.4,0.3-0.6c-0.1,0.2-0.2,0.4-0.3,0.6c2.4,0,4.7-0.1,7-0.2l0.8-0.9L114,115.1z"/>
	<path fill="#344358" d="M175.6,87.4c0.1-0.2,0.2-0.4,0.3-0.6C175.8,87,175.7,87.2,175.6,87.4z"/>
	<path fill="#344358" d="M179.6,79c0,0-2,4.2-3.5,7.3C177.6,83.2,179.6,79,179.6,79c-0.4,0.4-2,1.6-2,1.6c-0.4,0.3-0.6,0-0.6,0
		c-0.1-0.2-0.7-0.9-0.7-0.9l-1,3.6c-0.3,0.7-0.6,0.1-0.6,0.1c-0.1-0.3-0.6-2.3-0.6-2.3l-0.6,0.7c-0.2,0.3-0.5,0-0.5,0l-1.5-1.2
		l-0.4,2.1c0,0.4-0.3,0.4-0.3,0.4l-0.9,0l1.7,3.8c0.2,0.4,0,0.6,0,0.6l-0.7,0.8l3.2,1c0.4-0.6,0.9-1.1,1.3-1.7
		c0-0.1,0.1-0.2,0.1-0.2c0.1-0.2,0.2-0.4,0.3-0.6c-0.1,0.2-0.2,0.4-0.3,0.6c0,0.1-0.1,0.1-0.1,0.2c1.6-2.3,3-4.7,4.1-7.1
		C179.6,79.9,179.6,79.3,179.6,79z"/>
	<rect x="174.7" y="89.5" fill="#344358" width="0" height="0"/>
	<polygon fill="#344358" points="174.7,89.4 174.6,89.5 174.7,89.5 174.7,89.5 	"/>
	<polygon fill="#344358" points="174.7,89.5 174.7,89.5 174.7,89.5 	"/>
	<path fill="#DB5327" d="M86.6,19.3c0,0-0.2-0.2,0-0.6l0.9-3c-2.1,0.4-4.2,0.9-6.3,1.4c-0.7,0.2-1.4,0.4-2,0.6
		c-0.3,0.1-0.6,0.2-1,0.3c-0.4,0.1-0.9,0.3-1.3,0.4c0.1,0.3-0.2,0.4-0.2,0.4l-1.8,0.6l1.6,1.5c0.3,0.3,0.2,0.5,0.2,0.5L76.2,22
		l4.1,0.6c0.5,0,0.6,0.3,0.6,0.3l0.3,1l2.6-2.2l0,0c0,0,0.2-0.1,0.3,0l1.8,3.2l0.2-0.1l0.2-0.1l-2.1-3c-0.1-0.1,0.1-0.3,0.1-0.3
		l-0.1,0l3.1-1.4L86.6,19.3z"/>
	<path fill="#DB5327" d="M180.2,51.1L180.2,51.1c-0.6-1.6-1.4-3.1-2.3-4.6l-0.4,2.9c-0.3,1.1-0.8,0.2-0.8,0.2
		c-0.3-0.5-1.4-3.3-1.4-3.3l-0.7,1.2c-0.3,0.4-0.7,0.1-0.7,0.1l-2.4-1.4l-0.2,3.2c0,0.6-0.3,0.7-0.3,0.7l-1.3,0.2l3.3,5.2
		c0.4,0.6,0.2,0.9,0.2,0.9l-0.9,1.3l5,0.9c0.1,0.1,0.2,0.2,0.2,0.3l-1.8,5.1l0.3,0.1l0,0l0.4,0.1l1.5-5.3c0.1-0.2,0.3-0.2,0.4-0.2
		l0,0l4.6,2.1C182.4,57.6,181.5,54.3,180.2,51.1z"/>
	<path fill="#C9C364" d="M64.7,93.4L64.7,93.4c-1.5,2.7-3,5.6-4.5,8.3C61.7,99,63.2,96.1,64.7,93.4z"/>
	<path fill="#C9C364" d="M63,106.6c0,0.1,0,0.3-0.1,0.4C63,106.8,63,106.7,63,106.6L63,106.6z"/>
	<path fill="#C9C364" d="M53.1,100.4l-3.6-9.3l2.6,0.1c0,0,0.7,0,0.9-1.3l1.6-6.2l4.2,3.7c0,0,0.7,0.7,1.4,0l1.9-2
		c0,0,0.3,1.6,0.7,3.2c0.3,1.6,0.7,3.4,0.9,3.9c0,0,0.7,1.9,1.7-0.2l0.6-1.9c-0.9,4.6-2,10.6-3,16.1l0,0c1-5.6,2.1-11.5,3-16.1
		l2-6.1l0.9-2.7c0,0,1.5,2.2,1.8,2.8c0,0,0.7,1.1,1.8,0.2c0,0,5.1-3.4,6.4-4.5c0,0-3.1,5.7-6.6,12.1c-1.5,2.7-3,5.6-4.5,8.3
		c1.4-2.7,3-5.5,4.5-8.3c3.5-6.5,6.6-12.1,6.6-12.1c-0.2,1.7-0.3,7.8-0.3,7.8c-0.2,1.5,1.1,1.4,1.1,1.4c0.6,0,3.3,0,3.3,0l-7,8.8
		c-1.2,2,0.8,1.5,0.8,1.5c1.1-0.3,6.8-2.6,6.8-2.6L83,99.7c-0.2,1,0.8,1.2,0.8,1.2l5.4,1.5l-2.6,2.8l-1.7,1.9
		c-1,0.9-0.6,1.5-0.6,1.5l0.5,0.6l1,1.5l-8.1,1.7"/>
	<path fill="#058998" d="M86.5,105.3l2.6-2.8l-5.4-1.5c0,0-1-0.2-0.8-1.2l0.7-2.7c0,0-5.7,2.3-6.8,2.6c0,0-2,0.5-0.8-1.5l7-8.8
		c0,0-2.6,0-3.3,0c0,0-1.3,0-1.1-1.4c0,0,0.1-6.1,0.3-7.8l0,0c-1.3,1.1-6.4,4.5-6.4,4.5c-1.1,1-1.8-0.2-1.8-0.2
		c-0.4-0.5-1.8-2.8-1.8-2.8L68,84.4l-2,6.1c-0.8,4.4-0.8,4.4,0,0l-0.6,1.9c-1,2.1-1.7,0.2-1.7,0.2c-0.2-0.5-0.5-2.3-0.9-3.9
		c-0.3-1.7-0.7-3.2-0.7-3.2l-1.9,2c-0.7,0.7-1.4,0-1.4,0l-4.2-3.7l-1.6,6.2c-0.2,1.3-0.9,1.3-0.9,1.3l-2.6-0.1l3.6,9.3
		c1,0.8,2.1,1.5,3.2,2.2c0.2,4.4,1.5,9.4,5.3,14.2c0.2-1.2,0.2-1.2,0,0c1.9,2.4,4.4,4.8,7.6,7c0,0-3.9-8.1,0.1-14.4
		c2.6,1.1,5.4,2.1,8.2,2.9l8.1-1.7l-1-1.5l-0.5-0.6c0,0-0.4-0.6,0.6-1.5L86.5,105.3z"/>
	<path fill="#344358" d="M101.1,92.9l-0.1-2.1l-1.7,0.9c0,0-0.3,0.2-0.5-0.1l-0.5-0.8c0,0-0.8,1.9-1,2.2c0,0-0.4,0.6-0.5-0.2
		l-0.4-3.7c0,0-0.6,0.6-0.8,0.8c0,0-0.3,0.3-0.6-0.1c0,0-1.4-1.5-1.7-1.9c0,0,1.1,3.9,2,7.1c-0.9-3.2-2-7.1-2-7.1
		c-0.1,0.6-0.5,2.5-0.5,2.5c0,0.5-0.5,0.4-0.5,0.4c-0.2,0-1.1-0.2-1.1-0.2l1.6,3.4c0.2,0.7-0.4,0.4-0.4,0.4c-0.3-0.2-2-1.3-2-1.3
		l0,0.9c0,0.3-0.3,0.3-0.3,0.3l-1.9,0.1l1.1,1.8c0.2,0.3,0.1,0.5,0.1,0.5l-0.6,0.6l3.8,1.7c0.5,0.2,0.5,0.5,0.5,0.5l0,1l3.2-1.3
		l-0.1,0c0,0,0.2,0,0.3,0.1l0.9,3.5l0.2-0.1l0.2-0.1l-1.1-3.5c0-0.2,0.2-0.3,0.2-0.3l-0.1,0l3.4-0.5l-0.6-0.9c0,0-0.2-0.2,0.1-0.6
		l2.3-3.4l-0.9-0.2C101.3,93.4,101,93.4,101.1,92.9z"/>
</g>
</svg>
