<?xml version="1.0" encoding="utf-8"?>
<!-- Generator: Adobe Illustrator 18.0.0, SVG Export Plug-In . SVG Version: 6.00 Build 0)  -->
<!DOCTYPE svg PUBLIC "-//W3C//DTD SVG 1.1//EN" "http://www.w3.org/Graphics/SVG/1.1/DTD/svg11.dtd">
<svg version="1.1" id="Layer_1" xmlns="http://www.w3.org/2000/svg" xmlns:xlink="http://www.w3.org/1999/xlink" x="0px" y="0px"
	 viewBox="0 0 100 100" enable-background="new 0 0 100 100" xml:space="preserve">
<path fill="#FFFFFF" d="M50,8.5C73,8.5,91.5,27,91.5,50S73,91.5,50,91.5S8.5,73,8.5,50S27,8.5,50,8.5 M50,2.5C24,2.5,2.5,24,2.5,50
	S24,97.5,50,97.5S97.5,76,97.5,50S76,2.5,50,2.5L50,2.5z"/>
<g>
	<path fill="#FFFFFF" d="M50,37.7L29.6,58.1c-1,1-1,2.6,0,3.5c1,1,2.6,1,3.5,0L50,44.7l16.9,16.9c1,1,2.6,1,3.5,0c1-1,1-2.6,0-3.5
		L50,37.7z"/>
</g>
</svg>
