<?xml version="1.0" encoding="utf-8"?>
<!-- Generator: Adobe Illustrator 18.1.1, SVG Export Plug-In . SVG Version: 6.00 Build 0)  -->
<!DOCTYPE svg PUBLIC "-//W3C//DTD SVG 1.1//EN" "http://www.w3.org/Graphics/SVG/1.1/DTD/svg11.dtd">
<svg version="1.1" id="Layer_1" xmlns="http://www.w3.org/2000/svg" xmlns:xlink="http://www.w3.org/1999/xlink" x="0px" y="0px"
	 width="252px" height="144px" viewBox="0 0 252 144" enable-background="new 0 0 252 144" xml:space="preserve">
<path fill="#3C5A98" d="M629.7,483.6v-32.7c0-1.7,0.1-3.5,0.7-4.8c1.4-3.5,4.6-7.1,10.1-7.1c7.1,0,9.9,5.3,9.9,13.2v31.2H670V450
	c0-18-9.6-26.4-22.6-26.4c-10.4,0-15,5.6-17.6,9.6v0.1h-0.1l0.1-0.1v-8.4h-19.6c0.3,5.5,0,58.5,0,58.5h19.4V483.6z"/>
<path fill="#3C5A98" d="M589.4,417.2L589.4,417.2c6.9,0,11.2-4.5,11.2-10.1c-0.1-5.8-4.3-10.1-10.9-10.1c-6.8,0-11.1,4.3-11.1,10.1
	C578.6,412.6,582.8,417.2,589.4,417.2z"/>
<rect x="579.7" y="425.1" fill="#3C5A98" width="19.6" height="58.5"/>
<path fill="#FFFFFF" d="M126,3.6c-37.4,0-68.4,31-68.4,68.4s31,68.4,68.4,68.4s68.4-31,68.4-68.4S163.4,3.6,126,3.6z M163.4,46.4
	v4.9v0.6l-37,15.8c-0.4,0.1-0.9,0.1-1.2,0L88.7,52v-0.9v-4.9v-0.1h74.7V46.4z M88.8,57.3l34.6,14.8c0.7,0.3,1.6,0.4,2.4,0.4
	s1.7-0.1,2.4-0.4L163.4,57v42.9H88.8V57.3z"/>
</svg>
