<?xml version="1.0" encoding="utf-8"?>
<!-- Generator: Adobe Illustrator 18.1.1, SVG Export Plug-In . SVG Version: 6.00 Build 0)  -->
<!DOCTYPE svg PUBLIC "-//W3C//DTD SVG 1.1//EN" "http://www.w3.org/Graphics/SVG/1.1/DTD/svg11.dtd">
<svg version="1.1" id="Layer_1" xmlns="http://www.w3.org/2000/svg" xmlns:xlink="http://www.w3.org/1999/xlink" x="0px" y="0px"
	 width="136.8px" height="136.8px" viewBox="57.6 3.6 136.8 136.8" enable-background="new 57.6 3.6 136.8 136.8"
	 xml:space="preserve">
<path fill="#231F20" d="M126,12.2c33.1,0,59.8,26.6,59.8,59.8s-26.6,59.8-59.8,59.8S66.2,105.1,66.2,72S92.9,12.2,126,12.2 M126,3.6
	c-37.4,0-68.4,31-68.4,68.4s31,68.4,68.4,68.4s68.4-31,68.4-68.4S163.4,3.6,126,3.6L126,3.6z"/>
<path fill="#3C5A98" d="M629.7,483.6v-32.7c0-1.7,0.1-3.5,0.7-4.8c1.4-3.5,4.6-7.1,10.1-7.1c7.1,0,9.9,5.3,9.9,13.2v31.2H670V450
	c0-18-9.6-26.4-22.6-26.4c-10.4,0-15,5.6-17.6,9.6v0.1h-0.1l0.1-0.1v-8.4h-19.6c0.3,5.5,0,58.5,0,58.5h19.4L629.7,483.6L629.7,483.6
	z"/>
<path fill="#3C5A98" d="M589.4,417.2L589.4,417.2c6.9,0,11.2-4.5,11.2-10.1c-0.1-5.8-4.3-10.1-10.9-10.1c-6.8,0-11.1,4.3-11.1,10.1
	C578.6,412.6,582.8,417.2,589.4,417.2z"/>
<rect x="579.7" y="425.1" fill="#3C5A98" width="19.6" height="58.5"/>
<g>
	<path fill="#231F20" d="M164.7,51.3c-0.1,0-0.3,0-0.4,0h-0.9v0.6L164.7,51.3z"/>
	<path fill="#231F20" d="M87.3,51.1c-0.1,0-0.3,0-0.4,0l1.9,0.9v-0.9H87.3z"/>
	<path fill="#231F20" d="M125.9,72.6c-0.9,0-1.7-0.1-2.4-0.4L88.8,57.3v42.6h74.6V57l-35.1,15.1C127.6,72.4,126.7,72.6,125.9,72.6z"
		/>
	<path fill="#231F20" d="M88.7,46.1L88.7,46.1v5V52l36.6,15.7c0.3,0.1,0.7,0.1,1.2,0l37-15.8v-0.6v-4.9v-0.3H88.7z"/>
</g>
</svg>
