<?xml version="1.0" encoding="utf-8"?>
<!-- Generator: Adobe Illustrator 18.1.1, SVG Export Plug-In . SVG Version: 6.00 Build 0)  -->
<!DOCTYPE svg PUBLIC "-//W3C//DTD SVG 1.1//EN" "http://www.w3.org/Graphics/SVG/1.1/DTD/svg11.dtd">
<svg version="1.1" id="Layer_1" xmlns="http://www.w3.org/2000/svg" xmlns:xlink="http://www.w3.org/1999/xlink" x="0px" y="0px"
	 width="136.8px" height="136.8px" viewBox="57.6 3.6 136.8 136.8" enable-background="new 57.6 3.6 136.8 136.8"
	 xml:space="preserve">
<path fill="#231F20" d="M126,12.2c33.1,0,59.8,26.6,59.8,59.8s-26.6,59.8-59.8,59.8S66.2,105.1,66.2,72S92.9,12.2,126,12.2 M126,3.6
	c-37.4,0-68.4,31-68.4,68.4s31,68.4,68.4,68.4s68.4-31,68.4-68.4S163.4,3.6,126,3.6L126,3.6z"/>
<g>
	<path fill="#231F20" d="M150.2,75.6V57.5H132v-7.2c0-2.9,1.9-4.9,3.5-4.9h14.7v-18h-14.7c-11.2,0-20.3,10.9-20.3,23.2v7.1H102v18.1
		h13.2v40.9H132v-41L150.2,75.6L150.2,75.6z"/>
</g>
</svg>
