<?xml version="1.0" encoding="utf-8"?>
<!-- Generator: Adobe Illustrator 22.1.0, SVG Export Plug-In . SVG Version: 6.00 Build 0)  -->
<svg version="1.1" id="Layer_1" xmlns="http://www.w3.org/2000/svg" xmlns:xlink="http://www.w3.org/1999/xlink" x="0px" y="0px"
	 viewBox="0 0 88.6 48.9" style="enable-background:new 0 0 88.6 48.9;" xml:space="preserve">
<style type="text/css">
	.st0{clip-path:url(#SVGID_2_);fill:#C6B4B5;}
</style>
<g>
	<defs>
		<rect id="SVGID_1_" width="88.6" height="48.9"/>
	</defs>
	<clipPath id="SVGID_2_">
		<use xlink:href="#SVGID_1_"  style="overflow:visible;"/>
	</clipPath>
	<path class="st0" d="M84.2,36.5c0,2.3-1.5,4.2-4,4.2c-2.4,0-4.1-2-4.1-4.3v-0.1c0-2.3,1.5-4.2,4-4.2C82.6,32.2,84.2,34.2,84.2,36.5
		L84.2,36.5z M88.6,36.5L88.6,36.5c0-4.5-3.6-8.1-8.3-8.1c-4.8,0-8.4,3.6-8.4,8.1v0.1c0,4.4,3.6,8,8.3,8
		C85,44.5,88.6,40.9,88.6,36.5 M68.8,43.9V28.7h-4.4v14.9c0,1.3-0.6,1.8-1.6,1.8c-0.3,0-0.6,0-0.9-0.1v3.4c0.6,0.1,1.1,0.2,1.9,0.2
		C67.1,48.9,68.8,47.3,68.8,43.9 M68.9,23.1h-4.6V27h4.6V23.1z M60.4,44.2V28.7H56v8.6c0,2.1-1.1,3.1-2.7,3.1s-2.7-1.1-2.7-3.1v-8.6
		h-4.4v10c0,3.6,1.9,5.7,5.3,5.7c2.2,0,3.5-1.2,4.5-2.5v2.2H60.4z M38.5,38.7c0,1.6-1.4,2.7-3.4,2.7c-1.4,0-2.4-0.7-2.4-1.9v-0.1
		c0-1.4,1.2-2.1,3-2.1c1.1,0,2,0.2,2.8,0.6V38.7z M42.6,44.2v-9c0-4.2-2.1-6.7-6.9-6.7c-2.6,0-4.3,0.5-6,1.2l1.1,3.3
		c1.4-0.5,2.6-0.8,4.3-0.8c2.2,0,3.3,1,3.3,2.8v0.3c-1.1-0.4-2.2-0.6-3.8-0.6c-3.7,0-6.2,1.6-6.2,4.9v0.1c0,3.1,2.4,4.7,5.3,4.7
		c2.1,0,3.6-0.8,4.7-2v1.7H42.6z M27.3,33v-4.6c-2.6-0.1-4,1.3-4.9,3.4v-3.1H18v15.5h4.4v-5.7c0-3.7,1.8-5.5,4.7-5.5H27.3z
		 M10.1,38.7c0,1.6-1.4,2.7-3.4,2.7c-1.4,0-2.4-0.7-2.4-1.9v-0.1c0-1.4,1.2-2.1,3-2.1c1.1,0,2,0.2,2.8,0.6V38.7z M14.2,44.2v-9
		c0-4.2-2.1-6.7-6.9-6.7c-2.6,0-4.3,0.5-6,1.2l1.1,3.3c1.4-0.5,2.6-0.8,4.3-0.8c2.2,0,3.3,1,3.3,2.8v0.3c-1.1-0.4-2.2-0.6-3.8-0.6
		c-3.7,0-6.2,1.6-6.2,4.9v0.1c0,3.1,2.4,4.7,5.3,4.7c2.1,0,3.6-0.8,4.7-2v1.7H14.2z"/>
	<path class="st0" d="M75.8,15.6c0,1.6-1.4,2.7-3.4,2.7c-1.4,0-2.4-0.7-2.4-1.9v-0.1c0-1.4,1.2-2.1,3-2.1c1.1,0,2,0.2,2.8,0.6V15.6z
		 M80,21.1v-9c0-4.2-2.1-6.7-6.9-6.7c-2.6,0-4.3,0.5-6,1.2l1.1,3.3c1.4-0.5,2.6-0.8,4.3-0.8c2.2,0,3.3,1,3.3,2.8v0.3
		c-1.1-0.4-2.2-0.6-3.8-0.6c-3.7,0-6.2,1.6-6.2,4.9v0.1c0,3.1,2.4,4.7,5.3,4.7c2.1,0,3.6-0.8,4.7-2v1.7H80z M62.8,0h-4.4v21.1h4.4V0
		z M56.1,5.6h-4.6l-3.4,10.5L44.6,5.6H40L46,21.1c-0.4,0.8-0.8,1-1.5,1c-0.6,0-1.3-0.3-1.9-0.6l-1.5,3.2c1.1,0.7,2.3,1.1,3.9,1.1
		c2.6,0,3.9-1.2,5.1-4.3L56.1,5.6z M34.3,15.6c0,1.6-1.4,2.7-3.4,2.7c-1.4,0-2.4-0.7-2.4-1.9v-0.1c0-1.4,1.2-2.1,3-2.1
		c1.1,0,2,0.2,2.8,0.6V15.6z M38.5,21.1v-9c0-4.2-2.1-6.7-6.9-6.7c-2.6,0-4.3,0.5-6,1.2l1.1,3.3c1.4-0.5,2.6-0.8,4.3-0.8
		c2.2,0,3.3,1,3.3,2.8v0.3c-1.1-0.4-2.2-0.6-3.8-0.6c-3.7,0-6.2,1.6-6.2,4.9v0.1c0,3.1,2.4,4.7,5.3,4.7c2.1,0,3.6-0.8,4.7-2v1.7
		H38.5z M23.5,21.1l-6.1-9.4l5.9-6.1h-5.3L13,11.2V0H8.6v21.1H13v-4.7l1.5-1.6l4,6.3H23.5z"/>
</g>
</svg>
