<?xml version="1.0" encoding="utf-8"?>
<!-- Generator: Adobe Illustrator 22.1.0, SVG Export Plug-In . SVG Version: 6.00 Build 0)  -->
<svg version="1.1" id="Layer_1" xmlns="http://www.w3.org/2000/svg" xmlns:xlink="http://www.w3.org/1999/xlink" x="0px" y="0px"
	 viewBox="0 0 88.6 48.9" style="enable-background:new 0 0 88.6 48.9;" xml:space="preserve">
<style type="text/css">
	.st0{fill:#E7DFDF;}
</style>
<path class="st0" d="M78.3,34.7c0,1.9-1.3,3.6-3.4,3.6c-2.1,0-3.5-1.7-3.5-3.6v0c0-1.9,1.3-3.6,3.4-3.6C76.9,31,78.3,32.7,78.3,34.7
	L78.3,34.7z M82,34.7L82,34.7c0-3.8-3-6.9-7.1-6.9c-4.1,0-7.1,3.1-7.1,6.9v0c0,3.8,3,6.8,7.1,6.8C78.9,41.5,82,38.4,82,34.7
	 M65.1,41V28.1h-3.7v12.7c0,1.1-0.5,1.5-1.3,1.5c-0.3,0-0.5,0-0.8-0.1v2.9c0.5,0.1,0.9,0.1,1.6,0.1C63.7,45.2,65.1,43.9,65.1,41
	 M65.2,23.3h-3.9v3.3h3.9V23.3z M58,41.2V28.1h-3.7v7.3c0,1.8-0.9,2.7-2.3,2.7c-1.4,0-2.3-0.9-2.3-2.7v-7.3h-3.7v8.5
	c0,3,1.6,4.9,4.5,4.9c1.9,0,3-1,3.9-2.1v1.9H58z M39.4,36.6c0,1.4-1.2,2.3-2.9,2.3c-1.2,0-2-0.6-2-1.6v0c0-1.2,1-1.8,2.6-1.8
	c0.9,0,1.7,0.2,2.4,0.5V36.6z M42.9,41.2v-7.6c0-3.6-1.8-5.7-5.9-5.7c-2.2,0-3.7,0.4-5.1,1.1l0.9,2.8c1.2-0.4,2.2-0.7,3.6-0.7
	c1.9,0,2.8,0.9,2.8,2.4v0.2c-0.9-0.3-1.9-0.5-3.2-0.5c-3.1,0-5.3,1.3-5.3,4.2v0c0,2.6,2,4,4.5,4c1.8,0,3.1-0.7,4-1.7v1.4H42.9z
	 M29.8,31.7v-3.9c-2.2-0.1-3.4,1.1-4.2,2.9v-2.7h-3.7v13.2h3.7v-4.9c0-3.1,1.5-4.6,4-4.6H29.8z M15.2,36.6c0,1.4-1.2,2.3-2.9,2.3
	c-1.2,0-2-0.6-2-1.6v0c0-1.2,1-1.8,2.6-1.8c0.9,0,1.7,0.2,2.4,0.5V36.6z M18.7,41.2v-7.6c0-3.6-1.8-5.7-5.9-5.7
	c-2.2,0-3.7,0.4-5.1,1.1l0.9,2.8c1.2-0.4,2.2-0.7,3.6-0.7c1.9,0,2.8,0.9,2.8,2.4v0.2c-0.9-0.3-1.9-0.5-3.2-0.5
	c-3.1,0-5.3,1.3-5.3,4.2v0c0,2.6,2,4,4.5,4c1.8,0,3.1-0.7,4-1.7v1.4H18.7z"/>
<path class="st0" d="M71.1,16.9c0,1.4-1.2,2.3-2.9,2.3c-1.2,0-2-0.6-2-1.6v0c0-1.2,1-1.8,2.6-1.8c0.9,0,1.7,0.2,2.4,0.5V16.9z
	 M74.7,21.6v-7.6c0-3.6-1.8-5.7-5.9-5.7c-2.2,0-3.7,0.4-5.1,1.1l0.9,2.8c1.2-0.4,2.2-0.7,3.6-0.7c1.9,0,2.8,0.9,2.8,2.4v0.2
	c-0.9-0.3-1.9-0.5-3.2-0.5c-3.1,0-5.3,1.3-5.3,4.2v0c0,2.6,2,4,4.5,4c1.8,0,3.1-0.7,4-1.7v1.4H74.7z M60,3.6h-3.7v17.9H60V3.6z
	 M54.3,8.4h-3.9l-2.9,9l-3-9h-4l5.2,13.2c-0.3,0.7-0.7,0.9-1.3,0.9c-0.5,0-1.1-0.2-1.6-0.5l-1.3,2.7c1,0.6,2,0.9,3.3,0.9
	c2.2,0,3.3-1,4.3-3.7L54.3,8.4z M35.8,16.9c0,1.4-1.2,2.3-2.9,2.3c-1.2,0-2-0.6-2-1.6v0c0-1.2,1-1.8,2.6-1.8c0.9,0,1.7,0.2,2.4,0.5
	V16.9z M39.4,21.6v-7.6c0-3.6-1.8-5.7-5.9-5.7c-2.2,0-3.7,0.4-5.1,1.1l0.9,2.8c1.2-0.4,2.2-0.7,3.6-0.7c1.9,0,2.8,0.9,2.8,2.4v0.2
	c-0.9-0.3-1.9-0.5-3.2-0.5c-3.1,0-5.3,1.3-5.3,4.2v0c0,2.6,2,4,4.5,4c1.8,0,3.1-0.7,4-1.7v1.4H39.4z M26.6,21.6l-5.2-8l5-5.2H22
	l-4.4,4.8V3.6h-3.7v17.9h3.7v-4l1.3-1.4l3.4,5.4H26.6z"/>
</svg>
