<?xml version="1.0" encoding="utf-8"?>
<!-- Generator: Adobe Illustrator 18.1.1, SVG Export Plug-In . SVG Version: 6.00 Build 0)  -->
<!DOCTYPE svg PUBLIC "-//W3C//DTD SVG 1.1//EN" "http://www.w3.org/Graphics/SVG/1.1/DTD/svg11.dtd">
<svg version="1.1" id="Layer_1" xmlns="http://www.w3.org/2000/svg" xmlns:xlink="http://www.w3.org/1999/xlink" x="0px" y="0px"
	 width="136.8px" height="136.8px" viewBox="57.6 3.6 136.8 136.8" enable-background="new 57.6 3.6 136.8 136.8"
	 xml:space="preserve">
<path fill="#231F20" d="M126,12.2c33.1,0,59.8,26.6,59.8,59.8s-26.6,59.8-59.8,59.8S66.2,105.1,66.2,72S92.9,12.2,126,12.2 M126,3.6
	c-37.4,0-68.4,31-68.4,68.4s31,68.4,68.4,68.4s68.4-31,68.4-68.4S163.4,3.6,126,3.6L126,3.6z"/>
<path fill="#3C5A98" d="M629.7,483.6v-32.7c0-1.7,0.1-3.5,0.7-4.8c1.4-3.5,4.6-7.1,10.1-7.1c7.1,0,9.9,5.3,9.9,13.2v31.2H670V450
	c0-18-9.6-26.4-22.6-26.4c-10.4,0-15,5.6-17.6,9.6v0.1h-0.1l0.1-0.1v-8.4h-19.6c0.3,5.5,0,58.5,0,58.5h19.4L629.7,483.6L629.7,483.6
	z"/>
<path fill="#3C5A98" d="M589.4,417.2L589.4,417.2c6.9,0,11.2-4.5,11.2-10.1c-0.1-5.8-4.3-10.1-10.9-10.1c-6.8,0-11.1,4.3-11.1,10.1
	C578.6,412.6,582.8,417.2,589.4,417.2z"/>
<rect x="579.7" y="425.1" fill="#3C5A98" width="19.6" height="58.5"/>
<path fill="#231F20" d="M130.5,107.1V80.6c0-1.4,0.1-2.9,0.6-3.9c1.2-2.9,3.7-5.8,8.2-5.8c5.8,0,8.1,4.3,8.1,10.8V107h15.8V79.9
	c0-14.5-7.8-21.3-18.3-21.3c-8.5,0-12.2,4.6-14.3,7.9v0.1h-0.3c0,0,0-0.1,0.1-0.1v-6.8h-15.8c0.1,4.5,0,47.5,0,47.5L130.5,107.1
	L130.5,107.1L130.5,107.1z"/>
<path fill="#231F20" d="M97.8,53.3L97.8,53.3c5.6,0,9.1-3.6,9.1-8.2c-0.1-4.6-3.5-8.2-8.9-8.2c-5.5,0-8.9,3.6-8.9,8.2
	C89,49.5,92.4,53.3,97.8,53.3z"/>
<rect x="89.9" y="59.8" fill="#231F20" width="15.8" height="47.5"/>
</svg>
