<?xml version="1.0" encoding="utf-8"?>
<!-- Generator: Adobe Illustrator 18.1.1, SVG Export Plug-In . SVG Version: 6.00 Build 0)  -->
<!DOCTYPE svg PUBLIC "-//W3C//DTD SVG 1.1//EN" "http://www.w3.org/Graphics/SVG/1.1/DTD/svg11.dtd">
<svg version="1.1" id="Layer_1" xmlns="http://www.w3.org/2000/svg" xmlns:xlink="http://www.w3.org/1999/xlink" x="0px" y="0px"
	 width="252px" height="144px" viewBox="0 0 252 144" enable-background="new 0 0 252 144" xml:space="preserve">
<path fill="#3C5A98" d="M629.7,483.6v-32.7c0-1.7,0.1-3.5,0.7-4.8c1.4-3.5,4.6-7.1,10.1-7.1c7.1,0,9.9,5.3,9.9,13.2v31.2H670V450
	c0-18-9.6-26.4-22.6-26.4c-10.4,0-15,5.6-17.6,9.6v0.1h-0.1l0.1-0.1v-8.4h-19.6c0.3,5.5,0,58.5,0,58.5h19.4V483.6z"/>
<path fill="#3C5A98" d="M589.4,417.2L589.4,417.2c6.9,0,11.2-4.5,11.2-10.1c-0.1-5.8-4.3-10.1-10.9-10.1c-6.8,0-11.1,4.3-11.1,10.1
	C578.6,412.6,582.8,417.2,589.4,417.2z"/>
<rect x="579.7" y="425.1" fill="#3C5A98" width="19.6" height="58.5"/>
<path fill="#FFFFFF" d="M126,3.6c-37.4,0-68.4,31-68.4,68.4s31,68.4,68.4,68.4s68.4-31,68.4-68.4S163.4,3.6,126,3.6z M163.2,107.1
	h-15.8V81.8c0-6.5-2.3-10.8-8.1-10.8c-4.5,0-7.1,2.9-8.2,5.8c-0.4,1-0.6,2.4-0.6,3.9v26.5v0.1h-15.8c0,0,0.1-43.1,0-47.5h15.8v6.8
	c-0.1,0-0.1,0.1-0.1,0.1h0.3v-0.1c2-3.3,5.8-7.9,14.3-7.9c10.5,0,18.3,6.8,18.3,21.3V107.1z M97.9,36.9c5.5,0,8.8,3.6,8.9,8.2
	c0,4.6-3.5,8.2-9.1,8.2c-5.3,0-8.8-3.7-8.8-8.2C89,40.5,92.4,36.9,97.9,36.9z M105.7,59.8v47.5H89.9V59.8H105.7z"/>
</svg>
