<?xml version="1.0" encoding="utf-8"?>
<!-- Generator: Adobe Illustrator 19.1.0, SVG Export Plug-In . SVG Version: 6.00 Build 0)  -->
<!DOCTYPE svg PUBLIC "-//W3C//DTD SVG 1.1//EN" "http://www.w3.org/Graphics/SVG/1.1/DTD/svg11.dtd">
<svg version="1.1" id="Layer_1" xmlns="http://www.w3.org/2000/svg" xmlns:xlink="http://www.w3.org/1999/xlink" x="0px" y="0px"
	 width="113.6px" height="81.8px" viewBox="0 0 113.6 81.8" enable-background="new 0 0 113.6 81.8" xml:space="preserve">
<rect x="-100.8" y="-166.4" fill="#06192F" width="252" height="144"/>
<g>
	<path d="M-1338.2-535.1c1.7,0.5,3.4,0.9,4.9,1.7c0.6,0.3,2.2,3.4-1.2,3.9C-1337.5-529-1339.1-531.4-1338.2-535.1z"/>
	<path fill="#FFFFFF" d="M-1341.1-494.6c1-2.6,1.8-4.5,2.6-6.6C-1336.8-498.3-1337.2-497.4-1341.1-494.6z"/>
</g>
<path d="M-1418.5-549.3c-2.7,3.2,0.2,16-7.3,14.9c-2.4-0.3-3.9-1.3-3.5-4.1c0.4-2.3,0.4-4.7,0.5-7c0.5-7.5,0.8-15,1.5-22.5
	c0.4-4.1,1.2-8.3,2-12.4c0.5-2.5,3.5-2,6.1,0c3.5,2.8,2.6,10.5,2.6,15.6c3.1-3.4,7.4-10.1,9.9-12.8c1-1.1,1.9-2.2,3.1-2.9
	c1-0.6,2.7-1.2,3.4-0.8c1.2,0.8,2.8,2.5,2.7,3.6c-0.4,2.8-2.4,3.4-4,5.6c-3,3.9-6.5,8.6-9.1,13.3c-1.1,2.1-2,3.6-0.7,5.8
	c6.1,10.3,17.2,25.1,17.7,27.2c0.4,1.9-1.1,2.3-3.2,1.9c-5-0.8-7-4.2-10.3-8.1C-1409.5-535-1416.1-546.1-1418.5-549.3z"/>
<path fill="none" d="M-1338.4-501.1c-0.8,2.1-1.6,4-2.6,6.6C-1337.2-497.4-1336.8-498.3-1338.4-501.1z"/>
<path d="M-1295.6-512.6c0.4-0.5-0.2-2.1-1.6-1.6c-1.8,0.8-7.6,1.1-9.9,0.6c-0.1-0.5-0.2-0.8-0.4-1.7c-0.9-3.9-6.4-4.2-7.8-1.4
	c-2,4,6,5.7,6,5.7c0.8,6.2,1.1,19.4-8.2,15.7c-7.9-3.1-0.7-17.9-0.6-20.2c0-0.9-1.1-2.3-2.1-2.7c-0.8-0.3-2.7,0.1-3.1,0.8
	c-1.7,2.7-3.5,5.3-4.8,8.1c-0.9,0.9-1.9,1.9-3,2.9c0-4.6-0.2-9.2-0.5-13.7c-0.2-2.6-0.1-2.2-1.7-4.5c-0.4-0.6-2.6-1.9-3.3-1.6
	c-0.6,0.3-1,1.6-1.1,2.4c-0.6,9.2-0.5,9.6-1.3,23.2c-0.6,2.3-2.4,5.2-4.6,4.9c-4-0.6-0.6-19.4-1.8-22.7c-0.8-2.1-1.7-3.6-4.3-3.1
	c-2.5,0.5-2.3,2.4-2.5,4.4c-0.5,4.7-1.4,16-2.9,15.9c-2.2-0.2-3.5-7.7-4-11.4c-0.5-4.2-1.9-8.6-6-9.5c-1.8-0.4-3.4-0.4-3.5,2.1
	c-0.2,5,1.7,14.1,1.1,19c-0.4,3.6-5,8-5.4,7.9c-0.7-0.1,0-16.2-0.1-21.9c0-1-0.5-2.6-1.3-3c-2.7-1.5-5.3,0.1-6.4,3.1
	c-1.6,4.7-7.1,14.1-9,13.5c0.4-2.7,3.7-16.9,13.1-20.8c0.5-0.2,0.4-1-0.1-1.1c-3.6-0.8-5.8,0.3-8.3,2.1
	c-7.5,5.4-10.7,14.7-10.6,25.2c0,0-1,3.4-4.8,6.2c-2-6.8-4.5-12.9-3.7-19.6c0.3-2.2,1.7-5.2,0.7-6.5c-1-1.3-5.8-1.3-8.5-1.9
	c0,0,0,0,0,0c0.5-1.4,1-2.5,1.4-3.8c0.8-3.1-2-5.3-4.7-3.8c-1.8,1-3.2,3.4-3.8,5.6c-0.5,1.9,0.6,3.9,2.7,4.8
	c0.3,0.1,0.6,0.2,0.9,0.3c-2.4,4.6-6.4,12.4-6.6,12.4c-1-7.8-1.9-15.6-3-23.4c-0.2-1.3-0.3-2.7-0.8-3.9c-2-5.6-11.1-8.5-14.1-4.1
	c-4.2,6-4.6,12.4-5.9,20.4c-1.2,7-1.1,13.7-1,20.8c0,1.4,0.6,3.8,1.3,3.9c1.9,0.3,3.3,0.5,4.9-0.3c3.2-1.7,3.1-5,3.1-8.2
	c0-1.5-0.9-3.7,2.2-3.8c5.9-0.3,6.2-0.2,7,3.1c1.3,5.4,5.6,20.2,10.2,17.2c2.9-1.9-2.1-16.7-2.1-17.9c-0.1-2.5,4.3-10.1,6.8-15.4
	c1.2,0.5,2.1,1.2,2,2.1c-0.8,7.9-0.5,12.6,1.1,18.2c1,3.8,2.8,8.1,6.9,8c4.2-0.1,10.4-9.2,10.4-9.2c1.4,0.5,2.8,1,4.5,0.9
	c3.8-0.3,7.4-4.7,8.3-5.6c0.4,3,0.5,5.5,1,7.9c0.4,2.2,1.5,3.9,4.1,4.2c2.4,0.2,8-6.9,9.3-11.6c2.7,4.7,10.5,8.1,17.3,2.5
	c0.7,2.8,1.4,4.1,3.5,4.1c1.6,0,3.2-1.3,4.7-2.9c-6.3,9-6.6,18.5-2.7,19.4c10.7,2.6,10.5-13,11.3-20.5c0.2-2.2,0.4-4.4,0.4-6.6
	c0.5-0.6,1.1-1.2,1.6-1.8c-0.3,1.6-0.4,3.2-0.1,5.1c0.7,5.5,4.2,9.9,7.6,10.8c18.7,4.4,15.8-16.4,15.1-21.6
	C-1306.7-510.9-1298.2-510.3-1295.6-512.6z M-1312.4-516.4c0.3-1.2,2.7,0.1,2.9,2.1C-1309.9-513.8-1312.7-515.1-1312.4-516.4z
	 M-1437.7-508c-0.6-0.1,0.5-15.3,2.7-16.5c1.2-0.3,3.2,10.5,5,16.3C-1432.3-508.1-1436.2-507.8-1437.7-508z M-1412-522.5
	c-0.1,0.6-1.1,3.4-1.2,3.8c-1.7-0.7-1.5-2.1-0.5-3.8C-1412.8-524.3-1412-523.4-1412-522.5z M-1343-479.2c-1.2-0.1,0.3-7.8,4.1-13.5
	C-1339.3-487.9-1340-478.9-1343-479.2z"/>
<path d="M-1356.5-573.7c-4.8,0-6.5,17.5-7.5,17.9c-1.3,0-4.6,1.4-4.7-7.2c0-2.5,0.5-5.8,0-7.1c-0.6-1.7-5.4-0.4-5.8,1
	c-3.5,14.6,3.3,18.7-6.7,28c-0.5,0.5,0-16.2-0.1-21.9c0-1-0.5-2.6-1.3-3c-2.7-1.5-5.3,0.1-6.4,3.1c-1.6,4.7-7.1,14.1-9,13.5
	c0.4-2.7,3.7-16.9,13.1-20.8c0.5-0.2,0.4-1-0.1-1.1c-3.6-0.8-5.8,0.3-8.3,2.1c-7.5,5.4-10.7,14.7-10.6,25.2c0,0,0.9,2.9,7,2.1
	c3.8-0.5,7.4-4.7,8.3-5.6c0.4,3,0.5,5.5,1,7.9c0.4,2.2,1.6,5,4.1,4.2c6.1-2.1,9.6-11.8,10.3-13c1.8,3.2,5.8,3.6,8.4,1.5
	c-0.8,10.5-6.3,22.2-1.2,22.2c8.1-0.5,9.4-28.6,11-36.9c0.4-2.1,1.1-4.1,1.5-6.1C-1352.8-570.5-1354.1-573.7-1356.5-573.7z"/>
<path d="M-1309-556.1c0.3-0.8-1-1.3-1.5-0.6c-3.7,5.4-2.5,10.9-6,15.5c0,0,0,0,0,0l0.2-0.4c-0.1,0-0.2-0.6-0.3-1.8
	c0-0.1,0-0.3,0-0.4l0,0c-0.1-4.7,0.2-15.3,0.2-19.7c0-1-0.5-2.6-1.3-3c-2.7-1.5-5.3,0.1-6.4,3.1c-1.6,4.7-7.1,14.1-9,13.5
	c0.4-2.7,3.7-16.9,13.1-20.8c0.5-0.2,0.4-1-0.1-1.1c-3.6-0.8-5.8,0.3-8.3,2.1c-7.4,5.4-10.7,14.6-10.7,24.9c0,0-2.7,3-3.9,0.5
	c-1.7-3.4,0.3-16.4,0.7-22.4c0.2-2.7,1-6.1,2.8-7.8c6.1-6,8.7-13.1,9.2-21.4c0.2-3.8-2.1-6.1-5.1-3.8c-3.6,2.7-6.9,9-8.3,12.4
	c-5.8,14.1-9.6,28.7-9.7,44.1c0,2.7,1.1,4.8,3.3,5.6c1.9,0.7,4.3,0.7,6.2,0c1.7-0.6,5-2.6,6.6-3.7c0.9-0.7,2.8-1.4,3.7-1.2l0,0
	c0.5,0.1,1.1,0.1,1.7,0.1c3.8-0.3,7.4-4.7,8.3-5.6c0.4,3,0.5,5.5,1,7.9c0.4,2.2,1.5,3.9,4.1,4.2l0-0.1c1.2,0,2.6-0.4,3.3-1.2
	c1.3-1.3,2.3-3.1,2.9-4.8C-1311.2-545-1310.5-552.2-1309-556.1z M-1333.4-597.3c0.2-0.3,0.7-0.2,0.7,0.2c0.5,7.1-1.2,13.5-5.8,18.9
	c-0.2,0.3-0.7,0.1-0.7-0.3C-1338.9-585.3-1336.9-591.5-1333.4-597.3z"/>
<g>
	<path d="M-1166.8-526.3c1.7,0.5,3.4,0.9,4.9,1.7c0.6,0.3,2.2,3.4-1.2,3.9C-1166.1-520.2-1167.8-522.7-1166.8-526.3z"/>
	<path fill="#FFFFFF" d="M-1169.7-485.8c1-2.6,1.8-4.5,2.6-6.6C-1165.5-489.5-1165.8-488.6-1169.7-485.8z"/>
</g>
<path d="M-1247.2-540.5c-2.7,3.2,0.2,16-7.3,14.9c-2.4-0.3-3.9-1.3-3.5-4.1c0.4-2.3,0.4-4.7,0.5-7c0.5-7.5,0.8-15,1.5-22.5
	c0.4-4.1,1.2-8.3,2-12.4c0.5-2.5,3.5-2,6.1,0c3.5,2.8,2.6,10.5,2.6,15.6c3.1-3.4,7.4-10.1,9.9-12.8c1-1.1,1.9-2.2,3.1-2.9
	c1-0.6,2.7-1.2,3.4-0.8c1.2,0.8,2.8,2.5,2.7,3.6c-0.4,2.8-2.4,3.4-4,5.6c-3,3.9-6.5,8.6-9.1,13.3c-1.1,2.1-2,3.6-0.7,5.8
	c6.1,10.3,17.2,25.1,17.7,27.2c0.4,1.9-1.1,2.3-3.2,1.9c-5-0.8-7-4.2-10.3-8.1C-1238.2-526.2-1244.8-537.3-1247.2-540.5z"/>
<path fill="none" d="M-1167.1-492.4c-0.8,2.1-1.6,4-2.6,6.6C-1165.8-488.6-1165.5-489.5-1167.1-492.4z"/>
<path d="M-1124.2-503.8c0.4-0.5-0.2-2.1-1.6-1.6c-1.8,0.8-7.6,1.1-9.9,0.6c-0.1-0.5-0.2-0.8-0.4-1.7c-0.9-3.9-6.4-4.2-7.8-1.4
	c-2,4,6,5.7,6,5.7c0.8,6.2,1.1,19.4-8.2,15.7c-7.9-3.1-0.7-17.9-0.6-20.2c0-0.9-1.1-2.3-2.1-2.7c-0.8-0.3-2.7,0.1-3.1,0.8
	c-1.7,2.7-3.5,5.3-4.8,8.1c-0.9,0.9-1.9,1.9-3,2.9c0-4.6-0.2-9.2-0.5-13.7c-0.2-2.6-0.1-2.2-1.7-4.5c-0.4-0.6-2.6-1.9-3.3-1.6
	c-0.6,0.3-1,1.6-1.1,2.4c-0.6,9.2-0.5,9.6-1.3,23.2c-0.6,2.3-2.4,5.2-4.6,4.9c-4-0.6-0.6-19.4-1.8-22.7c-0.8-2.1-1.7-3.6-4.3-3.1
	c-2.5,0.5-2.3,2.4-2.5,4.4c-0.5,4.7-1.4,16-2.9,15.9c-2.2-0.2-3.5-7.7-4-11.4c-0.5-4.2-1.9-8.6-6-9.5c-1.8-0.4-3.4-0.4-3.5,2.1
	c-0.2,5,1.7,14.1,1.1,19c-0.4,3.6-5,8-5.4,7.9c-0.7-0.1,0-16.2-0.1-21.9c0-1-0.5-2.6-1.3-3c-2.7-1.5-5.3,0.1-6.4,3.1
	c-1.6,4.7-7.1,14.1-9,13.5c0.4-2.7,3.7-16.9,13.1-20.8c0.5-0.2,0.4-1-0.1-1.1c-3.6-0.8-5.8,0.3-8.3,2.1
	c-7.5,5.4-10.7,14.7-10.6,25.2c0,0-1,3.4-4.8,6.2c-2-6.8-4.5-12.9-3.7-19.6c0.3-2.2,1.7-5.2,0.7-6.5c-1-1.3-5.8-1.3-8.5-1.9
	c0,0,0,0,0,0c0.5-1.4,1-2.5,1.4-3.8c0.8-3.1-2-5.3-4.7-3.8c-1.8,1-3.2,3.4-3.8,5.6c-0.5,1.9,0.6,3.9,2.7,4.8
	c0.3,0.1,0.6,0.2,0.9,0.3c-2.4,4.6-6.4,12.4-6.6,12.4c-1-7.8-1.9-15.6-3-23.4c-0.2-1.3-0.3-2.7-0.8-3.9c-2-5.6-11.1-8.5-14.1-4.1
	c-4.2,6-4.6,12.4-5.9,20.4c-1.2,7-1.1,13.7-1,20.8c0,1.4,0.6,3.8,1.3,3.9c1.9,0.3,3.3,0.5,4.9-0.3c3.2-1.7,3.1-5,3.1-8.2
	c0-1.5-0.9-3.7,2.2-3.8c5.9-0.3,6.2-0.2,7,3.1c1.3,5.4,5.6,20.2,10.2,17.2c2.9-1.9-2.1-16.7-2.1-17.9c-0.1-2.5,4.3-10.1,6.8-15.4
	c1.2,0.5,2.1,1.2,2,2.1c-0.8,7.9-0.5,12.6,1.1,18.2c1,3.8,2.8,8.1,6.9,8c4.2-0.1,10.4-9.2,10.4-9.2c1.4,0.5,2.8,1,4.5,0.9
	c3.8-0.3,7.4-4.7,8.3-5.6c0.4,3,0.5,5.5,1,7.9c0.4,2.2,1.5,3.9,4.1,4.2c2.4,0.2,8-6.9,9.3-11.6c2.7,4.7,10.5,8.1,17.3,2.5
	c0.7,2.8,1.4,4.1,3.5,4.1c1.6,0,3.2-1.3,4.7-2.9c-6.3,9-13.3,27.8-3.5,30.8c10.5,3.2,11.4-24.3,12.2-31.8c0.2-2.2,0.4-4.4,0.4-6.6
	c0.5-0.6,1.1-1.2,1.6-1.8c-0.3,1.6-0.4,3.2-0.1,5.1c0.7,5.5,4.2,9.9,7.6,10.8c18.7,4.4,15.8-16.4,15.1-21.6
	C-1135.3-502.1-1126.8-501.5-1124.2-503.8z M-1141.1-507.6c0.3-1.2,2.7,0.1,2.9,2.1C-1138.6-505-1141.4-506.4-1141.1-507.6z
	 M-1266.4-499.2c-0.6-0.1,0.5-15.3,2.7-16.5c1.2-0.3,3.2,10.5,5,16.3C-1260.9-499.3-1264.8-499-1266.4-499.2z M-1240.7-513.7
	c-0.1,0.6-1.1,3.4-1.2,3.8c-1.7-0.7-1.5-2.1-0.5-3.8C-1241.5-515.5-1240.6-514.7-1240.7-513.7z M-1172.5-459.1
	c-6-1.2,0.9-21,4.9-24.9C-1168-479.2-1168.7-458.3-1172.5-459.1z"/>
<path d="M-1185.1-565c-4.8,0-6.5,17.5-7.5,17.9c-1.3,0-4.6,1.4-4.7-7.2c0-2.5,0.5-5.8,0-7.1c-0.6-1.7-5.4-0.4-5.8,1
	c-3.5,14.6,3.3,18.7-6.7,28c-0.5,0.5,0-16.2-0.1-21.9c0-1-0.5-2.6-1.3-3c-2.7-1.5-5.3,0.1-6.4,3.1c-1.6,4.7-7.1,14.1-9,13.5
	c0.4-2.7,3.7-16.9,13.1-20.8c0.5-0.2,0.4-1-0.1-1.1c-3.6-0.8-5.8,0.3-8.3,2.1c-7.5,5.4-10.7,14.7-10.6,25.2c0,0,0.9,2.9,7,2.1
	c3.8-0.5,7.4-4.7,8.3-5.6c0.4,3,0.5,5.5,1,7.9c0.4,2.2,1.6,5,4.1,4.2c6.1-2.1,9.6-11.8,10.3-13c1.8,3.2,5.8,3.6,8.3,1.5
	c-0.8,10.5-6.3,22.2-1.2,22.2c8.1-0.5,9.4-28.6,11-36.9c0.4-2.1,1.1-4.1,1.5-6.1C-1181.5-561.8-1182.8-564.9-1185.1-565z"/>
<path d="M-1137.6-547.3c0.3-0.8-1-1.3-1.5-0.6c-3.7,5.4-2.5,10.9-6,15.5c0,0,0,0,0,0l0.2-0.4c-0.1,0-0.2-0.6-0.3-1.8
	c0-0.1,0-0.3,0-0.4l0,0c-0.1-4.7,0.2-15.3,0.2-19.7c0-1-0.5-2.6-1.3-3c-2.7-1.5-5.3,0.1-6.4,3.1c-1.6,4.7-7.1,14.1-9,13.5
	c0.4-2.7,3.7-16.9,13.1-20.8c0.5-0.2,0.4-1-0.1-1.1c-3.6-0.8-5.8,0.3-8.3,2.1c-7.4,5.4-10.7,14.6-10.7,24.9c0,0-2.3,2.2-3.9,0.5
	c-1.6-1.7-2.1-6.7-1.3-12.6c10-5.7,12.7-21.1,13.1-32.5c0.2-3.8-2.6-7.8-5.6-5.4c-8.3,6.6-16,33.4-16.6,48.7
	c-0.4,11,7.6,9.1,9.5,8.5c1.7-0.6,5-2.6,6.6-3.7c0.9-0.7,2.8-1.4,3.7-1.2l0,0c0.5,0.1,1.1,0.1,1.7,0.1c3.8-0.3,7.4-4.7,8.3-5.6
	c0.4,3,0.5,5.5,1,7.9c0.4,2.2,1.5,3.9,4.1,4.2l0-0.1c1.2,0,2.6-0.4,3.3-1.2c1.3-1.3,2.3-3.1,2.9-4.8
	C-1139.9-536.2-1139.1-543.4-1137.6-547.3z M-1163.6-583.7c0.2-0.3,0.6-1,0.9-0.7c3.6,3.1-2.6,29.7-9.7,31
	C-1172-560.2-1167.1-577.9-1163.6-583.7z"/>
<g>
	<path d="M-782.1-440.7c3.4,1.1,6.9,1.8,9.9,3.5c1.3,0.7,4.4,6.9-2.4,8C-780.7-428.2-784-433.2-782.1-440.7z"/>
	<path fill="#FFFFFF" d="M-788-358.5c2.1-5.2,3.7-9.1,5.3-13.3C-779.4-366.1-780-364.2-788-358.5z"/>
</g>
<path fill="none" d="M-1376.5-443c-0.8,2.1-1.6,4-2.6,6.6C-1375.3-439.2-1374.9-440.2-1376.5-443z"/>
<path d="M-695.7-395c0.8-1-0.3-4.3-3.2-3.2c-3.7,1.5-15.4,2.2-20.1,1.1c-0.2-1-0.3-1.6-0.8-3.5c-1.9-7.9-12.9-8.4-15.7-2.8
	c-4,8,12.2,11.5,12.2,11.5c1.7,12.5,2.3,39.2-16.6,31.8c-15.9-6.3-1.4-36.4-1.2-41c0.1-1.9-2.3-4.7-4.2-5.5
	c-1.7-0.7-5.4,0.2-6.3,1.6c-3.4,5.4-7.1,10.7-9.7,16.4c-1.9,1.8-3.9,3.8-6,5.9c0-9.3-0.4-18.6-1-27.8c-0.4-5.3-0.3-4.4-3.4-9.2
	c-0.8-1.2-5.2-3.9-6.6-3.3c-1.2,0.5-2,3.2-2.2,5c-1.2,18.7-1.1,19.5-2.6,47c-1.2,4.6-4.8,10.5-9.4,9.8c-8-1.3-1.1-39.2-3.7-46
	c-1.7-4.3-3.5-7.3-8.6-6.2c-5,1-4.7,4.9-5.2,8.9c-1.1,9.5-2.8,32.5-5.9,32.2c-4.5-0.4-7.1-15.5-8.1-23c-1.1-8.4-3.9-17.4-12.1-19.2
	c-3.6-0.8-6.8-0.9-7.1,4.2c-0.5,10,3.4,28.5,2.3,38.5c-0.8,7.2-10.2,16.2-11,16.1c-1.4-0.3,0-32.9-0.2-44.4c0-2.1-1-5.2-2.6-6.1
	c-5.4-3.1-10.8,0.1-12.9,6.2c-3.3,9.5-14.3,28.5-18.2,27.4c0.8-5.5,7.5-34.3,26.6-42.2c1.1-0.4,0.9-2.1-0.2-2.3
	c-7.3-1.7-11.8,0.6-16.8,4.2c-15.2,11-21.6,29.9-21.5,51.2c0,0-2,6.8-9.7,12.5c-4-13.8-9.1-26.1-7.4-39.8c0.6-4.5,3.4-10.6,1.4-13.1
	c-2-2.7-11.7-2.7-17.3-3.8c0,0,0,0,0,0c1-2.7,2.1-5.2,2.8-7.7c1.7-6.3-4.1-10.8-9.5-7.7c-3.6,2-6.6,6.9-7.7,11.4
	c-1,3.9,1.2,7.9,5.6,9.7c0.6,0.2,1.2,0.5,1.9,0.7c-4.8,9.4-13,25.2-13.4,25.2c-2-15.8-3.9-31.6-6-47.4c-0.3-2.7-0.7-5.4-1.6-7.9
	c-4-11.4-22.5-17.2-28.6-8.4c-8.5,12.2-9.3,25.1-12,41.3c-2.4,14.2-2.2,27.8-2,42.2c0.1,2.8,1.3,7.7,2.6,7.9c3.8,0.7,6.6,1.1,10-0.7
	c6.5-3.4,6.3-10.2,6.3-16.6c0-3.1-1.9-7.4,4.4-7.8c12-0.7,12.5-0.5,14.2,6.3c2.7,11,11.4,40.9,20.8,34.9c5.9-3.8-4.3-33.8-4.3-36.3
	c-0.2-5.1,8.8-20.4,13.8-31.2c2.4,1,4.3,2.4,4.1,4.3c-1.7,16.1-1,25.5,2.1,36.8c2.1,7.7,5.7,16.5,14,16.3c8.4-0.2,21-18.7,21-18.7
	c2.9,1,5.6,2,9,1.8c7.8-0.6,14.9-9.4,16.9-11.3c0.7,6,1.1,11.1,2,16.1c0.8,4.5,3,7.9,8.2,8.4c4.8,0.4,16.2-13.9,18.9-23.6
	c5.4,9.6,21.2,16.5,35,5.1c1.5,5.7,2.8,8.4,7.1,8.3c3.2,0,6.4-2.7,9.6-5.9c-12.8,18.3-13.4,37.4-5.4,39.4
	c21.6,5.3,21.3-26.3,22.9-41.5c0.5-4.5,0.7-8.9,0.9-13.4c1-1.2,2.1-2.4,3.3-3.6c-0.6,3.2-0.7,6.6-0.2,10.3
	c1.5,11,8.5,20.2,15.5,21.8c38,8.9,32-33.3,30.7-43.8C-718.2-391.6-701-390.3-695.7-395z M-729.8-402.7c0.6-2.4,5.4,0.1,5.8,4.2
	C-724.9-397.5-730.5-400.2-729.8-402.7z M-983.8-385.7c-1.2-0.1,1.1-31,5.5-33.4c2.4-0.7,6.5,21.2,10,33
	C-972.7-385.8-980.6-385.4-983.8-385.7z M-931.7-415.1c-0.1,1.2-2.2,6.9-2.5,7.7c-3.4-1.4-3.1-4.2-1.1-7.7
	C-933.3-418.7-931.6-417-931.7-415.1z M-791.9-327.3c-2.4-0.3,0.7-15.9,8.3-27.4C-784.4-345.1-785.8-326.7-791.9-327.3z"/>
<path d="M-941.6-469.8c-5.5,6.4,0.4,32.3-14.8,30.1c-4.8-0.7-7.9-2.6-7-8.4c0.7-4.7,0.8-9.5,1.1-14.3c1-15.2,1.7-30.4,3-45.6
	c0.7-8.4,2.4-16.7,4-25c1-5,7.2-4.1,12.3,0.1c7,5.7,5.2,21.3,5.3,31.6c6.3-6.9,15-20.4,20.1-25.9c2-2.1,3.9-4.5,6.3-6
	c2-1.2,5.4-2.5,6.9-1.6c2.5,1.5,5.7,5,5.4,7.2c-0.8,5.8-4.8,6.9-8.2,11.3c-6.1,7.9-13.2,17.5-18.5,27c-2.3,4.2-4.1,7.3-1.3,11.8
	c12.4,20.8,34.8,50.8,35.8,55c0.9,3.9-2.2,4.6-6.4,3.9c-10.1-1.7-14.2-8.5-20.8-16.5C-923.2-440.9-936.6-463.3-941.6-469.8z"/>
<path d="M-815.8-519.4c-9.7,0-13.1,35.4-15.1,36.2c-2.6,0-9.4,2.8-9.5-14.7c0-5,0.9-11.8,0-14.4c-1.2-3.4-11-0.8-11.7,2
	c-7.1,29.6,6.8,37.9-13.6,56.8c-1,0.9,0-32.9-0.2-44.4c0-2.1-1-5.2-2.6-6.1c-5.4-3.1-10.8,0.1-12.9,6.2
	c-3.3,9.5-14.3,28.5-18.2,27.4c0.8-5.5,7.5-34.3,26.6-42.2c1.1-0.4,0.9-2.1-0.2-2.3c-7.3-1.7-11.8,0.6-16.8,4.2
	c-15.2,11-21.6,29.9-21.5,51.2c0,0,1.7,5.8,14.2,4.2c7.7-1,14.9-9.4,16.9-11.3c0.7,6,1.1,11.1,2,16.1c0.8,4.5,3.2,10.1,8.2,8.4
	c12.4-4.2,19.5-23.9,20.8-26.2c3.7,6.6,11.8,7.3,16.9,3.1c-1.6,21.2-12.7,45.1-2.5,45.1c16.3-1.1,19.1-57.9,22.3-74.8
	c0.8-4.2,2.2-8.2,3.1-12.4C-808.4-512.9-811.1-519.3-815.8-519.4z"/>
<path d="M-719.6-483.7c0.6-1.7-2-2.7-3-1.2c-7.5,10.9-5,22.1-12.1,31.5c0,0,0,0,0,0l0.3-0.8c-0.3,0.1-0.4-1.3-0.5-3.6
	c0-0.3,0-0.6,0.1-0.9l-0.1,0c-0.2-9.4,0.5-31.1,0.3-39.9c0-2.1-1-5.2-2.6-6.1c-5.4-3.1-10.8,0.1-12.9,6.2
	c-3.3,9.5-14.3,28.5-18.2,27.4c0.8-5.5,7.5-34.3,26.6-42.2c1.1-0.4,0.9-2.1-0.2-2.3c-7.3-1.7-11.8,0.6-16.8,4.2
	c-15,10.9-21.6,29.5-21.6,50.5c0,0-4.6,4.5-7.9,1.1c-3.3-3.5-4.2-13.5-2.7-25.6c20.2-11.5,25.7-42.8,26.5-65.8
	c0.4-7.8-5.3-15.8-11.4-11c-16.9,13.3-32.3,67.6-33.5,98.8c-0.9,22.3,15.4,18.5,19.2,17.2c3.5-1.2,10-5.2,13.3-7.6
	c1.8-1.3,5.6-2.9,7.5-2.4l0,0c1.1,0.2,2.2,0.3,3.5,0.2c7.8-0.6,14.9-9.4,16.9-11.3c0.7,6,1.1,11.1,2,16.1c0.8,4.5,3,7.9,8.2,8.4
	l0-0.1c2.3,0,5.2-0.9,6.7-2.4c2.6-2.6,4.7-6.2,5.9-9.8C-724.2-461.2-722.6-475.7-719.6-483.7z M-772.2-557.3c0.4-0.7,1.3-2,1.9-1.5
	c7.3,6.2-5.2,60.2-19.6,62.8C-789.3-509.8-779.3-545.6-772.2-557.3z"/>
<g>
	<g>
		<path d="M-1389.3-391.9c1.8,0.1,3.6,0,5.3,0.4c0.7,0.2,3.1,2.8-0.1,4.2C-1387-386-1389.3-388-1389.3-391.9z"/>
	</g>
	<path d="M-1341.1-379.7c0.3-0.6-0.7-2.1-2-1.1c-1.6,1.2-7.3,3.1-9.8,3.2c-0.2-0.4-0.4-0.7-0.9-1.6c-2-3.6-7.5-2.5-8.1,0.7
		c-0.9,4.5,7.5,4.1,7.5,4.1c2.5,6,6.3,19.1-4,17.9c-8.7-1-5.5-17.8-6-20.1c-0.2-0.9-1.8-2-2.8-2.2c-0.9-0.1-2.6,0.8-2.9,1.6
		c-1,3.1-2.1,6.2-2.6,9.4c-0.7,1.1-1.4,2.4-2.2,3.7c-1.2-4.6-2.6-9.1-4.2-13.6c-0.9-2.6-0.7-2.1-2.9-4.1c-0.5-0.5-3.1-1.2-3.7-0.7
		c-0.5,0.4-0.6,1.9-0.4,2.7c1.8,9.4,2,9.8,4.9,23.6c0,2.5-1,5.8-3.3,6.1c-4.1,0.4-5.7-19.2-7.9-22.2c-1.4-1.9-2.7-3.1-5.1-1.9
		c-2.3,1.2-1.7,3.1-1.4,5.1c0.7,4.8,2.9,16.4,1.3,16.7c-2.3,0.4-5.6-6.7-7-10.3c-1.7-4-4.2-8.1-8.5-7.9c-1.9,0.1-3.5,0.4-2.9,3
		c1.1,5,5.4,13.6,6.2,18.7c0.6,3.7-2.9,9.3-3.3,9.4c-0.7,0.1-4.3-16.2-5.9-21.9c-0.3-1-1.2-2.5-2.1-2.7c-3.1-0.8-5.3,1.5-5.5,4.7
		c-0.4,5.1-3.3,15.9-5.4,15.9c-0.3-2.8-0.8-17.9,7.6-24.3c0.5-0.4,0.2-1.1-0.4-1.1c-3.8,0.1-5.8,1.9-7.7,4.3
		c-6.1,7.4-6.7,17.6-3.9,28.1c0,0-0.1,3.6-3.2,7.4c-3.8-6.3-7.9-11.7-8.9-18.7c-0.3-2.3,0.3-5.6-1-6.7c-1.4-1.1-6.1,0.2-9,0.4
		c0,0,0,0,0,0c0.1-1.5,0.4-2.8,0.4-4.2c0-3.3-3.4-4.8-5.7-2.6c-1.5,1.5-2.3,4.3-2.3,6.6c0,2,1.6,3.8,4,4.1c0.3,0,0.7,0.1,1,0.1
		c-1.1,5.3-3.1,14.1-3.3,14.2c-3.1-7.5-6.1-15.1-9.2-22.6c-0.5-1.3-1.1-2.6-1.8-3.7c-3.5-5.1-13.4-5.5-15.2-0.4
		c-2.6,7.1-1.3,13.6-0.5,22c0.7,7.3,2.5,14,4.6,21.1c0.4,1.4,1.6,3.6,2.3,3.6c2-0.2,3.4-0.3,4.8-1.6c2.8-2.5,1.8-5.8,0.9-9
		c-0.4-1.5-1.9-3.4,1.1-4.4c5.8-1.9,6.1-1.9,7.8,1.2c2.8,5.1,11,18.7,14.8,14.5c2.4-2.6-6.5-16.1-6.9-17.4
		c-0.8-2.5,1.7-11.2,2.7-17.2c1.3,0.2,2.4,0.6,2.6,1.6c1.3,8.1,2.9,12.7,5.9,17.9c2,3.5,5,7.4,9,6.2c4.1-1.2,7.9-12,7.9-12
		c1.6,0.1,3,0.3,4.7-0.3c3.8-1.3,6.1-6.6,6.8-7.8c1.2,2.9,2,5.3,3.1,7.7c1,2.1,2.5,3.5,5.2,3.1c2.5-0.4,6.1-9,6.2-14.1
		c3.9,4,12.6,5.4,17.9-2.1c3.6,6,7.4,1,8.6-1c-3.9,10.7-1,25.5,3.2,25.4c11.4-0.2,6.4-21,5.2-28.7c-0.4-2.3-0.8-4.5-1.3-6.8
		c0.4-0.7,0.7-1.5,1.2-2.2c0.1,1.6,0.5,3.3,1.2,5.1c2.2,5.3,6.8,8.8,10.5,8.7c19.9-0.6,11.4-20.6,9.4-25.7
		C-1351.8-375-1343.1-376.7-1341.1-379.7z M-1359-379c0-1.2,2.7-0.6,3.4,1.3C-1355.8-377-1359-377.6-1359-379z M-1482.1-337.2
		c-0.6,0.1-3.5-15.4-1.7-17.2c1.1-0.7,6,9.6,9.3,15C-1476.6-338.7-1480.5-337.5-1482.1-337.2z M-1460.3-358.6
		c0.1,0.6-0.2,3.7-0.2,4.1c-1.9-0.2-2.1-1.7-1.5-3.7C-1461.5-360.1-1460.4-359.5-1460.3-358.6z M-1379.2-330.2
		c-1.2,0.1-2.3-11.3,0-18C-1377.4-343.3-1374.9-330.7-1379.2-330.2z"/>
	<path d="M-1476.1-385.9c-2.1,3.8,3.5,15.4-4.4,15.9c-2.5,0.2-4.2-0.4-4.4-3.4c-0.1-2.4-1.4-9.8-1.7-12.2c-1.1-7.7-1.5-9.7-2.4-17.5
		c-0.5-4.3-0.6-8.6-0.7-12.9c0-2.6,3.2-3,6.2-1.3c2.8,1.6,4,10.1,5.1,15.3c2.4-4.1,6.2-11.9,8.2-15.1c0.8-1.3,1.5-2.7,2.5-3.7
		c0.9-0.8,2.4-1.8,3.3-1.5c1.4,0.5,3.4,1.9,3.5,3c0.2,3-1.7,4-2.9,6.5c-2.2,4.6-4.7,10.1-6.4,15.5c-0.7,2.3-1.3,4.1,0.6,6.1
		c8.4,9.1,22.8,21.7,23.7,23.7c0.9,1.9-0.6,2.5-2.8,2.6c-5.2,0.2-8-2.8-12.1-6C-1463.9-373.4-1472.9-383.2-1476.1-385.9z"/>
	<path d="M-1418.9-425.5c-4.9,1-2.8,19.1-3.7,19.7c-1.3,0.3-4.4,2.4-6.3-6.3c-0.5-2.5-0.8-6-1.5-7.2c-1-1.6-5.6,0.8-5.6,2.2
		c-0.4,15.5,7.4,18.2-0.8,29.8c-0.4,0.6-3.5-16.4-4.8-22.1c-0.2-1.1-1.1-2.5-1.9-2.8c-3-1-5.4,1.2-5.8,4.5
		c-0.7,5.1-4.1,15.8-6.2,15.6c-0.2-2.8,0.1-17.9,8.8-23.9c0.5-0.3,0.2-1.1-0.4-1.1c-3.8-0.1-5.8,1.6-7.9,3.9
		c-6.4,7.1-7.6,17.2-5.3,27.8c0,0,1.5,2.7,7.6,0.6c3.8-1.3,6.4-6.3,7.2-7.5c1,2.9,1.7,5.4,2.7,7.8c0.9,2.1,2.7,4.7,5,3.3
		c5.7-3.4,7.2-14,7.6-15.3c2.6,2.9,6.7,2.4,8.8-0.2c1.5,10.8-1.6,23.9,3.5,22.8c8-2.3,3.4-30.9,3.2-39.7c-0.1-2.2,0.2-4.4,0.2-6.5
		C-1414.5-423-1416.5-426-1418.9-425.5z"/>
	<path d="M-1367-417.9c0.1-0.9-1.3-1.1-1.6-0.3c-2.6,6.3-0.1,11.6-2.7,17c0,0,0,0,0,0l0.1-0.4c-0.1,0.1-0.4-0.6-0.6-1.7
		c0-0.2,0-0.3-0.1-0.5l0,0c-1.1-4.7-3-15.6-4.1-19.9c-0.2-1.1-1.1-2.5-1.9-2.8c-3-1-5.4,1.2-5.8,4.5c-0.7,5.1-4.1,15.8-6.2,15.6
		c-0.2-2.8,0.1-17.9,8.8-23.9c0.5-0.3,0.2-1.1-0.4-1.1c-3.8-0.1-5.8,1.6-7.9,3.9c-6.4,7-7.7,17-5.4,27.5c0,0-2.1,3.7-3.8,1.4
		c-2.4-3.1-4.6-19.9-3.2-22.1c4.9-7.4,6-15.2,4.7-23.6c-0.6-3.9-3.4-5.7-6-2.7c-3,3.5-5.1,10.6-5.8,14.4
		c-2.9,15.5-2.5,28.5-0.1,37.4c0.7,2.8,2.1,4.6,4.5,4.9c2,0.3,4.5-0.3,6.2-1.3c1.6-1,4.5-3.7,5.8-5.2c0.8-0.9,2.5-2,3.5-2l0,0
		c0.6,0,1.1-0.1,1.7-0.3c3.8-1.1,6.4-6.3,7.2-7.5c1,2.9,1.7,5.4,2.7,7.8c0.9,2.1,2.3,3.6,5,3.3l0-0.1c1.2-0.2,2.5-1,3.1-1.9
		c1-1.6,1.7-3.6,1.9-5.5C-1367-406.1-1367.7-413.5-1367-417.9z M-1400.9-445c0.1-0.4,0.7-0.4,0.8,0c2.1,7.1,1.7,13.9-1.8,20.4
		c-0.2,0.3-0.7,0.3-0.8-0.1C-1403.9-431.6-1403.3-438.4-1400.9-445z"/>
</g>
<g>
	<path fill="#FFFFFF" d="M-1194.8-368.8c1.8,0.1,3.6,0,5.3,0.4c0.7,0.2,3.1,2.8-0.1,4.2C-1192.5-362.9-1194.8-364.9-1194.8-368.8z"
		/>
	<path fill="#FFFFFF" d="M-1146.6-356.6c0.3-0.6-0.7-2.1-2-1.1c-1.6,1.2-7.3,3.1-9.8,3.2c-0.2-0.4-0.4-0.7-0.9-1.6
		c-2-3.6-7.5-2.5-8.1,0.7c-0.9,4.5,7.5,4.1,7.5,4.1c2.5,6,6.3,19.1-4,17.9c-8.7-1-5.5-17.8-6-20.1c-0.2-0.9-1.8-2-2.8-2.2
		c-0.9-0.1-2.6,0.8-2.9,1.6c-1,3.1-2.1,6.2-2.6,9.4c-0.7,1.1-1.4,2.4-2.2,3.7c-1.2-4.6-2.6-9.1-4.2-13.6c-0.9-2.6-0.7-2.1-2.9-4.1
		c-0.5-0.5-3.1-1.2-3.7-0.7c-0.5,0.4-0.6,1.9-0.4,2.7c1.8,9.4,2,9.8,4.9,23.6c0,2.5-1,5.8-3.3,6.1c-4.1,0.4-5.7-19.2-7.9-22.2
		c-1.4-1.9-2.7-3.1-5.1-1.9c-2.3,1.2-1.7,3.1-1.4,5.1c0.7,4.8,2.9,16.4,1.3,16.7c-2.3,0.4-5.6-6.7-7-10.3c-1.7-4-4.2-8.1-8.5-7.9
		c-1.9,0.1-3.5,0.4-2.9,3c1.1,5,5.4,13.6,6.2,18.7c0.6,3.7-2.9,9.3-3.3,9.4c-0.7,0.1-4.3-16.2-5.9-21.9c-0.3-1-1.2-2.5-2.1-2.7
		c-3.1-0.8-5.3,1.5-5.5,4.7c-0.4,5.1-3.3,15.9-5.4,15.9c-0.3-2.8-0.8-17.9,7.6-24.3c0.5-0.4,0.2-1.1-0.4-1.1
		c-3.8,0.1-5.8,1.9-7.7,4.3c-6.1,7.4-6.7,17.6-3.9,28.1c0,0-0.1,3.6-3.2,7.4c-3.8-6.3-7.9-11.7-8.9-18.7c-0.3-2.3,0.3-5.6-1-6.7
		c-1.4-1.1-6.1,0.2-9,0.4c0,0,0,0,0,0c0.1-1.5,0.4-2.8,0.4-4.2c0-3.3-3.4-4.8-5.7-2.6c-1.5,1.5-2.3,4.3-2.3,6.6c0,2,1.6,3.8,4,4.1
		c0.3,0,0.7,0.1,1,0.1c-1.1,5.3-3.1,14.1-3.3,14.2c-3.1-7.5-6.1-15.1-9.2-22.6c-0.5-1.3-1.1-2.6-1.8-3.7c-3.5-5.1-13.4-5.5-15.2-0.4
		c-2.6,7.1-1.3,13.6-0.5,22c0.7,7.3,2.5,14,4.6,21.1c0.4,1.4,1.6,3.6,2.3,3.6c2-0.2,3.4-0.3,4.8-1.6c2.8-2.5,1.8-5.8,0.9-9
		c-0.4-1.5-1.9-3.4,1.1-4.4c5.8-1.9,6.1-1.9,7.8,1.2c2.8,5.1,11,18.7,14.8,14.5c2.4-2.6-6.5-16.1-6.9-17.4
		c-0.8-2.5,1.7-11.2,2.7-17.2c1.3,0.2,2.4,0.6,2.6,1.6c1.3,8.1,2.9,12.7,5.9,17.9c2,3.5,5,7.4,9,6.2c4.1-1.2,7.9-12,7.9-12
		c1.6,0.1,3,0.3,4.7-0.3c3.8-1.3,6.1-6.6,6.8-7.8c1.2,2.9,2,5.3,3.1,7.7c1,2.1,2.5,3.5,5.2,3.1c2.5-0.4,6.1-9,6.2-14.1
		c3.9,4,12.6,5.4,17.9-2.1c3.6,6,7.4,1,8.6-1c-3.9,10.7-1,25.5,3.2,25.4c11.4-0.2,6.4-21,5.2-28.7c-0.4-2.3-0.8-4.5-1.3-6.8
		c0.4-0.7,0.7-1.5,1.2-2.2c0.1,1.6,0.5,3.3,1.2,5.1c2.2,5.3,6.8,8.8,10.5,8.7c19.9-0.6,11.4-20.6,9.4-25.7
		C-1157.3-351.9-1148.6-353.6-1146.6-356.6z M-1164.5-355.9c0-1.2,2.7-0.6,3.4,1.3C-1161.3-354-1164.5-354.6-1164.5-355.9z
		 M-1287.6-314.1c-0.6,0.1-3.5-15.4-1.7-17.2c1.1-0.7,6,9.6,9.3,15C-1282.1-315.7-1286-314.4-1287.6-314.1z M-1265.8-335.5
		c0.1,0.6-0.2,3.7-0.2,4.1c-1.9-0.2-2.1-1.7-1.5-3.7C-1267-337-1265.9-336.4-1265.8-335.5z M-1184.7-307.1c-1.2,0.1-2.3-11.3,0-18
		C-1182.9-320.2-1180.5-307.6-1184.7-307.1z"/>
	<path fill="#FFFFFF" d="M-1281.6-362.8c-2.1,3.8,3.5,15.4-4.4,15.9c-2.5,0.2-4.2-0.4-4.4-3.4c-0.1-2.4-1.4-9.8-1.7-12.2
		c-1.1-7.7-1.5-9.7-2.4-17.5c-0.5-4.3-0.6-8.6-0.7-12.9c0-2.6,3.2-3,6.2-1.3c2.8,1.6,4,10.1,5.1,15.3c2.4-4.1,6.2-11.9,8.2-15.1
		c0.8-1.3,1.5-2.7,2.5-3.7c0.9-0.8,2.4-1.8,3.3-1.5c1.4,0.5,3.4,1.9,3.5,3c0.2,3-1.7,4-2.9,6.5c-2.2,4.6-4.7,10.1-6.4,15.5
		c-0.7,2.3-1.3,4.1,0.6,6.1c8.4,9.1,22.8,21.7,23.7,23.7c0.9,1.9-0.6,2.5-2.8,2.6c-5.2,0.2-8-2.8-12.1-6
		C-1269.4-350.4-1278.4-360.1-1281.6-362.8z"/>
	<path fill="#FFFFFF" d="M-1224.4-402.4c-4.9,1-2.8,19.1-3.7,19.7c-1.3,0.3-4.4,2.4-6.3-6.3c-0.5-2.5-0.8-6-1.5-7.2
		c-1-1.6-5.6,0.8-5.6,2.2c-0.4,15.5,7.4,18.2-0.8,29.8c-0.4,0.6-3.5-16.4-4.8-22.1c-0.2-1.1-1.1-2.5-1.9-2.8c-3-1-5.4,1.2-5.8,4.5
		c-0.7,5.1-4.1,15.8-6.2,15.6c-0.2-2.8,0.1-17.9,8.8-23.9c0.5-0.3,0.2-1.1-0.4-1.1c-3.8-0.1-5.8,1.6-7.9,3.9
		c-6.4,7.1-7.6,17.2-5.3,27.8c0,0,1.5,2.7,7.6,0.6c3.8-1.3,6.4-6.3,7.2-7.5c1,2.9,1.7,5.4,2.7,7.8c0.9,2.1,2.7,4.7,5,3.3
		c5.7-3.4,7.2-14,7.6-15.3c2.6,2.9,6.7,2.4,8.8-0.2c1.5,10.8-1.6,23.9,3.5,22.8c8-2.3,3.4-30.9,3.2-39.7c-0.1-2.2,0.2-4.4,0.2-6.5
		C-1220-400-1222.1-402.9-1224.4-402.4z"/>
	<path fill="#FFFFFF" d="M-1172.6-394.8c0.1-0.9-1.3-1.1-1.6-0.3c-2.6,6.3-0.1,11.6-2.7,17c0,0,0,0,0,0l0.1-0.4
		c-0.1,0.1-0.4-0.6-0.6-1.7c0-0.2,0-0.3-0.1-0.5l0,0c-1.1-4.7-3-15.6-4.1-19.9c-0.2-1.1-1.1-2.5-1.9-2.8c-3-1-5.4,1.2-5.8,4.5
		c-0.7,5.1-4.1,15.8-6.2,15.6c-0.2-2.8,0.1-17.9,8.8-23.9c0.5-0.3,0.2-1.1-0.4-1.1c-3.8-0.1-5.8,1.6-7.9,3.9c-6.4,7-7.7,17-5.4,27.5
		c0,0-2.1,3.7-3.8,1.4c-2.4-3.1-4.6-19.9-3.2-22.1c4.9-7.4,6-15.2,4.7-23.6c-0.6-3.9-3.4-5.7-6-2.7c-3,3.5-5.1,10.6-5.8,14.4
		c-2.9,15.5-2.5,28.5-0.1,37.4c0.7,2.8,2.1,4.6,4.5,4.9c2,0.3,4.5-0.3,6.2-1.3c1.6-1,4.5-3.7,5.8-5.2c0.8-0.9,2.5-2,3.5-2l0,0
		c0.6,0,1.1-0.1,1.7-0.3c3.8-1.1,6.4-6.3,7.2-7.5c1,2.9,1.7,5.4,2.7,7.8c0.9,2.1,2.3,3.6,5,3.3l0-0.1c1.2-0.2,2.5-1,3.1-1.9
		c1-1.6,1.7-3.6,1.9-5.5C-1172.5-383.1-1173.2-390.5-1172.6-394.8z M-1206.4-421.9c0.1-0.4,0.7-0.4,0.8,0c2.1,7.1,1.7,13.9-1.8,20.4
		c-0.2,0.3-0.7,0.3-0.8-0.1C-1209.4-408.5-1208.8-415.3-1206.4-421.9z"/>
</g>
<g>
	<g>
		<path d="M-818.5-164.3c-3-0.6-4.5-3.7-4.2-8.1c0.4,0.1,0.8,0.2,1.3,0.3c2.8,0.6,5.4,1.2,7.7,2.3c0.3,0.2,1.5,2,1.2,3.4
			c-0.2,0.9-1.2,1.6-2.9,2C-816.6-164.1-817.6-164.1-818.5-164.3z"/>
		<path d="M-736.1-141c-2.4,7.9-12.4,8-12.4,8c-4.4-24.6-31.2-13.9-21-1.6c4.9,5.9,15.2,5.5,15.2,5.5c0,0,6.5,47.3-14.7,43.6
			c0,0-26.5-4.6-11.4-45.5c1-2.6,1.4-5.4,1.4-6.2c0-1.1-2.2-3.6-3.9-4.2c-1.4-0.3-4.1,0.7-4.5,1.4c-0.8,1.4-1.6,2.8-2.3,4.2
			c-2.8,5-5.5,9.7-7.4,14.8c0,0-2.9,7.3-10.3,6.5c-0.2-2.9-1.4-19-3-31.3l0-0.3c-0.6-4.3-0.6-4.3-2.7-7.1c-0.4-0.5-0.9-1.1-1.4-1.9
			c-0.5-0.6-3.2-2.2-5-2.5c-0.1,0-0.2,0-0.3,0c-0.4,0.5-1,2.3-1,3.9c-0.1,12.6,0,18,0,26.9c0.1,6.1,0.1,13.8,0.2,26.5l0,0.2l0,0.2
			c-0.7,3.5-2.5,7.9-5.4,10.7c-10.9,5.5-14.3-11.8-14.5-31.6c0-8-0.1-16.3-1.2-18.7c-1.7-3.7-2.9-5.2-4.7-5.6
			c-0.8-0.2-1.9-0.1-3.1,0.2c-3.4,0.9-3.6,2.8-3.7,6.9c0,0.6,0,1.1-0.1,1.7c-0.1,1.8-0.2,4.1-0.3,6.6c-1.1,26.3-2.3,32.3-6.3,32.1
			c-0.2,0-0.5,0-0.7-0.1c-4.6-0.9-8.6-10.1-11.9-27.1c-2.2-11.6-6.4-17.9-12.7-19.2c-0.2,0-0.4-0.1-0.6-0.1
			c-1.7-0.3-3.8-0.5-4.6,0.3c-0.7,0.6-0.8,2-0.8,3c0,5.1,1.2,12.1,2.5,19.5c1.5,8.7,3,17.7,2.7,24.1c-0.4,8.2-9,17.9-11.3,19.9
			c-0.7,0.6-1.4,1-2.5,0.9c0,0,0,0-0.1,0c-2.2-0.4-2.5-0.8-3.7-31.1c-0.3-8.3-0.7-16.2-1.1-20.9c-0.2-2.2-1.4-4.7-2.2-5.1
			c-0.7-0.3-1.4-0.6-2.1-0.7c-4.1-0.8-7.8,2.1-9.3,7.3c-2,7.1-12.6,38.9-22.9,33.2c-0.4-0.2,4.2-39.3,26.9-52
			c-6.2-0.6-10.3,1.6-15.3,5.8c-18.8,15.4-21.5,36.4-20.3,54.2c0,0-5.1,17.3-13.8,19.4c-2.8,0.7-13.2-26-11.2-45.6
			c1-9.6,5.4-14.9-10.6-15.4c-2.5-0.1-4.1,0-6.1-0.2c0,0,1.7-6.5,2.1-8.4c0.4-1.8,1.6-9.8-5.9-10.1c-1.5-0.1-2.9,0-4.3,0.9
			c-3.2,2-6.1,7-7.1,12.1c-0.7,3.6,1.6,7,5.6,8.3c0.6,0.2,1.4,0.4,2.1,0.6l2.2,0.6c0,0-6.4,17.7-16.5,31.4
			c-0.3-2.2-9.2-40.4-11.7-53.6c-0.5-2.9-1.1-5.8-2.2-8.4c-2.3-5.5-8.3-9.9-15.4-11.4c-4.9-1-11.2-0.5-14,4.1
			c-7.3,11.8-8.4,23.6-9.8,38.6c-0.2,2.6-0.5,5.4-0.8,8.2c-1.7,15.7-0.8,30.2,0.6,47.6c0.2,2.7,1.4,6.1,2.1,7
			c4.1,0.5,6.6,0.6,9.6-1.2c5.8-3.5,5.5-9.8,5.1-16.5l0-0.9c0-0.6-0.1-1.2-0.2-1.9c-0.3-2.1-0.8-4.6,0.8-6.7c1.1-1.5,3-2.3,5.6-2.6
			c6.1-0.7,9.7-1.1,12.2-0.6c4.2,0.9,5.2,4.2,6.4,8.1c5.6,17.9,14,36.5,20.3,37.7c0.9,0.2,1.6,0,2.5-0.6c2.5-1.8,3-4.8-3.7-24.6
			c-1.3-4-4.9-13.7-4.5-14.5c9.9-18.2,17.4-37.9,17.4-37.9c1.8,0.6,5.2,2,5,6.2c-0.8,17.3,0.5,28,4.8,40.8c2.1,6.2,5.6,14.9,12.1,16
			c14.5,2.4,23.9-23.5,23.9-23.5l3.1,1.5c1.1,0.3,2.2,0.6,3.3,0.8c2,0.4,3.6,0.5,5.3,0.3c6.7-0.9,12.9-8.3,15.9-11.8
			c0.5-0.7,1-1.2,1.3-1.5l2.7-2.9l0.7,3.9c0.4,2.1,0.7,4.2,1.1,6.1c0.7,4.1,1.4,8.1,2.3,11.8c1.1,4.3,3,6.6,6.2,7.3
			c0.5,0.1,1.1,0.2,1.8,0.2c10.7-0.6,21.4-27,21.4-27c3.1,4.9,8.7,8.6,14.9,9.8c7.8,1.6,15.6-0.8,22-6.8l2.2-2.1l1,2.9
			c1.4,3.9,6.7,11.2,18.9,3.3c-10.7,17.5-16,51.4-5.7,53.6c4,0.7,7.3,0,10.1-2.3c10.3-8.3,11-34.4,11.4-50c0.1-2.3,0.1-4.3,0.2-6.1
			c0.2-4.7,0.1-14.9,0.1-17.1c3.8,0.6,7.5-2.9,7.5-2.9c-0.4,3.7-0.3,8,0.4,11.8c5.6,31.5,36.4,27.5,44.9,16.7
			c13.4-16.8,6.4-46.2,6.4-46.2c11.5-1.3,15-5.4,16.2-9.9C-731-143.6-735.2-143.8-736.1-141z M-766.9-136.8c-2.3-4.4,3-9.5,7.1-6.3
			c3.4,2.6,5,10.7,5,10.7C-756.8-132.3-764.7-132.4-766.9-136.8z M-1033.9-103c-5.4,0.6-13.4,1.5-17,1.4l-0.2,0l-0.2,0
			c-1.5-0.3-1.8-1.8-1.9-2.4c-0.6-3.5-0.8-35.7,5.2-39.5l0.2-0.1l0.2-0.1c0.4-0.2,0.9-0.2,1.3-0.1c2.7,0.5,4.3,5,9.6,22.2
			c1.7,5.6,3.5,11.4,5.2,15.8l0.9,2.4L-1033.9-103z M-995.1-129.1l-1.6-0.5c-2-0.7-3.4-1.8-4.1-3.5c-0.9-2.1-0.5-4.6,1.2-8
			c1.8-3.6,3.9-3.8,4.9-3.6c1.7,0.4,2.9,2.1,2.9,4.3C-991.8-138.9-995.1-129.1-995.1-129.1z M-824.6-42.9
			c-14.3,8.3,3.7-44.8,3.7-44.8l0.9,5.6C-818.6-73.6-816.3-47.8-824.6-42.9z"/>
	</g>
	<path d="M-953-142.6c-8.4-1.7-12.9-7.2-18.5-14.2c-0.9-1.1-1.8-2.3-2.8-3.4c-3-3.6-8.8-12.6-14.5-21.2c-4.9-7.6-9.6-14.7-12.3-18.2
		l-1.5-2l-1.6,1.9c-2.6,3.1-3.2,8.6-3.8,14.5c-0.7,6.4-1.4,13.6-5,16.4c-1.5,1.2-3.5,1.6-6.1,1.2c-0.5-0.1-0.9-0.1-1.4-0.2
		c-4.2-0.9-5.6-2.7-4.9-6.9c0.6-4.2,1.1-14.5,1.5-22.1c0.1-2.2,0.2-4.1,0.3-5.4l0.5-9.7c0.6-10.2,0.9-15.9,1.9-29.3
		c0.8-9.5,2.5-19,4.3-28.2c0.2-0.9,0.5-1.5,1.1-1.9c0.8-0.5,2-0.6,3.4-0.4c2,0.4,4.3,1.6,6.2,3.4c3.9,3.4,3.7,17.4,3.7,27.6
		c0,2.3,0,4.5,0,6.5l0.1,5.1l3.4-3.8c3.6-4,8.4-9.9,13-15.6c4.5-5.5,8.7-10.7,11.5-13.7l1.1-1.3c1.7-1.9,3.5-4,5.6-5.2
		c1.9-1.2,4.6-2.1,5.6-1.9c2.9,1.7,5.5,5.1,5.3,6.2c-0.5,3.6-2.3,5.3-4.7,7.6c-1.3,1.2-2.7,2.6-4.1,4.4
		c-6.5,8.5-14.7,19.7-20.9,31.1c-2.6,4.8-5.1,9.3-1.4,15.4c7.1,11.7,16.7,25.5,25.3,37.7c7.5,10.7,15.2,21.7,15.7,23.8
		c0.1,0.4,0.3,1.3-0.1,1.7c-0.1,0.2-1.1,0.9-4.9,0.3C-952.2-142.4-952.6-142.5-953-142.6z"/>
	<path d="M-882.2-148.6c-0.6-0.1-1-0.4-1.3-0.8c-2-3,0.1-12.2,2.2-22c1.8-8.1,3.8-17.3,4.3-26.1l0.3-4.6l-3.6,2.9
		c-2.6,2.1-6,3-9.2,2.3c-2.9-0.6-5.4-2.4-7-5.2l-1.8-3l-1.7,3.1c-0.2,0.4-0.6,1.3-1.1,2.4c-2.7,6.2-10,22.8-21.2,26.6
		c-0.7,0.3-1.4,0.3-1.9,0.2c-2.5-0.5-4.2-4.7-4.9-8.1c-0.7-3.8-1.2-7.7-1.7-11.9c-0.2-2-0.5-4-0.8-6.2l-0.5-3.9l-2.9,2.8
		c-0.3,0.3-0.7,0.7-1.2,1.2c-2.9,3.1-9.8,10.3-16.7,11.2c-3.4,0.5-6.3,0.5-8.7,0c-3.7-0.8-4.9-2.5-5.3-3.1
		c-2.6-8.8,3.7-41.9,23.1-56.2c5.3-3.9,9.4-5.9,15.6-5c-23.2,11.5-31.1,49.2-27.7,51.1c1.2,0.7,0.2,0,0.2,0
		c7.3,1.5,20.3-25.7,22.6-32.5c1.7-4.9,5.4-7.7,9.3-6.9c0.8,0.2,1.6,0.5,2.4,0.9c0.8,0.5,1.9,3,2,5.2c0.1,5,0.4,13.9,0.1,22.5
		c-0.8,22.3,0.6,29.6,2.1,29.8s16.6-16.8,15.4-36.4c-0.5-7.9-0.9-16.9,2-29.7c0.5-1.1,5.4-3.1,8.5-2.5c0.5,0.1,0.8,0.3,0.9,0.4
		c0.6,1.5,0.4,5.5,0.2,9.1c-0.1,2.2-0.2,4.5-0.2,6.5c0.2,11.6,2.7,17.5,8.1,18.6c1.4,0.3,2.8,0.2,3.8,0.1c0.4,0,0.7-0.1,0.9-0.1
		l0.4,0l0.4-0.2c1.6-0.7,2-2.5,3.8-10.9c2-9.8,6.2-30.1,12.3-30.2c0.3,0,0.5,0,0.8,0.1c1.4,0.3,2.4,1.4,3,2.3
		c1.5,2.3,2.1,5.7,1.4,8.7c-0.4,2.1-1,4.2-1.5,6.2c-0.7,2.6-1.4,5.3-1.9,8c-0.7,4-1.4,9.9-2.2,16.7c-2.6,23-7.5,65.7-20.6,66.7
		C-881.7-148.5-882-148.5-882.2-148.6L-882.2-148.6z"/>
	<path d="M-842.2-177.6c-0.7-0.1-1.4-0.3-2.1-0.6c-4-1.4-6-4.8-6.4-11c-1.3-22.1,4.6-50.7,16.6-80.5c2.8-6.9,10.2-21.6,18.3-27.9
		c1.8-1.4,3.5-2,4.8-1.7c2.4,0.5,5.1,5,4.9,9.6c-0.9,19.6-2.8,37.2-21.9,49.7c-5.7,3.8-6.7,40.9-2.6,49.1c1.1,2.3,2.7,3,3.8,3.3
		c3.9,0.8,7.7-3.3,8.4-4.2l0.5-0.6l0-0.8c-0.1-17.6,3.8-41.5,23.2-55.9c5.3-3.9,9.4-5.9,15.6-5c-23.2,11.6-29.2,48.5-29.2,48.9
		l-0.2,1.7l1.8,0.5l0.2,0c7.3,1.5,20.3-25.7,22.6-32.5c1.7-4.9,5.4-7.7,9.3-6.9c0.8,0.2,1.6,0.5,2.4,0.9c0.8,0.5,1.9,3,2,5.2
		c0.1,4.7,0.1,12.7,0,21.2c-0.1,9.1,1.5,34.2,2.6,33.5c6.5-3.6,8.8-38.5,14.2-37.3c2.6,0.6-1.2,13.4-3.5,20.4
		c-1.6,4.8-2.4,7.9-3.3,10.6c-1.3,3.9-2.8,8.3-5.4,10.9c-1.2,1.2-12.4,7.2-14.4-6.1c-0.6-3.8-1.2-7.7-1.7-11.9c-0.2-2-0.5-4-0.7-6.2
		l-0.5-3.9l-2.9,2.8c-0.3,0.3-0.8,0.8-1.4,1.5c-3.1,3.4-9.7,10.4-16.4,11c-1.1,0.1-2.3,0-3.5-0.1l-3-0.5c-3-0.5-6.2,1.7-8.4,3.4
		c-3.5,2.6-9.2,7.5-13,8.8C-834.5-177.1-838.7-176.9-842.2-177.6z M-811.4-296c-1.2-0.3-2.4,0.3-3.1,1.4
		c-8.3,13.8-12.7,28.7-13.2,44.4c0,1.4,0.9,2.7,2.4,3c1.1,0.2,2.1-0.2,2.8-1c10.4-12.6,14.9-27.8,13.4-45.1
		C-809.2-294.7-810.1-295.7-811.4-296z"/>
</g>
<g>
	<g>
		<path d="M-638.1,320.7c-3-0.6-4.5-3.7-4.2-8.1c0.4,0.1,0.8,0.2,1.3,0.3c2.8,0.6,5.4,1.2,7.7,2.3c0.3,0.2,1.5,2,1.2,3.4
			c-0.2,0.9-1.2,1.6-2.9,2C-636.2,320.8-637.2,320.9-638.1,320.7z"/>
		<path d="M-555.7,344c-2.4,7.9-12.4,8-12.4,8c-4.4-24.6-31.2-13.9-21-1.6c4.9,5.9,15.2,5.5,15.2,5.5c0,0,6.5,47.3-14.7,43.6
			c0,0-26.5-4.6-11.4-45.5c1-2.6,1.4-5.4,1.4-6.2c0-1.1-2.2-3.6-3.9-4.2c-1.4-0.3-4.1,0.7-4.5,1.4c-0.8,1.4-1.6,2.8-2.3,4.2
			c-2.8,5-5.5,9.7-7.4,14.8c0,0-2.9,7.3-10.3,6.5c-0.2-2.9-1.4-19-3-31.3l0-0.3c-0.6-4.3-0.6-4.3-2.7-7.1c-0.4-0.5-0.9-1.1-1.4-1.9
			c-0.5-0.6-3.2-2.2-5-2.5c-0.1,0-0.2,0-0.3,0c-0.4,0.5-1,2.3-1,3.9c-0.1,12.6,0,18,0,26.9c0.1,6.1,0.1,13.8,0.2,26.5l0,0.2l0,0.2
			c-0.7,3.5-2.5,7.9-5.4,10.7c-10.9,5.5-14.3-11.8-14.5-31.6c0-8-0.1-16.3-1.2-18.7c-1.7-3.7-2.9-5.2-4.7-5.6
			c-0.8-0.2-1.9-0.1-3.1,0.2c-3.4,0.9-3.6,2.8-3.7,6.9c0,0.6,0,1.1-0.1,1.7c-0.1,1.8-0.2,4.1-0.3,6.6c-1.1,26.3-2.3,32.3-6.3,32.1
			c-0.2,0-0.5,0-0.7-0.1c-4.6-0.9-8.6-10.1-11.9-27.1c-2.2-11.6-6.4-17.9-12.7-19.2c-0.2,0-0.4-0.1-0.6-0.1
			c-1.7-0.3-3.8-0.5-4.6,0.3c-0.7,0.6-0.8,2-0.8,3c0,5.1,1.2,12.1,2.5,19.5c1.5,8.7,3,17.7,2.7,24.1c-0.4,8.2-9,17.9-11.3,19.9
			c-0.7,0.6-1.4,1-2.5,0.9c0,0,0,0-0.1,0c-2.2-0.4-2.5-0.8-3.7-31.1c-0.3-8.3-0.7-16.2-1.1-20.9c-0.2-2.2-1.4-4.7-2.2-5.1
			c-0.7-0.3-1.4-0.6-2.1-0.7c-4.1-0.8-7.8,2.1-9.3,7.3c-2,7.1-12.6,38.9-22.9,33.2c-0.4-0.2,4.2-39.3,26.9-52
			c-6.2-0.6-10.3,1.6-15.3,5.8c-18.8,15.4-21.5,36.4-20.3,54.2c0,0-5.1,17.3-13.8,19.4c-2.8,0.7-13.2-26-11.2-45.6
			c1-9.6,5.4-14.9-10.6-15.4c-2.5-0.1-4.1,0-6.1-0.2c0,0,1.7-6.5,2.1-8.4c0.4-1.8,1.6-9.8-5.9-10.1c-1.5-0.1-2.9,0-4.3,0.9
			c-3.2,2-6.1,7-7.1,12.1c-0.7,3.6,1.6,7,5.6,8.3c0.6,0.2,1.4,0.4,2.1,0.6l2.2,0.6c0,0-6.4,17.7-16.5,31.4
			c-0.3-2.2-9.2-40.4-11.7-53.6c-0.5-2.9-1.1-5.8-2.2-8.4c-2.3-5.5-8.3-9.9-15.4-11.4c-4.9-1-11.2-0.5-14,4.1
			c-7.3,11.8-8.4,23.6-9.8,38.6c-0.2,2.6-0.5,5.4-0.8,8.2c-1.7,15.7-0.8,30.2,0.6,47.6c0.2,2.7,1.4,6.1,2.1,7
			c4.1,0.5,6.6,0.6,9.6-1.2c5.8-3.5,5.5-9.8,5.1-16.5l0-0.9c0-0.6-0.1-1.2-0.2-1.9c-0.3-2.1-0.8-4.6,0.8-6.7c1.1-1.5,3-2.3,5.6-2.6
			c6.1-0.7,9.7-1.1,12.2-0.6c4.2,0.9,5.2,4.2,6.4,8.1c5.6,17.9,14,36.5,20.3,37.7c0.9,0.2,1.7,0,2.5-0.6c2.5-1.8,3-4.8-3.7-24.6
			c-1.3-4-4.9-13.7-4.5-14.5c9.9-18.2,17.4-37.9,17.4-37.9c1.8,0.6,5.2,2,5,6.2c-0.8,17.3,0.5,28,4.8,40.8c2.1,6.2,5.6,14.9,12.1,16
			c14.5,2.4,23.9-23.5,23.9-23.5l3.1,1.5c1.1,0.3,2.2,0.6,3.3,0.8c2,0.4,3.6,0.5,5.3,0.3c6.7-0.9,12.9-8.3,15.9-11.8
			c0.5-0.7,1-1.2,1.3-1.5l2.7-2.9l0.7,3.9c0.4,2.1,0.7,4.2,1.1,6.1c0.7,4.1,1.4,8.1,2.3,11.8c1.1,4.3,3,6.6,6.2,7.3
			c0.5,0.1,1.1,0.2,1.8,0.2c10.7-0.6,21.4-27,21.4-27c3.1,4.9,8.7,8.6,14.9,9.8c7.8,1.6,15.6-0.8,22-6.8l2.2-2.1l1,2.9
			c1.4,3.9,6.7,11.2,18.9,3.3c-10.7,17.5-16,51.4-5.7,53.6c4,0.7,7.3,0,10.1-2.3c10.3-8.3,11-34.4,11.4-50c0.1-2.3,0.1-4.3,0.2-6.1
			c0.2-4.7,0.1-14.9,0.1-17.1c3.8,0.6,7.5-2.9,7.5-2.9c-0.4,3.7-0.3,8,0.4,11.8c5.6,31.5,36.4,27.5,44.9,16.7
			c13.4-16.8,6.4-46.2,6.4-46.2c11.5-1.3,15-5.4,16.2-9.9C-550.6,341.4-554.8,341.1-555.7,344z M-586.5,348.2
			c-2.3-4.4,3-9.5,7.1-6.3c3.4,2.6,5,10.7,5,10.7C-576.4,352.7-584.3,352.6-586.5,348.2z M-853.5,382c-5.4,0.6-13.4,1.5-17,1.4
			l-0.2,0l-0.2,0c-1.5-0.3-1.8-1.8-1.9-2.4c-0.6-3.5-0.8-35.7,5.2-39.5l0.2-0.1l0.2-0.1c0.4-0.2,0.9-0.2,1.3-0.1
			c2.7,0.5,4.3,5,9.6,22.2c1.7,5.6,3.5,11.4,5.2,15.8l0.9,2.4L-853.5,382z M-814.7,355.9l-1.6-0.5c-2-0.7-3.4-1.8-4.1-3.5
			c-0.9-2.1-0.5-4.6,1.2-8c1.8-3.6,3.9-3.8,4.9-3.6c1.7,0.4,2.9,2.1,2.9,4.3C-811.4,346-814.7,355.9-814.7,355.9z M-644.2,442
			c-14.3,8.3,3.7-44.8,3.7-44.8l0.9,5.6C-638.2,411.4-635.9,437.1-644.2,442z"/>
	</g>
	<path d="M-772.6,342.4c-8.4-1.7-12.9-7.2-18.5-14.2c-0.9-1.1-1.8-2.3-2.8-3.4c-3-3.6-8.8-12.6-14.5-21.2
		c-4.9-7.6-9.6-14.7-12.3-18.2l-1.5-2l-1.6,1.9c-2.6,3.1-3.2,8.6-3.8,14.5c-0.7,6.4-1.4,13.6-5,16.4c-1.5,1.2-3.5,1.6-6.1,1.2
		c-0.5-0.1-0.9-0.1-1.4-0.2c-4.2-0.9-5.6-2.7-4.9-6.9c0.6-4.2,1.1-14.5,1.5-22.1c0.1-2.2,0.2-4.1,0.3-5.4l0.5-9.7
		c0.6-10.2,0.9-15.9,1.9-29.3c0.8-9.5,2.5-19,4.3-28.2c0.2-0.9,0.5-1.5,1.1-1.9c0.8-0.5,2-0.6,3.4-0.4c2,0.4,4.3,1.6,6.2,3.4
		c3.9,3.4,3.7,17.4,3.7,27.6c0,2.3,0,4.5,0,6.5l0.1,5.1l3.4-3.8c3.6-4,8.4-9.9,13-15.6c4.5-5.5,8.7-10.7,11.5-13.7l1.1-1.3
		c1.7-1.9,3.5-4,5.6-5.2c1.9-1.2,4.6-2.1,5.6-1.9c2.9,1.7,5.5,5.1,5.3,6.2c-0.5,3.6-2.3,5.3-4.7,7.6c-1.3,1.2-2.7,2.6-4.1,4.4
		c-6.5,8.5-14.7,19.7-20.9,31.1c-2.6,4.8-5.1,9.3-1.4,15.4c7.1,11.7,16.7,25.5,25.3,37.7c7.5,10.7,15.2,21.7,15.7,23.8
		c0.1,0.4,0.3,1.3-0.1,1.7c-0.1,0.2-1.1,0.9-4.9,0.3C-771.8,342.5-772.2,342.5-772.6,342.4z"/>
	<path d="M-701.9,336.4c-0.6-0.1-1-0.4-1.3-0.8c-2-3,0.1-12.2,2.2-22c1.8-8.1,3.8-17.3,4.3-26.1l0.3-4.6l-3.6,2.9
		c-2.6,2.1-6,3-9.2,2.3c-2.9-0.6-5.4-2.4-7-5.2l-1.8-3l-1.7,3.1c-0.2,0.4-0.6,1.3-1.1,2.4c-2.7,6.2-10,22.8-21.2,26.6
		c-0.7,0.3-1.4,0.3-1.9,0.2c-2.5-0.5-4.2-4.7-4.9-8.1c-0.7-3.8-1.2-7.7-1.7-11.9c-0.2-2-0.5-4-0.8-6.2l-0.5-3.9l-2.9,2.8
		c-0.3,0.3-0.7,0.7-1.2,1.2c-2.9,3.1-9.8,10.3-16.7,11.2c-3.4,0.5-6.3,0.5-8.7,0c-3.7-0.8-4.9-2.5-5.3-3.1
		c-2.6-8.8,3.7-41.9,23.1-56.2c5.3-3.9,9.4-5.9,15.6-5c-23.2,11.5-31.1,49.2-27.7,51.1c1.2,0.7,0.2,0,0.2,0
		c7.3,1.5,20.3-25.7,22.6-32.5c1.7-4.9,5.4-7.7,9.3-6.9c0.8,0.2,1.6,0.5,2.4,0.9c0.8,0.5,1.9,3,2,5.2c0.1,5,0.4,13.9,0.1,22.5
		c-0.8,22.3,0.6,29.6,2.1,29.8c1.5,0.2,16.6-16.8,15.4-36.4c-0.5-7.9-0.9-16.9,2-29.7c0.5-1.1,5.4-3.1,8.5-2.5
		c0.5,0.1,0.8,0.3,0.9,0.4c0.6,1.5,0.4,5.5,0.2,9.1c-0.1,2.2-0.2,4.5-0.2,6.5c0.2,11.6,2.7,17.5,8.1,18.6c1.4,0.3,2.8,0.2,3.8,0.1
		c0.4,0,0.7-0.1,0.9-0.1l0.4,0l0.4-0.2c1.6-0.7,2-2.5,3.8-10.9c2-9.8,6.2-30.1,12.3-30.2c0.3,0,0.5,0,0.8,0.1c1.4,0.3,2.4,1.4,3,2.3
		c1.5,2.3,2.1,5.7,1.4,8.7c-0.4,2.1-1,4.2-1.5,6.2c-0.7,2.6-1.4,5.3-1.9,8c-0.7,4-1.4,9.9-2.2,16.7c-2.6,23-7.5,65.7-20.6,66.7
		C-701.3,336.5-701.6,336.4-701.9,336.4L-701.9,336.4z"/>
	<path d="M-661.8,307.4c-0.7-0.1-1.4-0.3-2.1-0.6c-4-1.4-6-4.8-6.4-11c-1.3-22.1,4.6-50.7,16.6-80.5c2.8-6.9,10.2-21.6,18.3-27.9
		c1.8-1.4,3.5-2,4.8-1.7c2.4,0.5,5.1,5,4.9,9.6c-0.9,19.6-2.8,37.2-21.9,49.7c-5.7,3.8-6.7,40.9-2.6,49.1c1.1,2.3,2.7,3,3.8,3.3
		c3.9,0.8,7.7-3.3,8.4-4.2l0.5-0.6l0-0.8c-0.1-17.6,3.8-41.5,23.2-55.9c5.3-3.9,9.4-5.9,15.6-5c-23.2,11.6-29.2,48.5-29.2,48.9
		l-0.2,1.7l1.8,0.5l0.2,0c7.3,1.5,20.3-25.7,22.6-32.5c1.7-4.9,5.4-7.7,9.3-6.9c0.8,0.2,1.6,0.5,2.4,0.9c0.8,0.5,1.9,3,2,5.2
		c0.1,4.7,0.1,12.7,0,21.2c-0.1,9.1,1.5,34.2,2.6,33.5c6.5-3.6,8.8-38.5,14.2-37.3c2.6,0.6-1.2,13.4-3.5,20.4
		c-1.6,4.8-2.4,7.9-3.3,10.6c-1.3,3.9-2.8,8.3-5.4,10.9c-1.2,1.2-12.4,7.2-14.4-6.1c-0.6-3.8-1.2-7.7-1.7-11.9c-0.2-2-0.5-4-0.7-6.2
		l-0.5-3.9l-2.9,2.8c-0.3,0.3-0.8,0.8-1.4,1.5c-3.1,3.4-9.7,10.4-16.4,11c-1.1,0.1-2.3,0-3.5-0.1l-3-0.5c-3-0.5-6.2,1.7-8.4,3.4
		c-3.5,2.6-9.2,7.5-13,8.8C-654.2,307.8-658.3,308.1-661.8,307.4z M-631,189c-1.2-0.3-2.4,0.3-3.1,1.4
		c-8.3,13.8-12.7,28.7-13.2,44.4c0,1.4,0.9,2.7,2.4,3c1.1,0.2,2.1-0.2,2.8-1c10.4-12.6,14.9-27.8,13.4-45.1
		C-628.8,190.3-629.7,189.2-631,189z"/>
</g>
<g>
	<g>
		<path fill="#FCD3C6" d="M44.1-94.9c-0.8-0.2-1.2-1-1.1-2.1c0.1,0,0.2,0.1,0.3,0.1c0.7,0.2,1.4,0.3,2,0.6c0.1,0.1,0.4,0.5,0.3,0.9
			c-0.1,0.2-0.3,0.4-0.8,0.5C44.6-94.8,44.3-94.8,44.1-94.9z"/>
		<path fill="#FCD3C6" d="M65.7-88.8c-0.6,2.1-3.3,2.1-3.3,2.1c-1.2-6.5-8.2-3.7-5.5-0.4c1.3,1.6,4,1.4,4,1.4c0,0,1.7,12.4-3.9,11.5
			c0,0-7-1.2-3-12c0.2-0.7,0.4-1.4,0.4-1.6c0-0.3-0.6-0.9-1-1.1c-0.4-0.1-1.1,0.2-1.2,0.4c-0.2,0.4-0.4,0.7-0.6,1.1
			c-0.7,1.3-1.4,2.6-1.9,3.9c0,0-0.8,1.9-2.7,1.7c0-0.8-0.4-5-0.8-8.2l0-0.1C46-91.3,46-91.3,45.5-92c-0.1-0.1-0.2-0.3-0.4-0.5
			c-0.1-0.1-0.8-0.6-1.3-0.7c0,0-0.1,0-0.1,0c-0.1,0.1-0.3,0.6-0.3,1c0,3.3,0,4.7,0,7.1c0,1.6,0,3.6,0,7l0,0.1l0,0.1
			c-0.2,0.9-0.7,2.1-1.4,2.8c-2.9,1.5-3.8-3.1-3.8-8.3c0-2.1,0-4.3-0.3-4.9c-0.4-1-0.8-1.4-1.2-1.5c-0.2,0-0.5,0-0.8,0.1
			C35-89.6,35-89.1,35-88c0,0.1,0,0.3,0,0.4c0,0.5-0.1,1.1-0.1,1.7c-0.3,6.9-0.6,8.5-1.7,8.4c-0.1,0-0.1,0-0.2,0
			c-1.2-0.2-2.3-2.6-3.1-7.1c-0.6-3.1-1.7-4.7-3.3-5c-0.1,0-0.1,0-0.2,0c-0.4-0.1-1-0.1-1.2,0.1C25-89.4,25-89,25-88.7
			c0,1.3,0.3,3.2,0.7,5.1c0.4,2.3,0.8,4.7,0.7,6.3c-0.1,2.2-2.4,4.7-3,5.2c-0.2,0.1-0.4,0.3-0.7,0.2c0,0,0,0,0,0
			C22.1-72,22-72,21.7-80c-0.1-2.2-0.2-4.3-0.3-5.5c0-0.6-0.4-1.2-0.6-1.3c-0.2-0.1-0.4-0.2-0.5-0.2c-1.1-0.2-2.1,0.6-2.4,1.9
			c-0.5,1.9-3.3,10.2-6,8.7c-0.1-0.1,1.1-10.3,7.1-13.7c-1.6-0.2-2.7,0.4-4,1.5c-4.9,4-5.7,9.6-5.3,14.3c0,0-1.3,4.5-3.6,5.1
			c-0.7,0.2-3.5-6.8-3-12c0.3-2.5,1.4-3.9-2.8-4.1c-0.7,0-1.1,0-1.6-0.1c0,0,0.5-1.7,0.6-2.2c0.1-0.5,0.4-2.6-1.5-2.7
			c-0.4,0-0.8,0-1.1,0.2c-0.8,0.5-1.6,1.8-1.9,3.2C-5.6-85.8-5-84.9-4-84.6c0.2,0.1,0.4,0.1,0.5,0.2l0.6,0.2c0,0-1.7,4.7-4.3,8.2
			c-0.1-0.6-2.4-10.6-3.1-14.1c-0.1-0.8-0.3-1.5-0.6-2.2c-0.6-1.4-2.2-2.6-4.1-3c-1.3-0.3-3-0.1-3.7,1.1c-1.9,3.1-2.2,6.2-2.6,10.2
			c-0.1,0.7-0.1,1.4-0.2,2.2c-0.4,4.1-0.2,7.9,0.2,12.5c0.1,0.7,0.4,1.6,0.6,1.8c1.1,0.1,1.7,0.2,2.5-0.3c1.5-0.9,1.4-2.6,1.3-4.3
			l0-0.2c0-0.2,0-0.3-0.1-0.5c-0.1-0.5-0.2-1.2,0.2-1.8c0.3-0.4,0.8-0.6,1.5-0.7c1.6-0.2,2.5-0.3,3.2-0.1c1.1,0.2,1.4,1.1,1.7,2.1
			c1.5,4.7,3.7,9.6,5.3,9.9c0.2,0,0.4,0,0.7-0.2c0.7-0.5,0.8-1.3-1-6.5c-0.3-1-1.3-3.6-1.2-3.8c2.6-4.8,4.6-10,4.6-10
			c0.5,0.2,1.4,0.5,1.3,1.6c-0.2,4.5,0.1,7.4,1.3,10.7c0.6,1.6,1.5,3.9,3.2,4.2c3.8,0.6,6.3-6.2,6.3-6.2l0.8,0.4
			c0.3,0.1,0.6,0.2,0.9,0.2c0.5,0.1,0.9,0.1,1.4,0.1c1.8-0.2,3.4-2.2,4.2-3.1c0.1-0.2,0.3-0.3,0.3-0.4l0.7-0.8l0.2,1
			c0.1,0.6,0.2,1.1,0.3,1.6c0.2,1.1,0.4,2.1,0.6,3.1c0.3,1.1,0.8,1.7,1.6,1.9c0.1,0,0.3,0.1,0.5,0.1c2.8-0.2,5.6-7.1,5.6-7.1
			c0.8,1.3,2.3,2.3,3.9,2.6c2,0.4,4.1-0.2,5.8-1.8l0.6-0.5l0.3,0.8c0.4,1,1.8,2.9,5,0.9c-2.8,4.6-4.2,13.5-1.5,14.1
			c1.1,0.2,1.9,0,2.7-0.6c2.7-2.2,2.9-9.1,3-13.1c0-0.6,0-1.1,0.1-1.6c0.1-1.2,0-3.9,0-4.5c1,0.1,2-0.8,2-0.8
			c-0.1,1-0.1,2.1,0.1,3.1c1.5,8.3,9.6,7.2,11.8,4.4c3.5-4.4,1.7-12.2,1.7-12.2c3-0.3,3.9-1.4,4.3-2.6C67.1-89.4,66-89.5,65.7-88.8z
			 M57.6-87.7c-0.6-1.2,0.8-2.5,1.9-1.7c0.9,0.7,1.3,2.8,1.3,2.8C60.3-86.5,58.2-86.5,57.6-87.7z M-12.6-78.8
			c-1.4,0.2-3.5,0.4-4.5,0.4l0,0l0,0c-0.4-0.1-0.5-0.5-0.5-0.6c-0.2-0.9-0.2-9.4,1.4-10.4l0,0l0.1,0c0.1,0,0.2,0,0.4,0
			c0.7,0.1,1.1,1.3,2.5,5.8c0.5,1.5,0.9,3,1.4,4.2l0.2,0.6L-12.6-78.8z M-2.4-85.6l-0.4-0.1c-0.5-0.2-0.9-0.5-1.1-0.9
			c-0.2-0.5-0.1-1.2,0.3-2.1c0.5-0.9,1-1,1.3-0.9c0.5,0.1,0.8,0.6,0.8,1.1C-1.5-88.2-2.4-85.6-2.4-85.6z M42.4-63
			c-3.8,2.2,1-11.8,1-11.8l0.2,1.5C44-71,44.6-64.3,42.4-63z"/>
	</g>
	<path fill="#FCD3C6" d="M8.7-89.2c-2.2-0.5-3.4-1.9-4.9-3.7c-0.2-0.3-0.5-0.6-0.7-0.9c-0.8-0.9-2.3-3.3-3.8-5.6
		c-1.3-2-2.5-3.9-3.2-4.8l-0.4-0.5l-0.4,0.5c-0.7,0.8-0.8,2.3-1,3.8c-0.2,1.7-0.4,3.6-1.3,4.3c-0.4,0.3-0.9,0.4-1.6,0.3
		c-0.1,0-0.2,0-0.4-0.1c-1.1-0.2-1.5-0.7-1.3-1.8c0.2-1.1,0.3-3.8,0.4-5.8c0-0.6,0.1-1.1,0.1-1.4l0.1-2.5c0.1-2.7,0.2-4.2,0.5-7.7
		c0.2-2.5,0.7-5,1.1-7.4c0-0.2,0.1-0.4,0.3-0.5c0.2-0.1,0.5-0.2,0.9-0.1c0.5,0.1,1.1,0.4,1.6,0.9c1,0.9,1,4.6,1,7.3
		c0,0.6,0,1.2,0,1.7l0,1.3l0.9-1c1-1.1,2.2-2.6,3.4-4.1c1.2-1.4,2.3-2.8,3-3.6l0.3-0.3c0.5-0.5,0.9-1,1.5-1.4
		c0.5-0.3,1.2-0.5,1.5-0.5c0.8,0.5,1.4,1.3,1.4,1.6c-0.1,1-0.6,1.4-1.2,2c-0.3,0.3-0.7,0.7-1.1,1.2c-1.7,2.2-3.9,5.2-5.5,8.2
		c-0.7,1.3-1.3,2.4-0.4,4.1c1.9,3.1,4.4,6.7,6.6,9.9c2,2.8,4,5.7,4.1,6.3c0,0.1,0.1,0.4,0,0.5c0,0-0.3,0.2-1.3,0.1
		C8.9-89.1,8.8-89.2,8.7-89.2z"/>
	<path fill="#FCD3C6" d="M27.3-90.8c-0.2,0-0.3-0.1-0.3-0.2c-0.5-0.8,0-3.2,0.6-5.8c0.5-2.1,1-4.5,1.1-6.9l0.1-1.2l-0.9,0.8
		c-0.7,0.6-1.6,0.8-2.4,0.6c-0.8-0.2-1.4-0.6-1.8-1.4l-0.5-0.8l-0.5,0.8c-0.1,0.1-0.2,0.3-0.3,0.6c-0.7,1.6-2.6,6-5.6,7
		c-0.2,0.1-0.4,0.1-0.5,0.1c-0.7-0.1-1.1-1.2-1.3-2.1c-0.2-1-0.3-2-0.4-3.1c-0.1-0.5-0.1-1.1-0.2-1.6l-0.1-1l-0.8,0.7
		c-0.1,0.1-0.2,0.2-0.3,0.3c-0.8,0.8-2.6,2.7-4.4,3c-0.9,0.1-1.7,0.1-2.3,0c-1-0.2-1.3-0.6-1.4-0.8c-0.7-2.3,1-11,6.1-14.8
		c1.4-1,2.5-1.5,4.1-1.3c-6.1,3-8.2,12.9-7.3,13.4c0.3,0.2,0,0,0,0c1.9,0.4,5.3-6.7,6-8.6c0.4-1.3,1.4-2,2.4-1.8
		c0.2,0,0.4,0.1,0.6,0.2c0.2,0.1,0.5,0.8,0.5,1.4c0,1.3,0.1,3.6,0,5.9c-0.2,5.9,0.2,7.8,0.6,7.8s4.4-4.4,4-9.6
		c-0.1-2.1-0.2-4.5,0.5-7.8c0.1-0.3,1.4-0.8,2.2-0.7c0.1,0,0.2,0.1,0.2,0.1c0.1,0.4,0.1,1.5,0.1,2.4c0,0.6-0.1,1.2-0.1,1.7
		c0,3,0.7,4.6,2.1,4.9c0.4,0.1,0.7,0,1,0c0.1,0,0.2,0,0.2,0l0.1,0l0.1,0c0.4-0.2,0.5-0.7,1-2.9c0.5-2.6,1.6-7.9,3.2-7.9
		c0.1,0,0.1,0,0.2,0c0.4,0.1,0.6,0.4,0.8,0.6c0.4,0.6,0.5,1.5,0.4,2.3c-0.1,0.5-0.3,1.1-0.4,1.6c-0.2,0.7-0.4,1.4-0.5,2.1
		c-0.2,1.1-0.4,2.6-0.6,4.4c-0.7,6-2,17.3-5.4,17.5C27.4-90.7,27.4-90.7,27.3-90.8L27.3-90.8z"/>
	<path fill="#FCD3C6" d="M37.8-98.4c-0.2,0-0.4-0.1-0.5-0.1c-1-0.4-1.6-1.3-1.7-2.9c-0.3-5.8,1.2-13.3,4.4-21.2
		c0.7-1.8,2.7-5.7,4.8-7.3c0.5-0.4,0.9-0.5,1.3-0.5c0.6,0.1,1.3,1.3,1.3,2.5c-0.2,5.2-0.7,9.8-5.8,13.1c-1.5,1-1.7,10.7-0.7,12.9
		c0.3,0.6,0.7,0.8,1,0.9c1,0.2,2-0.9,2.2-1.1l0.1-0.1l0-0.2c0-4.6,1-10.9,6.1-14.7c1.4-1,2.5-1.5,4.1-1.3c-6.1,3-7.7,12.7-7.7,12.8
		l-0.1,0.5l0.5,0.1l0,0c1.9,0.4,5.3-6.7,6-8.6c0.4-1.3,1.4-2,2.4-1.8c0.2,0,0.4,0.1,0.6,0.2c0.2,0.1,0.5,0.8,0.5,1.4
		c0,1.2,0,3.3,0,5.6c0,2.4,0.4,9,0.7,8.8c1.7-0.9,2.3-10.1,3.7-9.8c0.7,0.1-0.3,3.5-0.9,5.4c-0.4,1.3-0.6,2.1-0.9,2.8
		c-0.3,1-0.7,2.2-1.4,2.9c-0.3,0.3-3.3,1.9-3.8-1.6c-0.1-1-0.3-2-0.4-3.1c-0.1-0.5-0.1-1.1-0.2-1.6l-0.1-1l-0.8,0.7
		c-0.1,0.1-0.2,0.2-0.4,0.4c-0.8,0.9-2.5,2.7-4.3,2.9c-0.3,0-0.6,0-0.9,0l-0.8-0.1c-0.8-0.1-1.6,0.4-2.2,0.9c-0.9,0.7-2.4,2-3.4,2.3
		C39.8-98.3,38.8-98.2,37.8-98.4z M45.9-129.5c-0.3-0.1-0.6,0.1-0.8,0.4c-2.2,3.6-3.3,7.5-3.5,11.7c0,0.4,0.2,0.7,0.6,0.8
		c0.3,0.1,0.6,0,0.7-0.3c2.7-3.3,3.9-7.3,3.5-11.9C46.5-129.2,46.3-129.4,45.9-129.5z"/>
</g>
<g>
	<g>
		<path fill="#E7DFDF" d="M76,41.5c-0.8-0.2-1.2-1-1.1-2.1c0.1,0,0.2,0.1,0.3,0.1c0.7,0.2,1.4,0.3,2,0.6c0.1,0.1,0.4,0.5,0.3,0.9
			c-0.1,0.2-0.3,0.4-0.8,0.5C76.5,41.5,76.2,41.5,76,41.5z"/>
		<path fill="#E7DFDF" d="M97.6,47.6c-0.6,2.1-3.3,2.1-3.3,2.1c-1.2-6.5-8.2-3.7-5.5-0.4c1.3,1.6,4,1.4,4,1.4c0,0,1.7,12.4-3.9,11.5
			c0,0-7-1.2-3-12c0.2-0.7,0.4-1.4,0.4-1.6c0-0.3-0.6-0.9-1-1.1c-0.4-0.1-1.1,0.2-1.2,0.4c-0.2,0.4-0.4,0.7-0.6,1.1
			c-0.7,1.3-1.4,2.6-1.9,3.9c0,0-0.8,1.9-2.7,1.7c0-0.8-0.4-5-0.8-8.2l0-0.1c-0.1-1.1-0.1-1.1-0.7-1.9c-0.1-0.1-0.2-0.3-0.4-0.5
			c-0.1-0.1-0.8-0.6-1.3-0.7c0,0-0.1,0-0.1,0c-0.1,0.1-0.3,0.6-0.3,1c0,3.3,0,4.7,0,7.1c0,1.6,0,3.6,0,7l0,0.1l0,0.1
			c-0.2,0.9-0.7,2.1-1.4,2.8c-2.9,1.5-3.8-3.1-3.8-8.3c0-2.1,0-4.3-0.3-4.9c-0.4-1-0.8-1.4-1.2-1.5c-0.2,0-0.5,0-0.8,0.1
			c-0.9,0.2-0.9,0.7-1,1.8c0,0.1,0,0.3,0,0.4c0,0.5-0.1,1.1-0.1,1.7c-0.3,6.9-0.6,8.5-1.7,8.4c-0.1,0-0.1,0-0.2,0
			c-1.2-0.2-2.3-2.6-3.1-7.1c-0.6-3.1-1.7-4.7-3.3-5c-0.1,0-0.1,0-0.2,0c-0.4-0.1-1-0.1-1.2,0.1c-0.2,0.2-0.2,0.5-0.2,0.8
			c0,1.3,0.3,3.2,0.7,5.1c0.4,2.3,0.8,4.7,0.7,6.3c-0.1,2.2-2.4,4.7-3,5.2c-0.2,0.1-0.4,0.3-0.7,0.2c0,0,0,0,0,0
			c-0.6-0.1-0.6-0.2-1-8.2c-0.1-2.2-0.2-4.3-0.3-5.5c0-0.6-0.4-1.2-0.6-1.3c-0.2-0.1-0.4-0.2-0.5-0.2c-1.1-0.2-2.1,0.6-2.4,1.9
			c-0.5,1.9-3.3,10.2-6,8.7c-0.1-0.1,1.1-10.3,7.1-13.7c-1.6-0.2-2.7,0.4-4,1.5c-4.9,4-5.7,9.6-5.3,14.3c0,0-1.3,4.5-3.6,5.1
			c-0.7,0.2-3.5-6.8-3-12c0.3-2.5,1.4-3.9-2.8-4.1c-0.7,0-1.1,0-1.6-0.1c0,0,0.5-1.7,0.6-2.2c0.1-0.5,0.4-2.6-1.5-2.7
			c-0.4,0-0.8,0-1.1,0.2c-0.8,0.5-1.6,1.8-1.9,3.2c-0.2,0.9,0.4,1.8,1.5,2.2c0.2,0.1,0.4,0.1,0.5,0.2l0.6,0.2c0,0-1.7,4.7-4.3,8.2
			c-0.1-0.6-2.4-10.6-3.1-14.1c-0.1-0.8-0.3-1.5-0.6-2.2c-0.6-1.4-2.2-2.6-4.1-3c-1.3-0.3-3-0.1-3.7,1.1c-1.9,3.1-2.2,6.2-2.6,10.2
			c-0.1,0.7-0.1,1.4-0.2,2.2c-0.4,4.1-0.2,7.9,0.2,12.5c0.1,0.7,0.4,1.6,0.6,1.8c1.1,0.1,1.7,0.2,2.5-0.3c1.5-0.9,1.4-2.6,1.3-4.3
			l0-0.2c0-0.2,0-0.3-0.1-0.5c-0.1-0.5-0.2-1.2,0.2-1.8c0.3-0.4,0.8-0.6,1.5-0.7c1.6-0.2,2.5-0.3,3.2-0.1c1.1,0.2,1.4,1.1,1.7,2.1
			c1.5,4.7,3.7,9.6,5.3,9.9c0.2,0,0.4,0,0.7-0.2c0.7-0.5,0.8-1.3-1-6.5c-0.3-1-1.3-3.6-1.2-3.8c2.6-4.8,4.6-10,4.6-10
			c0.5,0.2,1.4,0.5,1.3,1.6c-0.2,4.5,0.1,7.4,1.3,10.7c0.6,1.6,1.5,3.9,3.2,4.2c3.8,0.6,6.3-6.2,6.3-6.2l0.8,0.4
			c0.3,0.1,0.6,0.2,0.9,0.2c0.5,0.1,0.9,0.1,1.4,0.1c1.8-0.2,3.4-2.2,4.2-3.1c0.1-0.2,0.3-0.3,0.3-0.4l0.7-0.8l0.2,1
			c0.1,0.6,0.2,1.1,0.3,1.6c0.2,1.1,0.4,2.1,0.6,3.1c0.3,1.1,0.8,1.7,1.6,1.9c0.1,0,0.3,0.1,0.5,0.1c2.8-0.2,5.6-7.1,5.6-7.1
			c0.8,1.3,2.3,2.3,3.9,2.6c2,0.4,4.1-0.2,5.8-1.8l0.6-0.5l0.3,0.8c0.4,1,1.8,2.9,5,0.9c-2.8,4.6-4.2,13.5-1.5,14.1
			c1.1,0.2,1.9,0,2.7-0.6c2.7-2.2,2.9-9.1,3-13.1c0-0.6,0-1.1,0.1-1.6c0.1-1.2,0-3.9,0-4.5c1,0.1,2-0.8,2-0.8
			c-0.1,1-0.1,2.1,0.1,3.1c1.5,8.3,9.6,7.2,11.8,4.4c3.5-4.4,1.7-12.2,1.7-12.2c3-0.3,3.9-1.4,4.3-2.6C99,46.9,97.9,46.8,97.6,47.6z
			 M89.5,48.7c-0.6-1.2,0.8-2.5,1.9-1.7c0.9,0.7,1.3,2.8,1.3,2.8C92.2,49.9,90.1,49.9,89.5,48.7z M19.4,57.6
			c-1.4,0.2-3.5,0.4-4.5,0.4l0,0l0,0c-0.4-0.1-0.5-0.5-0.5-0.6c-0.2-0.9-0.2-9.4,1.4-10.4l0,0l0.1,0c0.1,0,0.2,0,0.4,0
			c0.7,0.1,1.1,1.3,2.5,5.8c0.5,1.5,0.9,3,1.4,4.2l0.2,0.6L19.4,57.6z M29.5,50.7l-0.4-0.1c-0.5-0.2-0.9-0.5-1.1-0.9
			c-0.2-0.5-0.1-1.2,0.3-2.1c0.5-0.9,1-1,1.3-0.9c0.5,0.1,0.8,0.6,0.8,1.1C30.4,48.1,29.5,50.7,29.5,50.7z M74.4,73.4
			c-3.8,2.2,1-11.8,1-11.8l0.2,1.5C75.9,65.3,76.6,72.1,74.4,73.4z"/>
	</g>
	<path fill="#E7DFDF" d="M40.6,47.2c-2.2-0.5-3.4-1.9-4.9-3.7c-0.2-0.3-0.5-0.6-0.7-0.9c-0.8-0.9-2.3-3.3-3.8-5.6
		c-1.3-2-2.5-3.9-3.2-4.8l-0.4-0.5l-0.4,0.5c-0.7,0.8-0.8,2.3-1,3.8c-0.2,1.7-0.4,3.6-1.3,4.3c-0.4,0.3-0.9,0.4-1.6,0.3
		c-0.1,0-0.2,0-0.4-0.1c-1.1-0.2-1.5-0.7-1.3-1.8c0.2-1.1,0.3-3.8,0.4-5.8c0-0.6,0.1-1.1,0.1-1.4l0.1-2.5c0.1-2.7,0.2-4.2,0.5-7.7
		c0.2-2.5,0.7-5,1.1-7.4c0-0.2,0.1-0.4,0.3-0.5c0.2-0.1,0.5-0.2,0.9-0.1c0.5,0.1,1.1,0.4,1.6,0.9c1,0.9,1,4.6,1,7.3
		c0,0.6,0,1.2,0,1.7l0,1.3l0.9-1c1-1.1,2.2-2.6,3.4-4.1c1.2-1.4,2.3-2.8,3-3.6l0.3-0.3c0.5-0.5,0.9-1,1.5-1.4
		c0.5-0.3,1.2-0.5,1.5-0.5c0.8,0.5,1.4,1.3,1.4,1.6c-0.1,1-0.6,1.4-1.2,2c-0.3,0.3-0.7,0.7-1.1,1.2c-1.7,2.2-3.9,5.2-5.5,8.2
		c-0.7,1.3-1.3,2.4-0.4,4.1c1.9,3.1,4.4,6.7,6.6,9.9c2,2.8,4,5.7,4.1,6.3c0,0.1,0.1,0.4,0,0.5c0,0-0.3,0.2-1.3,0.1
		C40.8,47.2,40.7,47.2,40.6,47.2z"/>
	<path fill="#E7DFDF" d="M59.2,45.6c-0.2,0-0.3-0.1-0.3-0.2c-0.5-0.8,0-3.2,0.6-5.8c0.5-2.1,1-4.5,1.1-6.9l0.1-1.2l-0.9,0.8
		c-0.7,0.6-1.6,0.8-2.4,0.6c-0.8-0.2-1.4-0.6-1.8-1.4L55,30.7l-0.5,0.8c-0.1,0.1-0.2,0.3-0.3,0.6c-0.7,1.6-2.6,6-5.6,7
		c-0.2,0.1-0.4,0.1-0.5,0.1c-0.7-0.1-1.1-1.2-1.3-2.1c-0.2-1-0.3-2-0.4-3.1c-0.1-0.5-0.1-1.1-0.2-1.6l-0.1-1L45.4,32
		c-0.1,0.1-0.2,0.2-0.3,0.3c-0.8,0.8-2.6,2.7-4.4,3c-0.9,0.1-1.7,0.1-2.3,0c-1-0.2-1.3-0.6-1.4-0.8c-0.7-2.3,1-11,6.1-14.8
		c1.4-1,2.5-1.5,4.1-1.3c-6.1,3-8.2,12.9-7.3,13.4c0.3,0.2,0,0,0,0c1.9,0.4,5.3-6.7,6-8.6c0.4-1.3,1.4-2,2.4-1.8
		c0.2,0,0.4,0.1,0.6,0.2c0.2,0.1,0.5,0.8,0.5,1.4c0,1.3,0.1,3.6,0,5.9c-0.2,5.9,0.2,7.8,0.6,7.8c0.4,0,4.4-4.4,4-9.6
		c-0.1-2.1-0.2-4.5,0.5-7.8c0.1-0.3,1.4-0.8,2.2-0.7c0.1,0,0.2,0.1,0.2,0.1c0.1,0.4,0.1,1.5,0.1,2.4c0,0.6-0.1,1.2-0.1,1.7
		c0,3,0.7,4.6,2.1,4.9c0.4,0.1,0.7,0,1,0c0.1,0,0.2,0,0.2,0l0.1,0l0.1,0c0.4-0.2,0.5-0.7,1-2.9c0.5-2.6,1.6-7.9,3.2-7.9
		c0.1,0,0.1,0,0.2,0c0.4,0.1,0.6,0.4,0.8,0.6c0.4,0.6,0.5,1.5,0.4,2.3c-0.1,0.5-0.3,1.1-0.4,1.6c-0.2,0.7-0.4,1.4-0.5,2.1
		c-0.2,1.1-0.4,2.6-0.6,4.4c-0.7,6-2,17.3-5.4,17.5C59.4,45.6,59.3,45.6,59.2,45.6L59.2,45.6z"/>
	<path fill="#E7DFDF" d="M69.7,38c-0.2,0-0.4-0.1-0.5-0.1c-1-0.4-1.6-1.3-1.7-2.9c-0.3-5.8,1.2-13.3,4.4-21.2
		c0.7-1.8,2.7-5.7,4.8-7.3C77.2,6.1,77.6,5.9,78,6c0.6,0.1,1.3,1.3,1.3,2.5c-0.2,5.2-0.7,9.8-5.8,13.1c-1.5,1-1.7,10.7-0.7,12.9
		c0.3,0.6,0.7,0.8,1,0.9c1,0.2,2-0.9,2.2-1.1l0.1-0.1l0-0.2c0-4.6,1-10.9,6.1-14.7c1.4-1,2.5-1.5,4.1-1.3c-6.1,3-7.7,12.7-7.7,12.8
		l-0.1,0.5l0.5,0.1l0,0c1.9,0.4,5.3-6.7,5.9-8.6c0.4-1.3,1.4-2,2.4-1.8c0.2,0,0.4,0.1,0.6,0.2c0.2,0.1,0.5,0.8,0.5,1.4
		c0,1.2,0,3.3,0,5.6c0,2.4,0.4,9,0.7,8.8c1.7-0.9,2.3-10.1,3.7-9.8c0.7,0.1-0.3,3.5-0.9,5.4c-0.4,1.3-0.6,2.1-0.9,2.8
		c-0.3,1-0.7,2.2-1.4,2.9c-0.3,0.3-3.3,1.9-3.8-1.6c-0.1-1-0.3-2-0.4-3.1c-0.1-0.5-0.1-1.1-0.2-1.6l-0.1-1l-0.8,0.7
		c-0.1,0.1-0.2,0.2-0.4,0.4c-0.8,0.9-2.5,2.7-4.3,2.9c-0.3,0-0.6,0-0.9,0l-0.8-0.1c-0.8-0.1-1.6,0.4-2.2,0.9c-0.9,0.7-2.4,2-3.4,2.3
		C71.8,38.1,70.7,38.2,69.7,38z M77.8,6.8c-0.3-0.1-0.6,0.1-0.8,0.4c-2.2,3.6-3.3,7.5-3.5,11.7c0,0.4,0.2,0.7,0.6,0.8
		c0.3,0.1,0.6,0,0.7-0.3c2.7-3.3,3.9-7.3,3.5-11.9C78.4,7.2,78.2,6.9,77.8,6.8z"/>
</g>
<text transform="matrix(1 0 0 1 268.6175 -100.9793)" fill="#FCD3C6" font-family="'AvenirNext-DemiBold'" font-size="11.6161px" letter-spacing="1">GRAPHIC DESIGNER</text>
<rect x="260.1" y="-118.8" fill="none" stroke="#FCD3C6" stroke-width="1.7564" stroke-miterlimit="10" width="160.6" height="27.2"/>
<text transform="matrix(1 0 0 1 247.8613 -62.8071)"><tspan x="0" y="0" fill="#A3A2A2" font-family="'Raleway-Medium'" font-size="6px">61</tspan><tspan x="7.5" y="0" fill="#A3A2A2" font-family="'Raleway-Medium'" font-size="6px" letter-spacing="1">3</tspan><tspan x="12" y="0" fill="#A3A2A2" font-family="'Raleway-Heavy'" font-size="6px" letter-spacing="1">.</tspan><tspan x="14.7" y="0" fill="#A3A2A2" font-family="'Raleway-Medium'" font-size="6px">86</tspan><tspan x="23.1" y="0" fill="#A3A2A2" font-family="'Raleway-Medium'" font-size="6px" letter-spacing="1">3</tspan><tspan x="27.6" y="0" fill="#A3A2A2" font-family="'Raleway-Heavy'" font-size="6px" letter-spacing="1">.</tspan><tspan x="30.3" y="0" fill="#A3A2A2" font-family="'Raleway-Medium'" font-size="6px">661</tspan><tspan x="42.1" y="0" fill="#A3A2A2" font-family="'Raleway-Medium'" font-size="6px" letter-spacing="6">3|</tspan><tspan x="59.9" y="0" fill="#A3A2A2" font-family="'Raleway-Medium'" font-size="6px">kaylaraujo.c</tspan><tspan x="100.6" y="0" fill="#A3A2A2" font-family="'Raleway-Medium'" font-size="6px" letter-spacing="6">a|</tspan><tspan x="118.5" y="0" fill="#A3A2A2" font-family="'Raleway-Medium'" font-size="6px">hello@kaylaraujo.ca</tspan></text>
<rect x="216" y="-166.4" fill="none" stroke="#DEDDDD" stroke-miterlimit="10" width="252" height="144"/>
<text transform="matrix(1 0 0 1 839.6116 831.7742)" fill="#FCD3C6" font-family="'AvenirNext-DemiBold'" font-size="11.6161px" letter-spacing="1">GRAPHIC DESIGNER</text>
<rect x="831.1" y="814" fill="none" stroke="#FCD3C6" stroke-width="1.7564" stroke-miterlimit="10" width="160.6" height="27.2"/>
<text transform="matrix(1 0 0 1 818.8554 869.9465)"><tspan x="0" y="0" fill="#A3A2A2" font-family="'Raleway-Medium'" font-size="6px">61</tspan><tspan x="7.5" y="0" fill="#A3A2A2" font-family="'Raleway-Medium'" font-size="6px" letter-spacing="1">3</tspan><tspan x="12" y="0" fill="#A3A2A2" font-family="'Raleway-Heavy'" font-size="6px" letter-spacing="1">.</tspan><tspan x="14.7" y="0" fill="#A3A2A2" font-family="'Raleway-Medium'" font-size="6px">86</tspan><tspan x="23.1" y="0" fill="#A3A2A2" font-family="'Raleway-Medium'" font-size="6px" letter-spacing="1">3</tspan><tspan x="27.6" y="0" fill="#A3A2A2" font-family="'Raleway-Heavy'" font-size="6px" letter-spacing="1">.</tspan><tspan x="30.3" y="0" fill="#A3A2A2" font-family="'Raleway-Medium'" font-size="6px">661</tspan><tspan x="42.1" y="0" fill="#A3A2A2" font-family="'Raleway-Medium'" font-size="6px" letter-spacing="6">3|</tspan><tspan x="59.9" y="0" fill="#A3A2A2" font-family="'Raleway-Medium'" font-size="6px">kaylaraujo.c</tspan><tspan x="100.6" y="0" fill="#A3A2A2" font-family="'Raleway-Medium'" font-size="6px" letter-spacing="6">a|</tspan><tspan x="118.5" y="0" fill="#A3A2A2" font-family="'Raleway-Medium'" font-size="6px">hello@kaylaraujo.ca</tspan></text>
<g>
	<path fill="#C6C6C5" d="M1039,766.3v144H787v-144H1039 M1040,765.3h-1H787h-1v1v144v1h1h252h1v-1v-144V765.3L1040,765.3z"/>
</g>
<rect x="785.4" y="564.9" width="252" height="144"/>
<g>
	<g>
		<path fill="#FCD3C6" d="M930.3,636.4c-0.8-0.2-1.2-1-1.1-2.1c0.1,0,0.2,0.1,0.3,0.1c0.7,0.2,1.4,0.3,2,0.6
			c0.1,0.1,0.4,0.5,0.3,0.9c-0.1,0.2-0.3,0.4-0.8,0.5C930.8,636.5,930.5,636.5,930.3,636.4z"/>
		<path fill="#FCD3C6" d="M951.9,642.6c-0.6,2.1-3.3,2.1-3.3,2.1c-1.2-6.5-8.2-3.7-5.5-0.4c1.3,1.6,4,1.4,4,1.4
			c0,0,1.7,12.4-3.9,11.5c0,0-7-1.2-3-12c0.2-0.7,0.4-1.4,0.4-1.6c0-0.3-0.6-0.9-1-1.1c-0.4-0.1-1.1,0.2-1.2,0.4
			c-0.2,0.4-0.4,0.7-0.6,1.1c-0.7,1.3-1.4,2.6-1.9,3.9c0,0-0.8,1.9-2.7,1.7c0-0.8-0.4-5-0.8-8.2l0-0.1c-0.1-1.1-0.1-1.1-0.7-1.9
			c-0.1-0.1-0.2-0.3-0.4-0.5c-0.1-0.1-0.8-0.6-1.3-0.7c0,0-0.1,0-0.1,0c-0.1,0.1-0.3,0.6-0.3,1c0,3.3,0,4.7,0,7.1c0,1.6,0,3.6,0,7
			l0,0.1l0,0.1c-0.2,0.9-0.7,2.1-1.4,2.8c-2.9,1.5-3.8-3.1-3.8-8.3c0-2.1,0-4.3-0.3-4.9c-0.4-1-0.8-1.4-1.2-1.5
			c-0.2,0-0.5,0-0.8,0.1c-0.9,0.2-0.9,0.7-1,1.8c0,0.1,0,0.3,0,0.4c0,0.5-0.1,1.1-0.1,1.7c-0.3,6.9-0.6,8.5-1.7,8.4
			c-0.1,0-0.1,0-0.2,0c-1.2-0.2-2.3-2.6-3.1-7.1c-0.6-3.1-1.7-4.7-3.3-5c-0.1,0-0.1,0-0.2,0c-0.4-0.1-1-0.1-1.2,0.1
			c-0.2,0.2-0.2,0.5-0.2,0.8c0,1.3,0.3,3.2,0.7,5.1c0.4,2.3,0.8,4.7,0.7,6.3c-0.1,2.2-2.4,4.7-3,5.2c-0.2,0.1-0.4,0.3-0.7,0.2
			c0,0,0,0,0,0c-0.6-0.1-0.6-0.2-1-8.2c-0.1-2.2-0.2-4.3-0.3-5.5c0-0.6-0.4-1.2-0.6-1.3c-0.2-0.1-0.4-0.2-0.5-0.2
			c-1.1-0.2-2.1,0.6-2.4,1.9c-0.5,1.9-3.3,10.2-6,8.7c-0.1-0.1,1.1-10.3,7.1-13.7c-1.6-0.2-2.7,0.4-4,1.5c-4.9,4-5.7,9.6-5.3,14.3
			c0,0-1.3,4.5-3.6,5.1c-0.7,0.2-3.5-6.8-3-12c0.3-2.5,1.4-3.9-2.8-4.1c-0.7,0-1.1,0-1.6-0.1c0,0,0.5-1.7,0.6-2.2
			c0.1-0.5,0.4-2.6-1.5-2.7c-0.4,0-0.8,0-1.1,0.2c-0.8,0.5-1.6,1.8-1.9,3.2c-0.2,0.9,0.4,1.8,1.5,2.2c0.2,0.1,0.4,0.1,0.5,0.2
			l0.6,0.2c0,0-1.7,4.7-4.3,8.2c-0.1-0.6-2.4-10.6-3.1-14.1c-0.1-0.8-0.3-1.5-0.6-2.2c-0.6-1.4-2.2-2.6-4.1-3
			c-1.3-0.3-3-0.1-3.7,1.1c-1.9,3.1-2.2,6.2-2.6,10.2c-0.1,0.7-0.1,1.4-0.2,2.2c-0.4,4.1-0.2,7.9,0.2,12.5c0.1,0.7,0.4,1.6,0.6,1.8
			c1.1,0.1,1.7,0.2,2.5-0.3c1.5-0.9,1.4-2.6,1.3-4.3l0-0.2c0-0.2,0-0.3-0.1-0.5c-0.1-0.5-0.2-1.2,0.2-1.8c0.3-0.4,0.8-0.6,1.5-0.7
			c1.6-0.2,2.5-0.3,3.2-0.1c1.1,0.2,1.4,1.1,1.7,2.1c1.5,4.7,3.7,9.6,5.3,9.9c0.2,0,0.4,0,0.7-0.2c0.7-0.5,0.8-1.3-1-6.5
			c-0.3-1-1.3-3.6-1.2-3.8c2.6-4.8,4.6-10,4.6-10c0.5,0.2,1.4,0.5,1.3,1.6c-0.2,4.5,0.1,7.4,1.3,10.7c0.6,1.6,1.5,3.9,3.2,4.2
			c3.8,0.6,6.3-6.2,6.3-6.2l0.8,0.4c0.3,0.1,0.6,0.2,0.9,0.2c0.5,0.1,0.9,0.1,1.4,0.1c1.8-0.2,3.4-2.2,4.2-3.1
			c0.1-0.2,0.3-0.3,0.3-0.4l0.7-0.8l0.2,1c0.1,0.6,0.2,1.1,0.3,1.6c0.2,1.1,0.4,2.1,0.6,3.1c0.3,1.1,0.8,1.7,1.6,1.9
			c0.1,0,0.3,0.1,0.5,0.1c2.8-0.2,5.6-7.1,5.6-7.1c0.8,1.3,2.3,2.3,3.9,2.6c2,0.4,4.1-0.2,5.8-1.8l0.6-0.5l0.3,0.8
			c0.4,1,1.8,2.9,5,0.9c-2.8,4.6-4.2,13.5-1.5,14.1c1.1,0.2,1.9,0,2.7-0.6c2.7-2.2,2.9-9.1,3-13.1c0-0.6,0-1.1,0.1-1.6
			c0.1-1.2,0-3.9,0-4.5c1,0.1,2-0.8,2-0.8c-0.1,1-0.1,2.1,0.1,3.1c1.5,8.3,9.6,7.2,11.8,4.4c3.5-4.4,1.7-12.2,1.7-12.2
			c3-0.3,3.9-1.4,4.3-2.6C953.3,641.9,952.2,641.8,951.9,642.6z M943.8,643.7c-0.6-1.2,0.8-2.5,1.9-1.7c0.9,0.7,1.3,2.8,1.3,2.8
			C946.5,644.8,944.4,644.8,943.8,643.7z M873.6,652.6c-1.4,0.2-3.5,0.4-4.5,0.4l0,0l0,0c-0.4-0.1-0.5-0.5-0.5-0.6
			c-0.2-0.9-0.2-9.4,1.4-10.4l0,0l0.1,0c0.1,0,0.2,0,0.4,0c0.7,0.1,1.1,1.3,2.5,5.8c0.5,1.5,0.9,3,1.4,4.2l0.2,0.6L873.6,652.6z
			 M883.8,645.7l-0.4-0.1c-0.5-0.2-0.9-0.5-1.1-0.9c-0.2-0.5-0.1-1.2,0.3-2.1c0.5-0.9,1-1,1.3-0.9c0.5,0.1,0.8,0.6,0.8,1.1
			C884.7,643.1,883.8,645.7,883.8,645.7z M928.7,668.3c-3.8,2.2,1-11.8,1-11.8l0.2,1.5C930.2,660.3,930.9,667.1,928.7,668.3z"/>
	</g>
	<path fill="#FCD3C6" d="M894.9,642.1c-2.2-0.5-3.4-1.9-4.9-3.7c-0.2-0.3-0.5-0.6-0.7-0.9c-0.8-0.9-2.3-3.3-3.8-5.6
		c-1.3-2-2.5-3.9-3.2-4.8l-0.4-0.5l-0.4,0.5c-0.7,0.8-0.8,2.3-1,3.8c-0.2,1.7-0.4,3.6-1.3,4.3c-0.4,0.3-0.9,0.4-1.6,0.3
		c-0.1,0-0.2,0-0.4-0.1c-1.1-0.2-1.5-0.7-1.3-1.8c0.2-1.1,0.3-3.8,0.4-5.8c0-0.6,0.1-1.1,0.1-1.4l0.1-2.5c0.1-2.7,0.2-4.2,0.5-7.7
		c0.2-2.5,0.7-5,1.1-7.4c0-0.2,0.1-0.4,0.3-0.5c0.2-0.1,0.5-0.2,0.9-0.1c0.5,0.1,1.1,0.4,1.6,0.9c1,0.9,1,4.6,1,7.3
		c0,0.6,0,1.2,0,1.7l0,1.3l0.9-1c1-1.1,2.2-2.6,3.4-4.1c1.2-1.4,2.3-2.8,3-3.6l0.3-0.3c0.5-0.5,0.9-1,1.5-1.4
		c0.5-0.3,1.2-0.5,1.5-0.5c0.8,0.5,1.4,1.3,1.4,1.6c-0.1,1-0.6,1.4-1.2,2c-0.3,0.3-0.7,0.7-1.1,1.2c-1.7,2.2-3.9,5.2-5.5,8.2
		c-0.7,1.3-1.3,2.4-0.4,4.1c1.9,3.1,4.4,6.7,6.6,9.9c2,2.8,4,5.7,4.1,6.3c0,0.1,0.1,0.4,0,0.5c0,0-0.3,0.2-1.3,0.1
		C895.1,642.2,895,642.2,894.9,642.1z"/>
	<path fill="#FCD3C6" d="M913.5,640.6c-0.2,0-0.3-0.1-0.3-0.2c-0.5-0.8,0-3.2,0.6-5.8c0.5-2.1,1-4.5,1.1-6.9l0.1-1.2l-0.9,0.8
		c-0.7,0.6-1.6,0.8-2.4,0.6c-0.8-0.2-1.4-0.6-1.8-1.4l-0.5-0.8l-0.5,0.8c-0.1,0.1-0.2,0.3-0.3,0.6c-0.7,1.6-2.6,6-5.6,7
		c-0.2,0.1-0.4,0.1-0.5,0.1c-0.7-0.1-1.1-1.2-1.3-2.1c-0.2-1-0.3-2-0.4-3.1c-0.1-0.5-0.1-1.1-0.2-1.6l-0.1-1l-0.8,0.7
		c-0.1,0.1-0.2,0.2-0.3,0.3c-0.8,0.8-2.6,2.7-4.4,3c-0.9,0.1-1.7,0.1-2.3,0c-1-0.2-1.3-0.6-1.4-0.8c-0.7-2.3,1-11,6.1-14.8
		c1.4-1,2.5-1.5,4.1-1.3c-6.1,3-8.2,12.9-7.3,13.4c0.3,0.2,0,0,0,0c1.9,0.4,5.3-6.7,6-8.6c0.4-1.3,1.4-2,2.4-1.8
		c0.2,0,0.4,0.1,0.6,0.2c0.2,0.1,0.5,0.8,0.5,1.4c0,1.3,0.1,3.6,0,5.9c-0.2,5.9,0.2,7.8,0.6,7.8s4.4-4.4,4-9.6
		c-0.1-2.1-0.2-4.5,0.5-7.8c0.1-0.3,1.4-0.8,2.2-0.7c0.1,0,0.2,0.1,0.2,0.1c0.1,0.4,0.1,1.5,0.1,2.4c0,0.6-0.1,1.2-0.1,1.7
		c0,3,0.7,4.6,2.1,4.9c0.4,0.1,0.7,0,1,0c0.1,0,0.2,0,0.2,0l0.1,0l0.1,0c0.4-0.2,0.5-0.7,1-2.9c0.5-2.6,1.6-7.9,3.2-7.9
		c0.1,0,0.1,0,0.2,0c0.4,0.1,0.6,0.4,0.8,0.6c0.4,0.6,0.5,1.5,0.4,2.3c-0.1,0.5-0.3,1.1-0.4,1.6c-0.2,0.7-0.4,1.4-0.5,2.1
		c-0.2,1.1-0.4,2.6-0.6,4.4c-0.7,6-2,17.3-5.4,17.5C913.6,640.6,913.6,640.6,913.5,640.6L913.5,640.6z"/>
	<path fill="#FCD3C6" d="M924,632.9c-0.2,0-0.4-0.1-0.5-0.1c-1-0.4-1.6-1.3-1.7-2.9c-0.3-5.8,1.2-13.3,4.4-21.2
		c0.7-1.8,2.7-5.7,4.8-7.3c0.5-0.4,0.9-0.5,1.3-0.5c0.6,0.1,1.3,1.3,1.3,2.5c-0.2,5.2-0.7,9.8-5.8,13.1c-1.5,1-1.7,10.7-0.7,12.9
		c0.3,0.6,0.7,0.8,1,0.9c1,0.2,2-0.9,2.2-1.1l0.1-0.1l0-0.2c0-4.6,1-10.9,6.1-14.7c1.4-1,2.5-1.5,4.1-1.3c-6.1,3-7.7,12.7-7.7,12.8
		l-0.1,0.5l0.5,0.1l0,0c1.9,0.4,5.3-6.7,6-8.6c0.4-1.3,1.4-2,2.4-1.8c0.2,0,0.4,0.1,0.6,0.2c0.2,0.1,0.5,0.8,0.5,1.4
		c0,1.2,0,3.3,0,5.6c0,2.4,0.4,9,0.7,8.8c1.7-0.9,2.3-10.1,3.7-9.8c0.7,0.1-0.3,3.5-0.9,5.4c-0.4,1.3-0.6,2.1-0.9,2.8
		c-0.3,1-0.7,2.2-1.4,2.9c-0.3,0.3-3.3,1.9-3.8-1.6c-0.1-1-0.3-2-0.4-3.1c-0.1-0.5-0.1-1.1-0.2-1.6l-0.1-1l-0.8,0.7
		c-0.1,0.1-0.2,0.2-0.4,0.4c-0.8,0.9-2.5,2.7-4.3,2.9c-0.3,0-0.6,0-0.9,0l-0.8-0.1c-0.8-0.1-1.6,0.4-2.2,0.9c-0.9,0.7-2.4,2-3.4,2.3
		C926,633.1,925,633.1,924,632.9z M932.1,601.8c-0.3-0.1-0.6,0.1-0.8,0.4c-2.2,3.6-3.3,7.5-3.5,11.7c0,0.4,0.2,0.7,0.6,0.8
		c0.3,0.1,0.6,0,0.7-0.3c2.7-3.3,3.9-7.3,3.5-11.9C932.7,602.2,932.5,601.9,932.1,601.8z"/>
</g>
<polyline fill="none" stroke="#C6C6C5" stroke-miterlimit="10" points="959.9,617.3 953.1,625.2 1088.8,600.9 "/>
<line fill="none" stroke="#C6C6C5" stroke-miterlimit="10" x1="961.4" y1="630.8" x2="953.1" y2="625.2"/>
<text transform="matrix(1 0 0 1 1055.1721 563.0814)"><tspan x="0" y="0" font-family="'Raleway'" font-size="11px">Wordmark has a</tspan><tspan x="0" y="15" font-family="'Raleway'" font-size="11px">spot varnish and</tspan><tspan x="0" y="30" font-family="'Raleway'" font-size="11px">is embossed</tspan></text>
<polyline fill="none" stroke="#C6C6C5" stroke-miterlimit="10" points="959.9,806.8 953.1,814.7 1088.8,790.4 "/>
<line fill="none" stroke="#C6C6C5" stroke-miterlimit="10" x1="961.4" y1="820.3" x2="953.1" y2="814.7"/>
<text transform="matrix(1 0 0 1 1055.1721 772.5814)"><tspan x="0" y="0" font-family="'Raleway'" font-size="11px">This has a spot</tspan><tspan x="0" y="15" font-family="'Raleway'" font-size="11px">varnish</tspan></text>
<polyline fill="none" stroke="#C6C6C5" stroke-miterlimit="10" points="773.2,667.1 756.2,667.1 756.2,823.6 773.2,823.6 "/>
<text transform="matrix(1 0 0 1 655.1721 737.0814)"><tspan x="0" y="0" font-family="'Raleway'" font-size="11px">Stock is textured</tspan><tspan x="0" y="15" font-family="'Raleway'" font-size="11px">white #100 cover </tspan></text>
<text transform="matrix(1 0 0 1 840.3723 -150.4186)"><tspan x="0" y="0" font-family="'Raleway'" font-size="27px">Project #3</tspan><tspan x="-157.4" y="60" font-family="'Raleway-SemiBold'" font-size="56px">BUSINESS CARD</tspan></text>
<text transform="matrix(1 0 0 1 735.1945 -389.4186)"><tspan x="0" y="0" font-family="'Raleway-SemiBold'" font-size="20px">GRAPHIC DESIG</tspan><tspan x="150.8" y="0" font-family="'Raleway-SemiBold'" font-size="20px" letter-spacing="10">N|</tspan><tspan x="191" y="0" font-family="'Raleway-SemiBold'" font-size="20px">ROBERT SMITH</tspan></text>
<text transform="matrix(1 0 0 1 851.9013 185.5814)"><tspan x="0" y="0" font-family="'Raleway-SemiBold'" font-size="20px">Kayla Araujo</tspan><tspan x="-18.3" y="26" font-family="'Raleway-SemiBold'" font-size="20px">February 6, 2015</tspan></text>
</svg>
