<?xml version="1.0" encoding="utf-8"?>
<!-- Generator: Adobe Illustrator 18.1.0, SVG Export Plug-In . SVG Version: 6.00 Build 0)  -->
<!DOCTYPE svg PUBLIC "-//W3C//DTD SVG 1.1//EN" "http://www.w3.org/Graphics/SVG/1.1/DTD/svg11.dtd">
<svg version="1.1" id="Layer_1" xmlns="http://www.w3.org/2000/svg" xmlns:xlink="http://www.w3.org/1999/xlink" x="0px" y="0px"
	 viewBox="0 0 178.4 140.8" enable-background="new 0 0 178.4 140.8" xml:space="preserve">
<g>
	<path fill="#FFFFFF" d="M49.4,29.9C60,25,61.1,10.4,61.1,10.4s-1.7,0-2.5,0.9c-4,15.1-7.3,17.1-17.4,21.7c-0.1-7.4,0.1-23.1,0-24.5
		C41,7,39.3,7.7,39.3,7.7C19.9,14.5,18.4,25.9,19.4,31c3.2,1.1,5.3,0,5.3,0c-3.3-8.7,2.2-14.9,11.9-21c0.3,13.2,0.2,22.2,0.1,25
		c-3.6,1.6-10.2,4.3-15.3,8.4c-9,7-2.7,26.1,11.1,18.4c9.4-4.3,8.9-14.8,8.8-27.3c0,0,1.8-1,4.1-2.3c13,0.9,6.8,27.1,8.4,29.5
		c2.8,0.5,4.8-1.3,4.8-1.3C54.8,59.3,64.1,33.4,49.4,29.9z M30.5,61.4c-3.3-0.6-8-2.5-9.1-7.8c-2.5-12.2,15.4-17.1,15.4-17.1
		s-0.1,0.8,0,8.5S36.3,56.5,30.5,61.4z"/>
</g>
<path fill="#FFFFFF" d="M95.1,21.9c0-1.4,5.7-1.1,5.7-1.1s-3.9,19.6,6.4,20.7c0,0,0.9-15.2,2.8-20.2c1.8-0.2,4.6-0.4,4.6-0.4
	C109.9,39,116.6,65,96.5,62c-0.8,0-0.9-0.7,0.2-0.6c11.2,0.9,10.1-13.3,10.1-16.3C99.5,43.2,94.9,38.7,95.1,21.9z"/>
<path fill="#FFFFFF" d="M119.2,21.6c1.7-2.3,4.9-1.1,4.9-1.1s-1.6,18.9-4,36c7.8-2.3,12.8-1.2,17.3,0l0.5,1.5c0,0-13.2-2.8-17.4,3.4
	c-2.4,0.4-4.2,0.2-5.8,0C115.3,54.3,118.7,36.2,119.2,21.6z"/>
<g>
	<path fill="#FFFFFF" d="M158,49.7c0.7-9.4,4.8-28.5-3-28.6c-25.8-2.2-35.7,54.5-0.8,38.2c0,0,1,1.7,2.1,2.2
		c1.1,0.5,5.2-0.8,5.2-0.8S157.4,59.1,158,49.7z M153.7,56.9c-25.6,19-20-38.5-1-33.4C158.4,28.8,151.1,50.2,153.7,56.9z"/>
</g>
<g>
	<path fill="#FFFFFF" d="M89.1,49.7c0.7-9.4,4.8-28.5-3-28.6c-25.8-2.2-35.7,54.5-0.8,38.2c0,0,1,1.7,2.1,2.2
		c1.1,0.5,5.2-0.8,5.2-0.8S88.4,59.1,89.1,49.7z M84.8,56.9c-25.6,19-20-38.5-1-33.4C89.5,28.8,82.1,50.2,84.8,56.9z"/>
</g>
<g>
	<path fill="#FFFFFF" d="M49.4,93.9c1.1,0.1,2.5-0.1,2.5-0.9c0-0.7-1.6-0.9-2.6-0.8c-1.1-9.4-0.6-25.2-4.5-27.5
		c-4.7-2.7-8.8,0.1-10.9,1.9c-4.5,3.9-7.1,19.8-8.1,26.1c-5.8,0.5-20.6,1.9-22.7,11.6c-2,9.8,9.3,11.9,13.4,10.2
		c4.1-1.6,8.1-1.6,12.9-19.7c7.2-0.5,11.4-0.6,15.1-0.7c0.4,12.3,2.1,23.3,3.8,23.6c2,0.7,4.3-0.5,4.3-0.5
		C49.8,109.8,49.4,95.2,49.4,93.9z M14.5,112.9c-15.1-2.3-5.2-20.2,11.1-18.3C25.6,94.6,22.6,114.1,14.5,112.9z M30.3,93.1
		c0,0,4.3-26.1,8.7-26.9s4,7.6,5.4,26.2L30.3,93.1z"/>
</g>
<g>
	<path fill="#FFFFFF" d="M78.2,78c2.7-7.3-1.5-8.3-3.4-7.7C72.8,71,63.9,75,63.9,75s-0.1-2.3-0.3-4.9c-0.2-2.6-1.5-5.8-4.8-4
		c-12,7.2-5.4,14.8,0.7,12.1c-0.3,10.3-3.7,22.2-10.9,29.1l-0.6,1.4l2.8-0.8c11.9-6.4,13.7-31.8,13.7-31.8s6.6-3.8,9-2.5
		c4.6,4.2-10.9,18.7-2.5,31.5c3.6,3.4,6.4,1.7,9.7-0.6C67.7,104.6,75.5,85.3,78.2,78z M59.9,75.7c-4.7-0.4-2.9-7.1-1.6-7.7
		S61.6,73.4,59.9,75.7z"/>
</g>
<g>
	<path fill="#FFFFFF" d="M105.6,94.5c0.7-9.4,4.8-28.5-3-28.6c-25.8-2.2-35.7,54.5-0.8,38.2c0,0,1,1.7,2.1,2.2
		c1.1,0.5,5.2-0.8,5.2-0.8S104.9,103.9,105.6,94.5z M101.3,101.8c-25.6,19-20-38.5-1-33.4C106,73.7,98.6,95.1,101.3,101.8z"/>
</g>
<path fill="#FFFFFF" d="M118.8,67.7c0.9-1.9-4.7,0-4.7,0c-0.9,3.2-10.5,35.2,2.5,39.2c10.8,1.5,14.9-6.4,14.9-6.4
	c0.7,2.5,2.4,6.4,9.9,6.4c-3.9-1.2-6.8-6.8-6-17.9c0.7-9.4,3-22.9,1.8-23.2c-1.6-0.4-4.9,0.5-4.9,0.5s-2.9,40.3-11.2,39.1
	S114.4,77.4,118.8,67.7z"/>
<g>
	<path fill="#FFFFFF" d="M145.8,112.9c0-17,0-47.5,0-47.5s-2.8,0-4.5,0.7l-0.1,40.1c-6.6,1.5-15.2,8-13.5,18.3
		c1.7,8.9,10.3,9.2,15.1,2.2C145,123.7,145.8,118.7,145.8,112.9z M132.5,129.9c-6.3-5.1-2.4-18.3,8.9-20.8
		C141.4,109.2,143.2,129.8,132.5,129.9z"/>
</g>
<g>
	<path fill="#FFFFFF" d="M167.9,66.4c-15.6-1-18.5,21.8-18.5,21.8s-2.8,22,12.5,18.5C179.3,104.4,178.1,67.4,167.9,66.4z
		 M160.5,105.8c-15.6-4.8-2.8-37.4,3.9-37.4C171.9,68.6,172.9,100.4,160.5,105.8z"/>
</g>
</svg>
