<?xml version="1.0" encoding="utf-8"?>
<!-- Generator: Adobe Illustrator 18.1.1, SVG Export Plug-In . SVG Version: 6.00 Build 0)  -->
<!DOCTYPE svg PUBLIC "-//W3C//DTD SVG 1.1//EN" "http://www.w3.org/Graphics/SVG/1.1/DTD/svg11.dtd">
<svg version="1.1" id="Layer_1" xmlns="http://www.w3.org/2000/svg" xmlns:xlink="http://www.w3.org/1999/xlink" x="0px" y="0px"
	 width="136.8px" height="136.8px" viewBox="57.6 3.6 136.8 136.8" enable-background="new 57.6 3.6 136.8 136.8"
	 xml:space="preserve">
<path fill="#231F20" d="M126,12.2c33.1,0,59.8,26.6,59.8,59.8s-26.6,59.8-59.8,59.8S66.2,105.1,66.2,72S92.9,12.2,126,12.2 M126,3.6
	c-37.4,0-68.4,31-68.4,68.4s31,68.4,68.4,68.4s68.4-31,68.4-68.4S163.4,3.6,126,3.6L126,3.6z"/>
<path fill="#3C5A98" d="M629.7,483.6v-32.7c0-1.7,0.1-3.5,0.7-4.8c1.4-3.5,4.6-7.1,10.1-7.1c7.1,0,9.9,5.3,9.9,13.2v31.2H670V450
	c0-18-9.6-26.4-22.6-26.4c-10.4,0-15,5.6-17.6,9.6v0.1h-0.1l0.1-0.1v-8.4h-19.6c0.3,5.5,0,58.5,0,58.5h19.4V483.6z"/>
<path fill="#3C5A98" d="M589.4,417.2L589.4,417.2c6.9,0,11.2-4.5,11.2-10.1c-0.1-5.8-4.3-10.1-10.9-10.1c-6.8,0-11.1,4.3-11.1,10.1
	C578.6,412.6,582.8,417.2,589.4,417.2z"/>
<rect x="579.7" y="425.1" fill="#3C5A98" width="19.6" height="58.5"/>
<path id="Twitter_1_" fill="#231F20" d="M162,49.7c-2.6,1.2-5.5,2-8.5,2.3c3-1.9,5.5-4.8,6.5-8.2c-2.9,1.7-6,2.9-9.4,3.6
	c-2.7-2.9-6.5-4.6-10.8-4.6c-8.2,0-14.8,6.6-14.8,14.8c0,1.2,0.1,2.3,0.4,3.3c-12.2-0.6-23.2-6.5-30.5-15.4c-1.2,2-2,4.6-2,7.3
	c0,5.2,2.6,9.6,6.6,12.4c-2.4-0.1-4.8-0.7-6.8-1.9v0.1c0,7.2,5,13.1,11.8,14.5c-1.3,0.3-2.6,0.6-3.9,0.6c-1,0-1.9-0.1-2.7-0.3
	c1.9,5.9,7.3,10.2,13.8,10.2c-5,4-11.4,6.3-18.4,6.3c-1.2,0-2.3,0-3.6-0.1c6.5,4.2,14.4,6.6,22.8,6.6c27.2,0,42-22.6,42-42
	c0-0.6,0-1.3,0-1.9C157.5,55.2,160.1,52.6,162,49.7z"/>
</svg>
